<?xml version="1.0" encoding="UTF-8"?>
<svg width="295px" height="283px" viewBox="0 0 295 283" version="1.1" xmlns="http://www.w3.org/2000/svg" xmlns:xlink="http://www.w3.org/1999/xlink">
    <!-- Generator: Sketch 52.2 (67145) - http://www.bohemiancoding.com/sketch -->
    <title>icon</title>
    <desc>Created with Sketch.</desc>
    <defs>
        <filter x="-5.8%" y="-9.3%" width="111.5%" height="118.6%" filterUnits="objectBoundingBox" id="filter-1">
            <feOffset dx="0" dy="2" in="SourceAlpha" result="shadowOffsetOuter1"></feOffset>
            <feGaussianBlur stdDeviation="30.5" in="shadowOffsetOuter1" result="shadowBlurOuter1"></feGaussianBlur>
            <feColorMatrix values="0 0 0 0 0   0 0 0 0 0   0 0 0 0 0  0 0 0 0.131482111 0" type="matrix" in="shadowBlurOuter1" result="shadowMatrixOuter1"></feColorMatrix>
            <feMerge>
                <feMergeNode in="shadowMatrixOuter1"></feMergeNode>
                <feMergeNode in="SourceGraphic"></feMergeNode>
            </feMerge>
        </filter>
    </defs>
    <g id="main-page" stroke="none" stroke-width="1" fill="none" fill-rule="evenodd">
        <g id="feastures" transform="translate(-1452.000000, -633.000000)" fill="#C36312">
            <g id="Group-2" filter="url(#filter-1)" transform="translate(388.000000, 626.000000)">
                <g id="Group-Copy" transform="translate(1052.000000, 0.000000)">
                    <g id="icons/camera" transform="translate(72.000000, 59.000000)">
                        <path d="M47.983871,24.137931 L19.7580645,24.137931 L19.7580645,15.0862069 C19.7580645,13.4206897 21.0225806,12.0689655 22.5806452,12.0689655 L45.1612903,12.0689655 C46.7193548,12.0689655 47.983871,13.4206897 47.983871,15.0862069 L47.983871,24.137931 Z M160.887097,30.1724138 C168.668952,30.1724138 175,36.9400862 175,45.2586207 L175,153.87931 C175,162.197845 168.668952,168.965517 160.887097,168.965517 L14.1129032,168.965517 C6.33104839,168.965517 0,162.197845 0,153.87931 L0,45.2586207 C0,36.9400862 6.33104839,30.1724138 14.1129032,30.1724138 L55.1701613,30.1724138 L74.0842742,7.06336207 C74.6233871,6.41163793 75.3967742,6.03448276 76.2096774,6.03448276 L115.725806,6.03448276 C116.53871,6.03448276 117.312097,6.41163793 117.85121,7.06336207 L136.765323,30.1724138 L160.887097,30.1724138 Z M33.8709677,69.3965517 C36.9842742,69.3965517 39.516129,66.6900862 39.516129,63.362069 C39.516129,60.0340517 36.9842742,57.3275862 33.8709677,57.3275862 C30.7576613,57.3275862 28.2258065,60.0340517 28.2258065,63.362069 C28.2258065,66.6900862 30.7576613,69.3965517 33.8709677,69.3965517 Z M95.9677419,141.810345 C117.791935,141.810345 135.483871,122.898276 135.483871,99.5689655 C135.483871,76.2396552 117.791935,57.3275862 95.9677419,57.3275862 C74.1435484,57.3275862 56.4516129,76.2396552 56.4516129,99.5689655 C56.4516129,122.898276 74.1435484,141.810345 95.9677419,141.810345 Z" id="Combined-Shape"></path>
                    </g>
                </g>
            </g>
        </g>
    </g>
</svg>