<?xml version="1.0" encoding="UTF-8"?>
<svg width="273px" height="295px" viewBox="0 0 273 295" version="1.1" xmlns="http://www.w3.org/2000/svg" xmlns:xlink="http://www.w3.org/1999/xlink">
    <!-- Generator: Sketch 52.2 (67145) - http://www.bohemiancoding.com/sketch -->
    <title>icon</title>
    <desc>Created with Sketch.</desc>
    <defs>
        <filter x="-5.8%" y="-9.3%" width="111.5%" height="118.6%" filterUnits="objectBoundingBox" id="filter-1">
            <feOffset dx="0" dy="2" in="SourceAlpha" result="shadowOffsetOuter1"></feOffset>
            <feGaussianBlur stdDeviation="30.5" in="shadowOffsetOuter1" result="shadowBlurOuter1"></feGaussianBlur>
            <feColorMatrix values="0 0 0 0 0   0 0 0 0 0   0 0 0 0 0  0 0 0 0.131482111 0" type="matrix" in="shadowBlurOuter1" result="shadowMatrixOuter1"></feColorMatrix>
            <feMerge>
                <feMergeNode in="shadowMatrixOuter1"></feMergeNode>
                <feMergeNode in="SourceGraphic"></feMergeNode>
            </feMerge>
        </filter>
    </defs>
    <g id="main-page" stroke="none" stroke-width="1" fill="none" fill-rule="evenodd">
        <g id="feastures" transform="translate(-411.000000, -627.000000)" fill="#1E6EBD" fill-rule="nonzero">
            <g id="Group-2" filter="url(#filter-1)" transform="translate(388.000000, 626.000000)">
                <g id="Group">
                    <g id="icons/archive" transform="translate(72.000000, 59.000000)">
                        <path d="M158.064516,36.2068966 C161.183468,36.2068966 163.709677,38.9073276 163.709677,42.2413793 L163.709677,168.965517 C163.709677,172.299569 161.183468,175 158.064516,175 L16.9354839,175 C13.8165323,175 11.2903226,172.299569 11.2903226,168.965517 L11.2903226,42.2413793 C11.2903226,38.9073276 13.8165323,36.2068966 16.9354839,36.2068966 L158.064516,36.2068966 Z M118.548387,93.5344828 L118.548387,78.4482759 C118.548387,76.7797414 117.283871,75.4310345 115.725806,75.4310345 C114.167742,75.4310345 112.903226,76.7797414 112.903226,78.4482759 L112.903226,90.5172414 L62.0967742,90.5172414 L62.0967742,78.4482759 C62.0967742,76.7797414 60.8322581,75.4310345 59.2741935,75.4310345 C57.716129,75.4310345 56.4516129,76.7797414 56.4516129,78.4482759 L56.4516129,93.5344828 C56.4516129,95.2030172 57.716129,96.5517241 59.2741935,96.5517241 L115.725806,96.5517241 C117.283871,96.5517241 118.548387,95.2030172 118.548387,93.5344828 Z M143.951613,15.0862069 C145.509677,15.0862069 146.774194,16.437931 146.774194,18.1034483 L146.774194,30.1724138 L28.2258065,30.1724138 L28.2258065,18.1034483 C28.2258065,16.437931 29.4903226,15.0862069 31.0483871,15.0862069 L143.951613,15.0862069 Z M127.016129,0 C128.574194,0 129.83871,1.35172414 129.83871,3.01724138 L129.83871,9.05172414 L45.1612903,9.05172414 L45.1612903,3.01724138 C45.1612903,1.35172414 46.4258065,0 47.983871,0 L127.016129,0 Z" id="Combined-Shape"></path>
                    </g>
                </g>
            </g>
        </g>
    </g>
</svg>