<?xml version="1.0" encoding="UTF-8"?>
<svg width="281px" height="293px" viewBox="0 0 281 293" version="1.1" xmlns="http://www.w3.org/2000/svg" xmlns:xlink="http://www.w3.org/1999/xlink">
    <!-- Generator: Sketch 52.2 (67145) - http://www.bohemiancoding.com/sketch -->
    <title>icon</title>
    <desc>Created with Sketch.</desc>
    <defs>
        <filter x="-5.8%" y="-9.3%" width="111.5%" height="118.6%" filterUnits="objectBoundingBox" id="filter-1">
            <feOffset dx="0" dy="2" in="SourceAlpha" result="shadowOffsetOuter1"></feOffset>
            <feGaussianBlur stdDeviation="30.5" in="shadowOffsetOuter1" result="shadowBlurOuter1"></feGaussianBlur>
            <feColorMatrix values="0 0 0 0 0   0 0 0 0 0   0 0 0 0 0  0 0 0 0.131482111 0" type="matrix" in="shadowBlurOuter1" result="shadowMatrixOuter1"></feColorMatrix>
            <feMerge>
                <feMergeNode in="shadowMatrixOuter1"></feMergeNode>
                <feMergeNode in="SourceGraphic"></feMergeNode>
            </feMerge>
        </filter>
    </defs>
    <g id="main-page" stroke="none" stroke-width="1" fill="none" fill-rule="evenodd">
        <g id="feastures" transform="translate(-1459.000000, -1282.000000)" fill="#7ACFC0" fill-rule="nonzero">
            <g id="Group-2" filter="url(#filter-1)" transform="translate(388.000000, 626.000000)">
                <g id="Group-Copy-3" transform="translate(1052.000000, 654.000000)">
                    <g id="icons/cpu" transform="translate(72.000000, 59.000000)">
                        <path d="M114.784946,58.3333333 L60.2150538,58.3333333 L60.2150538,116.666667 L114.784946,116.666667 L114.784946,58.3333333 Z M96.5949821,97.2222222 L78.4050179,97.2222222 L78.4050179,77.7777778 L96.5949821,77.7777778 L96.5949821,97.2222222 Z M169.354839,77.7777778 L169.354839,58.3333333 L151.164875,58.3333333 L151.164875,38.8888889 C151.164875,28.1458333 143.024866,19.4444444 132.97491,19.4444444 L114.784946,19.4444444 L114.784946,0 L96.5949821,0 L96.5949821,19.4444444 L78.4050179,19.4444444 L78.4050179,0 L60.2150538,0 L60.2150538,19.4444444 L42.0250896,19.4444444 C31.9751344,19.4444444 23.8351254,28.1458333 23.8351254,38.8888889 L23.8351254,58.3333333 L5.64516129,58.3333333 L5.64516129,77.7777778 L23.8351254,77.7777778 L23.8351254,97.2222222 L5.64516129,97.2222222 L5.64516129,116.666667 L23.8351254,116.666667 L23.8351254,136.111111 C23.8351254,146.854167 31.9751344,155.555556 42.0250896,155.555556 L60.2150538,155.555556 L60.2150538,175 L78.4050179,175 L78.4050179,155.555556 L96.5949821,155.555556 L96.5949821,175 L114.784946,175 L114.784946,155.555556 L132.97491,155.555556 C143.024866,155.555556 151.164875,146.854167 151.164875,136.111111 L151.164875,116.666667 L169.354839,116.666667 L169.354839,97.2222222 L151.164875,97.2222222 L151.164875,77.7777778 L169.354839,77.7777778 Z M132.97491,136.111111 L42.0250896,136.111111 L42.0250896,38.8888889 L132.97491,38.8888889 L132.97491,136.111111 Z" id="Shape"></path>
                    </g>
                </g>
            </g>
        </g>
    </g>
</svg>