<?xml version="1.0" encoding="UTF-8"?>
<svg width="283px" height="294px" viewBox="0 0 283 294" version="1.1" xmlns="http://www.w3.org/2000/svg" xmlns:xlink="http://www.w3.org/1999/xlink">
    <!-- Generator: Sketch 52.2 (67145) - http://www.bohemiancoding.com/sketch -->
    <title>icon</title>
    <desc>Created with Sketch.</desc>
    <defs>
        <filter x="-5.8%" y="-9.3%" width="111.5%" height="118.6%" filterUnits="objectBoundingBox" id="filter-1">
            <feOffset dx="0" dy="2" in="SourceAlpha" result="shadowOffsetOuter1"></feOffset>
            <feGaussianBlur stdDeviation="30.5" in="shadowOffsetOuter1" result="shadowBlurOuter1"></feGaussianBlur>
            <feColorMatrix values="0 0 0 0 0   0 0 0 0 0   0 0 0 0 0  0 0 0 0.131482111 0" type="matrix" in="shadowBlurOuter1" result="shadowMatrixOuter1"></feColorMatrix>
            <feMerge>
                <feMergeNode in="shadowMatrixOuter1"></feMergeNode>
                <feMergeNode in="SourceGraphic"></feMergeNode>
            </feMerge>
        </filter>
    </defs>
    <g id="main-page" stroke="none" stroke-width="1" fill="none" fill-rule="evenodd">
        <g id="feastures" transform="translate(-405.000000, -1282.000000)" fill="#FFE100" fill-rule="nonzero">
            <g id="Group-2" filter="url(#filter-1)" transform="translate(388.000000, 626.000000)">
                <g id="Group-Copy-2" transform="translate(0.000000, 654.000000)">
                    <g id="analysis" transform="translate(72.000000, 59.000000)">
                        <path d="M60.2150538,38.8888889 L42.0250896,38.8888889 L42.0250896,58.3333333 L60.2150538,58.3333333 L60.2150538,38.8888889 Z M60.2150538,77.7777778 L42.0250896,77.7777778 L42.0250896,97.2222222 L60.2150538,97.2222222 L60.2150538,77.7777778 Z M60.2150538,0 C50.1650986,0 42.0250896,8.70138889 42.0250896,19.4444444 L60.2150538,19.4444444 L60.2150538,0 Z M96.5949821,116.666667 L78.4050179,116.666667 L78.4050179,136.111111 L96.5949821,136.111111 L96.5949821,116.666667 Z M151.164875,0 L151.164875,19.4444444 L169.354839,19.4444444 C169.354839,8.70138889 161.21483,0 151.164875,0 Z M96.5949821,0 L78.4050179,0 L78.4050179,19.4444444 L96.5949821,19.4444444 L96.5949821,0 Z M60.2150538,136.111111 L60.2150538,116.666667 L42.0250896,116.666667 C42.0250896,127.409722 50.1650986,136.111111 60.2150538,136.111111 Z M151.164875,97.2222222 L169.354839,97.2222222 L169.354839,77.7777778 L151.164875,77.7777778 L151.164875,97.2222222 Z M151.164875,58.3333333 L169.354839,58.3333333 L169.354839,38.8888889 L151.164875,38.8888889 L151.164875,58.3333333 Z M151.164875,136.111111 C161.21483,136.111111 169.354839,127.409722 169.354839,116.666667 L151.164875,116.666667 L151.164875,136.111111 Z M23.8351254,38.8888889 L5.64516129,38.8888889 L5.64516129,155.555556 C5.64516129,166.298611 13.7851703,175 23.8351254,175 L132.97491,175 L132.97491,155.555556 L23.8351254,155.555556 L23.8351254,38.8888889 Z M114.784946,19.4444444 L132.97491,19.4444444 L132.97491,0 L114.784946,0 L114.784946,19.4444444 Z M114.784946,136.111111 L132.97491,136.111111 L132.97491,116.666667 L114.784946,116.666667 L114.784946,136.111111 Z" id="Shape"></path>
                    </g>
                </g>
            </g>
        </g>
    </g>
</svg>