<svg xmlns="http://www.w3.org/2000/svg" viewBox="0 0 23.05 24.74"><title>Asset 1</title><g id="98cb74d2-69e8-4476-b786-a50e9210663c" data-name="Layer 2"><g id="762a9174-a6cf-4031-83b4-f38163e1bac5" data-name="Layer 1"><g opacity="0.2"><polygon points="12.88 9.53 9.38 6.03 11.52 3.88 8 0.36 8.05 0.31 11.63 3.88 9.48 6.03 12.88 9.42 14.36 7.94 15.66 9.23 15.6 9.29 14.36 8.04 12.88 9.53" fill="#333"/><path d="M8.17.47a.21.21,0,0,1-.29,0,.21.21,0,0,1,0-.28.21.21,0,0,1,.29,0A.2.2,0,0,1,8.17.47Z" fill="#333"/><path d="M11.7,4a.21.21,0,0,1-.28,0,.21.21,0,0,1,0-.29.21.21,0,0,1,.28,0A.21.21,0,0,1,11.7,4Z" fill="#333"/><path d="M15.73,9.36a.17.17,0,0,1-.23,0,.15.15,0,0,1,0-.23.16.16,0,0,1,.23.23Z" fill="#333"/><path d="M9.55,6.15a.2.2,0,1,1,0-.28A.19.19,0,0,1,9.55,6.15Z" fill="#333"/><path d="M13,9.63a.2.2,0,1,1,0-.28A.19.19,0,0,1,13,9.63Z" fill="#333"/><path d="M14.45,8.11a.13.13,0,0,1-.18,0,.12.12,0,0,1,0-.17.13.13,0,0,1,.18,0A.12.12,0,0,1,14.45,8.11Z" fill="#333"/><polygon points="19.32 17.92 15.82 14.42 17.97 12.27 14.45 8.75 14.5 8.7 18.08 12.27 15.93 14.42 19.32 17.81 20.81 16.33 22.1 17.63 22.05 17.68 20.8 16.43 19.32 17.92" fill="#333"/><path d="M14.61,8.86a.2.2,0,1,1,0-.28A.19.19,0,0,1,14.61,8.86Z" fill="#333"/><path d="M18.15,12.4a.21.21,0,1,1,0-.29A.21.21,0,0,1,18.15,12.4Z" fill="#333"/><path d="M22.18,17.75a.17.17,0,0,1-.23,0,.15.15,0,0,1,0-.23.16.16,0,0,1,.23.23Z" fill="#333"/><path d="M16,14.54a.2.2,0,1,1,0-.28A.19.19,0,0,1,16,14.54Z" fill="#333"/><path d="M19.48,18a.2.2,0,1,1,0-.28A.19.19,0,0,1,19.48,18Z" fill="#333"/><path d="M20.89,16.5a.12.12,0,1,1,0-.17A.11.11,0,0,1,20.89,16.5Z" fill="#333"/><polygon points="12.64 14.35 9.15 10.85 11.29 8.71 7.77 5.18 7.82 5.13 11.4 8.7 9.25 10.85 12.64 14.24 14.13 12.76 15.43 14.06 15.37 14.11 14.13 12.87 12.64 14.35" fill="#333"/><path d="M7.94,5.3A.21.21,0,0,1,7.65,5a.21.21,0,0,1,.29.29Z" fill="#333"/><path d="M11.47,8.83a.2.2,0,1,1,0-.28A.19.19,0,0,1,11.47,8.83Z" fill="#333"/><path d="M15.5,14.18a.16.16,0,0,1-.23-.23.16.16,0,0,1,.23.23Z" fill="#333"/><path d="M9.32,11A.2.2,0,0,1,9,11a.2.2,0,0,1,.28-.28A.21.21,0,0,1,9.32,11Z" fill="#333"/><path d="M12.8,14.46a.2.2,0,0,1-.28,0,.2.2,0,1,1,.28-.28A.21.21,0,0,1,12.8,14.46Z" fill="#333"/><path d="M14.22,12.94a.15.15,0,0,1-.18,0,.13.13,0,1,1,.18,0Z" fill="#333"/><polygon points="0.46 7.83 0.4 7.78 1.65 6.53 0.17 5.05 3.66 1.55 5.81 3.7 9.33 0.17 9.38 0.23 5.81 3.8 3.66 1.66 0.27 5.05 1.75 6.53 0.46 7.83" fill="#333"/><path d="M9.22.34a.19.19,0,0,1,0-.28.19.19,0,0,1,.28,0,.19.19,0,0,1,0,.28A.19.19,0,0,1,9.22.34Z" fill="#333"/><path d="M5.69,3.88a.21.21,0,0,1,0-.29.19.19,0,0,1,.28,0,.22.22,0,0,1,0,.29A.21.21,0,0,1,5.69,3.88Z" fill="#333"/><path d="M.33,7.9a.17.17,0,0,1,0-.23.17.17,0,0,1,.23,0,.16.16,0,0,1-.23.23Z" fill="#333"/><path d="M3.54,1.73a.2.2,0,1,1,.28,0A.19.19,0,0,1,3.54,1.73Z" fill="#333"/><path d="M.06,5.21a.19.19,0,0,1,0-.28.19.19,0,0,1,.28,0,.19.19,0,0,1,0,.28A.19.19,0,0,1,.06,5.21Z" fill="#333"/><path d="M1.58,6.62a.13.13,0,0,1,0-.18.12.12,0,0,1,.17,0,.13.13,0,0,1,0,.18A.11.11,0,0,1,1.58,6.62Z" fill="#333"/><polygon points="11.69 19.07 11.64 19.01 12.88 17.77 11.4 16.28 14.9 12.79 17.04 14.93 20.57 11.41 20.62 11.46 17.04 15.04 14.9 12.89 11.51 16.28 12.99 17.77 11.69 19.07" fill="#333"/><path d="M20.45,11.58a.21.21,0,0,1,0-.29.19.19,0,0,1,.28,0,.21.21,0,0,1,0,.29A.21.21,0,0,1,20.45,11.58Z" fill="#333"/><path d="M16.92,15.11a.2.2,0,1,1,.28,0A.19.19,0,0,1,16.92,15.11Z" fill="#333"/><path d="M11.57,19.14a.16.16,0,1,1,.23-.23.16.16,0,0,1-.23.23Z" fill="#333"/><path d="M14.77,13a.2.2,0,0,1,0-.28.21.21,0,0,1,.29,0,.21.21,0,0,1,0,.28A.21.21,0,0,1,14.77,13Z" fill="#333"/><path d="M11.29,16.44a.21.21,0,0,1,0-.28.2.2,0,1,1,0,.28Z" fill="#333"/><path d="M12.81,17.86a.13.13,0,1,1,.18,0A.15.15,0,0,1,12.81,17.86Z" fill="#333"/><polygon points="5.12 17.21 5.07 17.16 6.31 15.91 4.83 14.43 8.33 10.93 10.47 13.08 14 9.55 14.05 9.61 10.47 13.18 8.33 11.04 4.93 14.43 6.42 15.91 5.12 17.21" fill="#333"/><path d="M13.88,9.72a.2.2,0,1,1,.28,0A.19.19,0,0,1,13.88,9.72Z" fill="#333"/><path d="M10.39,13.29a.2.2,0,1,1,.28,0A.19.19,0,0,1,10.39,13.29Z" fill="#333"/><path d="M5,17.28a.17.17,0,0,1,0-.23.18.18,0,0,1,.24,0,.17.17,0,0,1,0,.23A.16.16,0,0,1,5,17.28Z" fill="#333"/><path d="M8.2,11.11a.21.21,0,0,1,0-.29.2.2,0,0,1,.28,0,.2.2,0,0,1-.28.28Z" fill="#333"/><path d="M4.72,14.59a.22.22,0,0,1,0-.29.23.23,0,0,1,.29,0,.22.22,0,0,1,0,.29A.2.2,0,0,1,4.72,14.59Z" fill="#333"/><circle cx="6.33" cy="15.91" r="0.12" fill="#333"/><polygon points="13.87 23.72 13.82 23.67 15.06 22.42 13.58 20.94 17.08 17.44 19.23 19.59 22.75 16.06 22.8 16.11 19.23 19.69 17.08 17.55 13.69 20.94 15.17 22.42 13.87 23.72" fill="#333"/><path d="M22.63,16.23a.21.21,0,0,1,0-.28.21.21,0,0,1,.29,0,.21.21,0,0,1,0,.28A.21.21,0,0,1,22.63,16.23Z" fill="#333"/><path d="M19.1,19.76a.2.2,0,1,1,.28,0A.19.19,0,0,1,19.1,19.76Z" fill="#333"/><path d="M13.75,23.79a.16.16,0,1,1,.23,0A.17.17,0,0,1,13.75,23.79Z" fill="#333"/><path d="M17,17.62a.21.21,0,0,1,0-.29.21.21,0,0,1,.28,0,.21.21,0,0,1,0,.29A.2.2,0,0,1,17,17.62Z" fill="#333"/><path d="M13.48,21.1a.21.21,0,0,1,0-.29.21.21,0,0,1,.28,0,.21.21,0,0,1,0,.29A.21.21,0,0,1,13.48,21.1Z" fill="#333"/><path d="M15,22.51a.13.13,0,0,1,.18-.18.13.13,0,1,1-.18.18Z" fill="#333"/><polygon points="6.93 24.62 6.88 24.57 8.12 23.32 6.64 21.84 10.14 18.34 12.28 20.49 15.81 16.96 15.86 17.02 12.28 20.59 10.14 18.45 6.75 21.84 8.23 23.32 6.93 24.62" fill="#333"/><path d="M15.69,17.13a.2.2,0,0,1,.28-.28.2.2,0,0,1,0,.28A.21.21,0,0,1,15.69,17.13Z" fill="#333"/><path d="M12.16,20.66a.2.2,0,1,1,.28,0A.19.19,0,0,1,12.16,20.66Z" fill="#333"/><path d="M6.81,24.69a.15.15,0,0,1,0-.23.16.16,0,1,1,0,.23Z" fill="#333"/><path d="M10,18.52a.21.21,0,1,1,.29,0A.21.21,0,0,1,10,18.52Z" fill="#333"/><path d="M6.53,22a.19.19,0,0,1,0-.28.22.22,0,0,1,.29,0,.23.23,0,0,1,0,.29A.21.21,0,0,1,6.53,22Z" fill="#333"/><path d="M8.05,23.41a.13.13,0,1,1,.18,0A.13.13,0,0,1,8.05,23.41Z" fill="#333"/><polygon points="7.24 16.81 7.22 16.79 7.78 16.22 7.11 15.55 8.69 13.97 9.66 14.94 11.25 13.35 11.28 13.37 9.66 14.99 8.69 14.02 7.16 15.55 7.83 16.22 7.24 16.81" fill="#333"/><path d="M11.2,13.43a.09.09,0,0,1,0-.13.09.09,0,0,1,.13,0,.09.09,0,1,1-.13.13Z" fill="#333"/><path d="M9.61,15a.09.09,0,0,1,0-.13.09.09,0,0,1,.12,0,.09.09,0,0,1,0,.13A.07.07,0,0,1,9.61,15Z" fill="#333"/><path d="M7.19,16.84a.07.07,0,1,1,.1,0A.07.07,0,0,1,7.19,16.84Z" fill="#333"/><path d="M8.64,14.05a.09.09,0,0,1,0-.13.08.08,0,0,1,.12,0,.08.08,0,0,1-.12.12Z" fill="#333"/><path d="M7.06,15.63a.1.1,0,0,1,0-.13.09.09,0,0,1,.13.13A.1.1,0,0,1,7.06,15.63Z" fill="#333"/><path d="M7.75,16.26a.06.06,0,1,1,.08,0A0,0,0,0,1,7.75,16.26Z" fill="#333"/><polygon points="13.35 20.35 13.37 20.38 12.81 20.94 13.48 21.61 11.9 23.19 10.93 22.22 9.34 23.81 9.32 23.79 10.93 22.17 11.9 23.14 13.43 21.61 12.76 20.94 13.35 20.35" fill="#333"/><path d="M9.39,23.73a.09.09,0,1,1-.13.13.09.09,0,0,1,0-.13A.09.09,0,0,1,9.39,23.73Z" fill="#333"/><path d="M11,22.14a.09.09,0,1,1-.13,0A.09.09,0,0,1,11,22.14Z" fill="#333"/><path d="M13.41,20.32a.07.07,0,0,1,0,.1.08.08,0,0,1-.11,0,.08.08,0,0,1,0-.1A.08.08,0,0,1,13.41,20.32Z" fill="#333"/><circle cx="11.89" cy="23.17" r="0.09" fill="#333"/><path d="M13.53,21.54a.07.07,0,0,1,0,.12.09.09,0,0,1-.13,0,.09.09,0,0,1,0-.12A.09.09,0,0,1,13.53,21.54Z" fill="#333"/><path d="M12.84,20.9a.05.05,0,0,1,0,.08.06.06,0,1,1,0-.08Z" fill="#333"/><polygon points="8.01 2.19 8.05 2.22 7.16 3.11 8.22 4.17 5.72 6.66 4.19 5.13 1.68 7.65 1.64 7.61 4.19 5.06 5.72 6.59 8.14 4.17 7.09 3.11 8.01 2.19" fill="#333"/><path d="M1.76,7.53a.13.13,0,0,1,0,.2.14.14,0,0,1-.2,0,.14.14,0,0,1,.2-.2Z" fill="#333"/><path d="M4.28,5a.13.13,0,0,1,0,.2.14.14,0,0,1-.2-.2A.13.13,0,0,1,4.28,5Z" fill="#333"/><path d="M8.1,2.13a.14.14,0,0,1,0,.17.12.12,0,0,1-.16,0,.12.12,0,0,1,0-.17A.12.12,0,0,1,8.1,2.13Z" fill="#333"/><path d="M5.81,6.54a.13.13,0,0,1,0,.2.14.14,0,1,1-.2-.2A.13.13,0,0,1,5.81,6.54Z" fill="#333"/><path d="M8.3,4.06a.15.15,0,0,1,0,.2.15.15,0,0,1-.21-.21A.15.15,0,0,1,8.3,4.06Z" fill="#333"/><path d="M7.21,3.05a.09.09,0,0,1,0,.12.09.09,0,0,1-.13,0,.09.09,0,0,1,0-.12A.09.09,0,0,1,7.21,3.05Z" fill="#333"/><polygon points="8.03 14.31 8 14.35 7.11 13.46 6.05 14.52 3.55 12.03 5.09 10.49 2.57 7.98 2.61 7.94 5.16 10.49 3.63 12.03 6.05 14.45 7.11 13.39 8.03 14.31" fill="#333"/><path d="M2.69,8a.15.15,0,0,1-.21,0,.15.15,0,0,1,0-.2.15.15,0,0,1,.21,0A.15.15,0,0,1,2.69,8Z" fill="#333"/><path d="M5.21,10.58a.14.14,0,1,1-.2-.2.15.15,0,0,1,.2,0A.13.13,0,0,1,5.21,10.58Z" fill="#333"/><path d="M8.09,14.4a.12.12,0,0,1-.17,0,.12.12,0,0,1,0-.16.1.1,0,0,1,.16,0A.11.11,0,0,1,8.09,14.4Z" fill="#333"/><path d="M3.68,12.11a.14.14,0,0,1-.2-.2.15.15,0,0,1,.2,0A.13.13,0,0,1,3.68,12.11Z" fill="#333"/><path d="M6.16,14.6a.15.15,0,0,1-.2,0,.17.17,0,0,1,0-.21.15.15,0,0,1,.2,0A.14.14,0,0,1,6.16,14.6Z" fill="#333"/><path d="M7.17,13.51a.08.08,0,1,1,0-.12A.07.07,0,0,1,7.17,13.51Z" fill="#333"/><polygon points="10.66 21.92 10.62 21.95 9.73 21.07 8.67 22.13 6.18 19.63 7.71 18.1 5.2 15.59 5.23 15.55 7.79 18.1 6.25 19.63 8.67 22.05 9.73 20.99 10.66 21.92" fill="#333"/><path d="M5.32,15.67a.17.17,0,0,1-.21,0,.15.15,0,0,1,0-.2.15.15,0,0,1,.21,0A.15.15,0,0,1,5.32,15.67Z" fill="#333"/><path d="M7.83,18.19a.14.14,0,0,1-.2-.2.14.14,0,1,1,.2.2Z" fill="#333"/><path d="M10.71,22a.12.12,0,1,1,0-.17A.14.14,0,0,1,10.71,22Z" fill="#333"/><path d="M6.3,19.72a.14.14,0,0,1-.2-.2.14.14,0,1,1,.2.2Z" fill="#333"/><path d="M8.79,22.2a.14.14,0,1,1,0-.2A.15.15,0,0,1,8.79,22.2Z" fill="#333"/><path d="M9.79,21.12a.09.09,0,0,1-.12,0,.09.09,0,0,1,0-.13.09.09,0,0,1,.12,0A.09.09,0,0,1,9.79,21.12Z" fill="#333"/><polygon points="22.34 13.52 22.3 13.56 21.42 12.67 20.36 13.73 17.86 11.23 19.39 9.7 16.88 7.19 16.92 7.15 19.47 9.7 17.94 11.23 20.36 13.65 21.42 12.59 22.34 13.52" fill="#333"/><path d="M17,7.27a.15.15,0,0,1-.2,0,.14.14,0,1,1,.2,0Z" fill="#333"/><path d="M19.52,9.79a.15.15,0,0,1-.2,0,.13.13,0,0,1,0-.2.14.14,0,0,1,.2,0A.15.15,0,0,1,19.52,9.79Z" fill="#333"/><path d="M22.39,13.61a.12.12,0,0,1-.16,0,.12.12,0,0,1,0-.17.12.12,0,0,1,.16,0A.12.12,0,0,1,22.39,13.61Z" fill="#333"/><path d="M18,11.34a.14.14,0,0,1-.2,0,.17.17,0,0,1,0-.21.15.15,0,0,1,.2,0A.13.13,0,0,1,18,11.34Z" fill="#333"/><path d="M20.47,13.8a.14.14,0,1,1,0-.2A.13.13,0,0,1,20.47,13.8Z" fill="#333"/><path d="M21.48,12.72a.09.09,0,1,1,0-.13A.11.11,0,0,1,21.48,12.72Z" fill="#333"/><polygon points="6.1 4.89 6.08 4.91 5.71 4.53 5.25 4.99 4.19 3.92 4.84 3.27 3.77 2.2 3.79 2.18 4.88 3.27 4.22 3.92 5.25 4.95 5.71 4.5 6.1 4.89" fill="#333"/><path d="M3.82,2.23a.05.05,0,0,1-.08,0,.06.06,0,0,1,0-.09.06.06,0,0,1,.08,0A.06.06,0,0,1,3.82,2.23Z" fill="#333"/><path d="M4.9,3.31a.06.06,0,0,1-.09,0,.06.06,0,0,1,0-.08.06.06,0,1,1,.09.09Z" fill="#333"/><path d="M6.12,4.93a0,0,0,0,1-.07,0s0,0,0-.07a0,0,0,1,1,.07.07Z" fill="#333"/><path d="M4.25,4a.06.06,0,0,1-.09-.09.06.06,0,0,1,.08,0A.06.06,0,0,1,4.25,4Z" fill="#333"/><path d="M5.3,5a.06.06,0,0,1-.08,0,.06.06,0,0,1,0-.09.06.06,0,0,1,.08,0A.06.06,0,0,1,5.3,5Z" fill="#333"/><path d="M5.73,4.55a0,0,0,0,1-.05,0s0,0,0,0,0,0,.05,0S5.75,4.54,5.73,4.55Z" fill="#333"/><polygon points="9.67 10.12 9.66 10.14 9.28 9.76 8.83 10.21 7.76 9.15 8.42 8.5 7.34 7.43 7.36 7.41 8.45 8.5 7.8 9.15 8.83 10.18 9.28 9.73 9.67 10.12" fill="#333"/><path d="M7.4,7.46a.06.06,0,0,1-.09-.09.06.06,0,0,1,.09,0A.06.06,0,0,1,7.4,7.46Z" fill="#333"/><path d="M8.47,8.54a.07.07,0,0,1-.09-.09.06.06,0,0,1,.09,0A.06.06,0,0,1,8.47,8.54Z" fill="#333"/><path d="M9.7,10.16a0,0,0,1,1-.07-.07s0,0,.06,0A.06.06,0,0,1,9.7,10.16Z" fill="#333"/><path d="M7.82,9.19a.06.06,0,1,1,0-.09A.08.08,0,0,1,7.82,9.19Z" fill="#333"/><path d="M8.88,10.25a.06.06,0,0,1-.09,0,.06.06,0,0,1,0-.08s.06,0,.09,0A.07.07,0,0,1,8.88,10.25Z" fill="#333"/><path d="M9.31,9.78a0,0,0,0,1-.06,0,0,0,0,0,1,0,0,0,0,0,0,1,.06,0A0,0,0,0,1,9.31,9.78Z" fill="#333"/><polygon points="17.03 12.98 17.01 13 16.58 12.57 16.06 13.09 14.85 11.87 15.59 11.12 14.37 9.9 14.39 9.88 15.63 11.12 14.88 11.87 16.06 13.05 16.58 12.53 17.03 12.98" fill="#333"/><path d="M14.43,9.94a.07.07,0,1,1,0-.1A.09.09,0,0,1,14.43,9.94Z" fill="#333"/><path d="M15.65,11.17a.07.07,0,0,1-.09,0,.07.07,0,0,1,0-.1.06.06,0,0,1,.09,0A.07.07,0,0,1,15.65,11.17Z" fill="#333"/><path d="M17.05,13A0,0,0,0,1,17,13S17,13,17,13s.05,0,.07,0S17.08,13,17.05,13Z" fill="#333"/><path d="M14.91,11.91a.07.07,0,0,1-.1-.1.09.09,0,0,1,.1,0A.07.07,0,0,1,14.91,11.91Z" fill="#333"/><path d="M16.12,13.12A.07.07,0,1,1,16,13a.08.08,0,0,1,.1,0S16.15,13.1,16.12,13.12Z" fill="#333"/><path d="M16.61,12.59a0,0,0,0,1-.06,0s0,0,0-.06h.06S16.63,12.58,16.61,12.59Z" fill="#333"/><polygon points="4.15 9.04 4.13 9.02 4.56 8.6 4.05 8.09 5.25 6.9 5.98 7.63 7.18 6.42 7.2 6.44 5.98 7.67 5.25 6.93 4.09 8.09 4.59 8.6 4.15 9.04" fill="#333"/><path d="M7.14,6.48a.07.07,0,0,1,0-.09.07.07,0,0,1,.1,0,.06.06,0,0,1,0,.09A.07.07,0,0,1,7.14,6.48Z" fill="#333"/><path d="M5.94,7.69a.07.07,0,0,1,0-.1.07.07,0,0,1,.09,0,.07.07,0,0,1,0,.1A.08.08,0,0,1,5.94,7.69Z" fill="#333"/><path d="M4.11,9.07a.06.06,0,0,1,0-.08,0,0,0,0,1,.08,0,0,0,0,0,1,0,.07A.06.06,0,0,1,4.11,9.07Z" fill="#333"/><path d="M5.2,7a.09.09,0,0,1,0-.1.07.07,0,0,1,.1.1A.09.09,0,0,1,5.2,7Z" fill="#333"/><path d="M4,8.14a.06.06,0,1,1,.09,0A.06.06,0,0,1,4,8.14Z" fill="#333"/><path d="M4.53,8.63a.06.06,0,0,1,0-.06s0,0,.06,0,0,0,0,.06Z" fill="#333"/><polygon points="10.59 14.86 10.61 14.88 10.19 15.3 10.69 15.81 9.5 17 8.77 16.27 7.56 17.48 7.55 17.46 8.77 16.23 9.5 16.97 10.66 15.81 10.15 15.3 10.59 14.86" fill="#333"/><path d="M7.6,17.42a.06.06,0,1,1-.09,0A.06.06,0,0,1,7.6,17.42Z" fill="#333"/><path d="M8.81,16.21a.07.07,0,0,1,0,.1.09.09,0,0,1-.1,0,.08.08,0,0,1,0-.1A.07.07,0,0,1,8.81,16.21Z" fill="#333"/><path d="M10.64,14.84a0,0,0,0,1,0,.07s-.06,0-.08,0a0,0,0,0,1,0-.07S10.61,14.81,10.64,14.84Z" fill="#333"/><path d="M9.54,16.94a.07.07,0,1,1-.1.1.07.07,0,0,1,.1-.1Z" fill="#333"/><path d="M10.73,15.76a.06.06,0,0,1,0,.09.07.07,0,0,1-.1,0,.07.07,0,0,1,0-.09A.07.07,0,0,1,10.73,15.76Z" fill="#333"/><path d="M10.21,15.27s0,.05,0,.06a0,0,0,0,1-.06,0s0,0,0-.06Z" fill="#333"/><polygon points="20.44 14.04 20.45 14.05 20.12 14.38 20.51 14.78 19.58 15.71 19.01 15.14 18.07 16.08 18.05 16.06 19.01 15.11 19.58 15.68 20.48 14.78 20.09 14.38 20.44 14.04" fill="#333"/><path d="M18.1,16s0,.05,0,.07A.06.06,0,0,1,18,16,.05.05,0,0,1,18.1,16Z" fill="#333"/><path d="M19,15.09a.06.06,0,0,1,0,.08,0,0,0,0,1-.07,0,.05.05,0,0,1,0-.08A0,0,0,0,1,19,15.09Z" fill="#333"/><path d="M20.47,14a.06.06,0,0,1,0,.06s0,0-.06,0a0,0,0,0,1,0-.06S20.45,14,20.47,14Z" fill="#333"/><path d="M19.61,15.67a0,0,0,1,1-.07,0A0,0,0,0,1,19.61,15.67Z" fill="#333"/><path d="M20.54,14.74a0,0,0,0,1-.07.07s0-.05,0-.07A0,0,0,0,1,20.54,14.74Z" fill="#333"/><path d="M20.14,14.36a0,0,0,0,1,0,.05h-.05a0,0,0,0,1,0-.05Z" fill="#333"/><polygon points="13.69 6.16 13.7 6.17 13.37 6.5 13.77 6.9 12.83 7.83 12.26 7.26 11.32 8.2 11.31 8.19 12.26 7.23 12.83 7.8 13.74 6.9 13.34 6.51 13.69 6.16" fill="#333"/><path d="M11.35,8.16a0,0,0,0,1-.07.07,0,0,0,0,1,.07-.07Z" fill="#333"/><path d="M12.29,7.21a.06.06,0,0,1,0,.08,0,0,0,0,1-.07,0,.06.06,0,0,1,0-.08A0,0,0,0,1,12.29,7.21Z" fill="#333"/><path d="M13.72,6.14a0,0,0,1,1-.06,0A0,0,0,0,1,13.72,6.14Z" fill="#333"/><path d="M12.86,7.79a0,0,0,0,1,0,.07.06.06,0,0,1-.08,0,0,0,0,0,1,0-.07S12.85,7.77,12.86,7.79Z" fill="#333"/><path d="M13.79,6.86a0,0,0,0,1,0,.07s0,0-.07,0a0,0,0,1,1,.07-.07Z" fill="#333"/><path d="M13.39,6.48a0,0,0,0,1,0,0h-.05a0,0,0,0,1,0,0A0,0,0,0,1,13.39,6.48Z" fill="#333"/><polygon points="15.47 14.37 15.49 14.38 15.06 14.81 15.57 15.31 14.37 16.51 13.64 15.78 12.44 16.98 12.42 16.96 13.64 15.74 14.38 16.47 15.53 15.31 15.03 14.81 15.47 14.37" fill="#333"/><path d="M12.48,16.92a.09.09,0,0,1,0,.1.08.08,0,0,1-.1,0,.07.07,0,1,1,.1-.1Z" fill="#333"/><path d="M13.69,15.72a.06.06,0,0,1,0,.09.06.06,0,0,1-.09-.09A.07.07,0,0,1,13.69,15.72Z" fill="#333"/><path d="M15.51,14.34a.06.06,0,1,1-.08,0A.06.06,0,0,1,15.51,14.34Z" fill="#333"/><path d="M14.42,16.45a.07.07,0,0,1,0,.09.07.07,0,0,1-.1,0,.06.06,0,0,1,0-.09A.07.07,0,0,1,14.42,16.45Z" fill="#333"/><path d="M15.61,15.26a.07.07,0,0,1-.1.1.07.07,0,1,1,.1-.1Z" fill="#333"/><path d="M15.09,14.78a.06.06,0,0,1,0,.06s-.05,0-.06,0,0-.05,0-.06S15.07,14.76,15.09,14.78Z" fill="#333"/><polygon points="22.83 15.68 22.81 15.7 22.39 15.27 21.88 15.78 20.68 14.58 21.42 13.85 20.21 12.65 20.23 12.63 21.45 13.85 20.72 14.58 21.88 15.74 22.39 15.23 22.83 15.68" fill="#333"/><path d="M20.27,12.69a.09.09,0,0,1-.1,0,.08.08,0,0,1,0-.1.06.06,0,0,1,.09,0A.07.07,0,0,1,20.27,12.69Z" fill="#333"/><path d="M21.48,13.89a.07.07,0,0,1-.1-.1.09.09,0,0,1,.1,0S21.51,13.87,21.48,13.89Z" fill="#333"/><path d="M22.85,15.72a0,0,0,0,1-.07,0,0,0,0,0,1,0-.08,0,0,0,0,1,.07,0A.05.05,0,0,1,22.85,15.72Z" fill="#333"/><path d="M20.75,14.63a.09.09,0,0,1-.1,0,.07.07,0,0,1,.1-.1A.09.09,0,0,1,20.75,14.63Z" fill="#333"/><path d="M21.93,15.81a.06.06,0,1,1,0-.09A.06.06,0,0,1,21.93,15.81Z" fill="#333"/><path d="M22.41,15.29a0,0,0,0,1-.05,0s0,0,0-.06h.06S22.43,15.28,22.41,15.29Z" fill="#333"/><polygon points="4.6 9.96 4.54 9.91 8.12 6.33 10.27 8.47 13.66 5.08 12.18 3.6 13.47 2.3 13.53 2.35 12.28 3.6 13.77 5.08 10.27 8.58 8.12 6.44 4.6 9.96" fill="#333"/><path d="M4.71,9.79a.2.2,0,1,1-.28,0A.19.19,0,0,1,4.71,9.79Z" fill="#333"/><path d="M8.24,6.26a.2.2,0,0,1,0,.28.21.21,0,0,1-.29,0,.21.21,0,0,1,0-.28A.19.19,0,0,1,8.24,6.26Z" fill="#333"/><path d="M13.6,2.23a.16.16,0,1,1-.23,0A.17.17,0,0,1,13.6,2.23Z" fill="#333"/><path d="M10.39,8.41a.19.19,0,0,1,0,.28.21.21,0,0,1-.28,0,.21.21,0,0,1,0-.29A.2.2,0,0,1,10.39,8.41Z" fill="#333"/><path d="M13.87,4.92a.21.21,0,0,1,0,.29.19.19,0,0,1-.28,0,.21.21,0,0,1,0-.29A.21.21,0,0,1,13.87,4.92Z" fill="#333"/><path d="M12.35,3.51a.13.13,0,0,1,0,.18.12.12,0,0,1-.17,0,.13.13,0,0,1,0-.18A.12.12,0,0,1,12.35,3.51Z" fill="#333"/><rect x="15.58" y="4.36" width="0.04" height="5.12" transform="translate(-0.33 13.06) rotate(-45)" fill="#333"/><path d="M17.56,8.88a.21.21,0,0,1-.31,0,.22.22,0,0,1,0-.3.23.23,0,0,1,.31,0A.22.22,0,0,1,17.56,8.88Z" fill="#333"/><polygon points="2.55 7.92 2.52 7.89 4.19 6.23 4.16 5.11 4.2 5.11 4.23 6.24 2.55 7.92" fill="#333"/><polygon points="10.12 18.41 9.68 17.98 11.34 16.32 11.36 16.35 9.73 17.98 10.14 18.39 10.12 18.41" fill="#333"/><polygon points="5.13 10.51 5.09 10.46 6.49 9.07 8.36 10.95 8.32 10.99 6.49 9.15 5.13 10.51" fill="#333"/><polygon points="17.12 17.5 17.08 17.45 17.63 16.9 19.03 18.29 19.38 17.94 19.42 17.98 19.03 18.37 17.64 16.98 17.12 17.5" fill="#333"/><polygon points="13.22 18.14 12.87 17.8 12.91 17.76 13.22 18.06 15.08 16.2 15.85 16.97 15.81 17.01 15.08 16.28 13.22 18.14" fill="#333"/><polygon points="7.13 13.47 7.09 13.43 8.33 12.19 9.92 13.77 10.53 13.15 10.57 13.19 9.92 13.85 8.33 12.27 7.13 13.47" fill="#333"/><polygon points="10.89 15.22 10.57 14.9 10.6 14.88 10.89 15.17 11.98 14.08 11.27 13.36 11.29 13.34 12.03 14.08 10.89 15.22" fill="#333"/><polygon points="3.69 1.59 3.66 1.56 4.09 1.14 5.64 2.69 8.01 0.32 8.04 0.35 5.64 2.74 4.09 1.19 3.69 1.59" fill="#333"/><polygon points="11.68 2.67 9.27 0.26 9.29 0.23 11.68 2.62 12.72 1.58 13.49 2.34 13.46 2.37 12.72 1.63 11.68 2.67" fill="#333"/><polygon points="15.63 9.27 15.59 9.22 16.22 8.59 17.73 10.1 17.2 10.63 17.84 11.27 17.8 11.31 17.12 10.63 17.65 10.1 16.22 8.68 15.63 9.27" fill="#333"/><polygon points="18.61 9.99 17.43 8.81 17.46 8.79 18.61 9.94 19.01 9.54 19.2 9.73 19.39 9.68 19.4 9.72 19.18 9.77 19.01 9.59 18.61 9.99" fill="#333"/><polygon points="8.22 4.18 8.19 4.15 9.07 3.27 8 2.2 8.03 2.17 9.13 3.27 8.22 4.18" fill="#333"/><polygon points="12.53 9.91 11.32 8.7 11.34 8.67 12.53 9.86 12.9 9.5 12.92 9.52 12.53 9.91" fill="#333"/><polygon points="22.33 13.54 22.3 13.52 23 12.82 21.11 10.94 20.61 11.45 20.58 11.42 21.11 10.89 23.05 12.82 22.33 13.54" fill="#333"/><polygon points="19.61 20.11 19.18 19.68 19.21 19.65 19.61 20.05 22.05 17.62 22.07 17.65 19.61 20.11" fill="#333"/><polygon points="10.63 21.95 10.59 21.91 10.98 21.52 11.13 21.66 12.28 20.5 12.32 20.54 11.13 21.74 10.98 21.59 10.63 21.95" fill="#333"/><polygon points="3.58 13.67 2.72 12.82 3.53 12.01 3.57 12.05 2.8 12.82 3.57 13.59 3.79 13.37 4.83 14.41 4.79 14.45 3.8 13.45 3.58 13.67" fill="#333"/></g><polygon points="13.32 9.08 10.21 5.98 12.12 4.07 8.99 0.94 9.04 0.89 12.22 4.07 10.31 5.98 13.32 8.99 14.64 7.67 15.8 8.82 15.75 8.87 14.64 7.77 13.32 9.08" fill="#333"/><path d="M9.14,1a.18.18,0,1,1,0-.25A.18.18,0,0,1,9.14,1Z" fill="#333"/><path d="M12.28,4.18a.18.18,0,1,1,0-.25A.18.18,0,0,1,12.28,4.18Z" fill="#333"/><circle cx="15.76" cy="8.83" r="0.14" fill="#333"/><path d="M10.37,6.09a.18.18,0,0,1-.25,0,.19.19,0,0,1,0-.26.2.2,0,0,1,.25,0A.19.19,0,0,1,10.37,6.09Z" fill="#333"/><path d="M13.46,9.18a.18.18,0,1,1,0-.25A.17.17,0,0,1,13.46,9.18Z" fill="#333"/><path d="M14.72,7.83a.12.12,0,0,1-.16,0,.11.11,0,0,1,0-.16.11.11,0,0,1,.15,0A.12.12,0,0,1,14.72,7.83Z" fill="#333"/><polygon points="19.05 16.54 15.95 13.43 17.85 11.52 14.72 8.39 14.77 8.35 17.95 11.53 16.04 13.43 19.05 16.45 20.37 15.13 21.53 16.28 21.48 16.33 20.37 15.22 19.05 16.54" fill="#333"/><path d="M14.86,8.49a.18.18,0,1,1,0-.25A.18.18,0,0,1,14.86,8.49Z" fill="#333"/><path d="M18,11.63a.18.18,0,1,1,0-.25A.18.18,0,0,1,18,11.63Z" fill="#333"/><path d="M21.59,16.39a.14.14,0,1,1,0-.2A.13.13,0,0,1,21.59,16.39Z" fill="#333"/><path d="M16.1,13.54a.18.18,0,1,1,0-.25A.18.18,0,0,1,16.1,13.54Z" fill="#333"/><path d="M19.19,16.63a.18.18,0,1,1,0-.25A.17.17,0,0,1,19.19,16.63Z" fill="#333"/><path d="M20.45,15.29a.11.11,0,0,1-.16,0,.11.11,0,0,1,0-.15.1.1,0,0,1,.16,0A.12.12,0,0,1,20.45,15.29Z" fill="#333"/><polygon points="13.12 13.37 10.01 10.26 11.92 8.35 8.79 5.22 8.83 5.17 12.01 8.35 10.11 10.26 13.12 13.28 14.44 11.96 15.59 13.11 15.54 13.16 14.44 12.05 13.12 13.37" fill="#333"/><path d="M8.94,5.32a.19.19,0,0,1-.26,0,.18.18,0,0,1,0-.25.19.19,0,0,1,.26,0A.18.18,0,0,1,8.94,5.32Z" fill="#333"/><path d="M12.08,8.46a.19.19,0,0,1-.26,0,.2.2,0,0,1,0-.25.19.19,0,0,1,.26,0A.18.18,0,0,1,12.08,8.46Z" fill="#333"/><path d="M15.66,13.22a.14.14,0,0,1-.21,0,.15.15,0,0,1,0-.2.13.13,0,0,1,.2,0A.14.14,0,0,1,15.66,13.22Z" fill="#333"/><path d="M10.17,10.37a.18.18,0,1,1,0-.25A.18.18,0,0,1,10.17,10.37Z" fill="#333"/><path d="M13.26,13.46a.18.18,0,1,1,0-.25A.18.18,0,0,1,13.26,13.46Z" fill="#333"/><path d="M14.52,12.11a.1.1,0,0,1-.16,0,.11.11,0,0,1,0-.15.1.1,0,0,1,.16,0A.11.11,0,0,1,14.52,12.11Z" fill="#333"/><polygon points="2.29 7.58 2.24 7.53 3.35 6.42 2.03 5.11 5.14 2 7.04 3.9 10.18 0.77 10.22 0.82 7.04 4 5.14 2.09 2.12 5.1 3.44 6.42 2.29 7.58" fill="#333"/><path d="M10.07.92a.18.18,0,0,1,0-.25.19.19,0,0,1,.26,0,.2.2,0,0,1,0,.25A.19.19,0,0,1,10.07.92Z" fill="#333"/><path d="M6.93,4.06a.18.18,0,0,1,0-.25.19.19,0,0,1,.26,0,.18.18,0,0,1,0,.25A.19.19,0,0,1,6.93,4.06Z" fill="#333"/><path d="M2.18,7.64a.14.14,0,0,1,.2-.2.13.13,0,0,1,0,.2A.14.14,0,0,1,2.18,7.64Z" fill="#333"/><path d="M5,2.15a.18.18,0,1,1,.25,0A.18.18,0,0,1,5,2.15Z" fill="#333"/><path d="M1.93,5.25a.17.17,0,0,1,0-.25.18.18,0,0,1,.26,0,.18.18,0,0,1,0,.25A.19.19,0,0,1,1.93,5.25Z" fill="#333"/><path d="M3.28,6.5a.11.11,0,1,1,.16,0A.12.12,0,0,1,3.28,6.5Z" fill="#333"/><polygon points="12.27 17.56 12.22 17.51 13.33 16.41 12.01 15.09 15.12 11.98 17.03 13.89 20.16 10.76 20.21 10.8 17.03 13.98 15.12 12.07 12.11 15.09 13.43 16.41 12.27 17.56" fill="#333"/><path d="M20.06,10.9a.18.18,0,1,1,.25,0A.18.18,0,0,1,20.06,10.9Z" fill="#333"/><path d="M16.92,14a.18.18,0,1,1,.25,0A.18.18,0,0,1,16.92,14Z" fill="#333"/><path d="M12.16,17.62a.15.15,0,0,1,0-.2.14.14,0,0,1,.21,0,.15.15,0,0,1,0,.2A.15.15,0,0,1,12.16,17.62Z" fill="#333"/><path d="M15,12.14a.19.19,0,0,1,0-.26.2.2,0,0,1,.25,0,.19.19,0,0,1,0,.26A.18.18,0,0,1,15,12.14Z" fill="#333"/><path d="M11.92,15.23a.18.18,0,1,1,.25,0A.18.18,0,0,1,11.92,15.23Z" fill="#333"/><path d="M13.27,16.49a.11.11,0,1,1,.16,0A.12.12,0,0,1,13.27,16.49Z" fill="#333"/><polygon points="6.43 15.91 6.38 15.87 7.49 14.76 6.17 13.44 9.28 10.33 11.19 12.24 14.32 9.11 14.37 9.15 11.19 12.33 9.28 10.43 6.27 13.44 7.59 14.76 6.43 15.91" fill="#333"/><path d="M14.22,9.26a.18.18,0,1,1,.25,0A.18.18,0,0,1,14.22,9.26Z" fill="#333"/><path d="M11.11,12.43a.18.18,0,1,1,.25,0A.18.18,0,0,1,11.11,12.43Z" fill="#333"/><path d="M6.32,16a.17.17,0,0,1,0-.21.15.15,0,0,1,.21,0,.15.15,0,1,1-.21.21Z" fill="#333"/><path d="M9.17,10.49a.18.18,0,1,1,.25,0A.18.18,0,0,1,9.17,10.49Z" fill="#333"/><path d="M6.08,13.58a.18.18,0,1,1,.25,0A.18.18,0,0,1,6.08,13.58Z" fill="#333"/><path d="M7.43,14.84a.11.11,0,1,1,.16,0A.12.12,0,0,1,7.43,14.84Z" fill="#333"/><polygon points="14.21 21.7 14.16 21.65 15.27 20.54 13.95 19.23 17.06 16.11 18.97 18.02 22.1 14.89 22.15 14.94 18.97 18.12 17.06 16.21 14.05 19.23 15.36 20.54 14.21 21.7" fill="#333"/><path d="M22,15a.18.18,0,1,1,.25,0A.18.18,0,0,1,22,15Z" fill="#333"/><path d="M18.86,18.18a.18.18,0,1,1,.25,0A.18.18,0,0,1,18.86,18.18Z" fill="#333"/><path d="M14.1,21.76a.13.13,0,0,1,0-.2.15.15,0,0,1,.21,0,.15.15,0,0,1,0,.2A.14.14,0,0,1,14.1,21.76Z" fill="#333"/><path d="M17,16.27a.18.18,0,1,1,.25,0A.18.18,0,0,1,17,16.27Z" fill="#333"/><path d="M13.86,19.37a.17.17,0,0,1,0-.25.17.17,0,0,1,.25,0,.17.17,0,0,1,0,.25A.18.18,0,0,1,13.86,19.37Z" fill="#333"/><path d="M15.21,20.62a.1.1,0,0,1,0-.16.11.11,0,0,1,.15,0,.1.1,0,0,1,0,.16A.09.09,0,0,1,15.21,20.62Z" fill="#333"/><polygon points="8.04 22.5 7.99 22.45 9.1 21.34 7.78 20.02 10.89 16.92 12.8 18.82 15.93 15.69 15.98 15.74 12.8 18.92 10.89 17.01 7.88 20.02 9.2 21.34 8.04 22.5" fill="#333"/><path d="M15.83,15.84a.18.18,0,1,1,.25,0A.18.18,0,0,1,15.83,15.84Z" fill="#333"/><path d="M12.69,19a.18.18,0,1,1,.25,0A.18.18,0,0,1,12.69,19Z" fill="#333"/><path d="M7.93,22.56a.15.15,0,0,1,0-.2.15.15,0,0,1,.21,0,.15.15,0,0,1,0,.2A.15.15,0,0,1,7.93,22.56Z" fill="#333"/><path d="M10.78,17.07a.18.18,0,1,1,.25,0A.18.18,0,0,1,10.78,17.07Z" fill="#333"/><path d="M7.69,20.17a.18.18,0,1,1,.25,0A.17.17,0,0,1,7.69,20.17Z" fill="#333"/><path d="M9,21.42a.1.1,0,0,1,0-.15.11.11,0,1,1,0,.15Z" fill="#333"/><polygon points="8.32 15.56 8.3 15.54 8.8 15.04 8.2 14.44 9.61 13.03 10.47 13.9 11.88 12.48 11.9 12.5 10.47 13.94 9.61 13.08 8.24 14.44 8.84 15.04 8.32 15.56" fill="#333"/><path d="M11.84,12.55a.08.08,0,0,1,.11-.11.08.08,0,1,1-.11.11Z" fill="#333"/><path d="M10.42,14a.09.09,0,0,1,0-.12.08.08,0,0,1,.11,0,.09.09,0,0,1,0,.12A.08.08,0,0,1,10.42,14Z" fill="#333"/><path d="M8.27,15.58a.06.06,0,0,1,0-.09.08.08,0,0,1,.09,0,.06.06,0,0,1-.09.09Z" fill="#333"/><path d="M9.56,13.11s0-.09,0-.12a.08.08,0,0,1,.11,0,.09.09,0,0,1,0,.12A.08.08,0,0,1,9.56,13.11Z" fill="#333"/><path d="M8.16,14.5a.08.08,0,0,1,.11-.11.08.08,0,0,1-.11.11Z" fill="#333"/><path d="M8.77,15.07a0,0,0,1,1,.07,0A0,0,0,0,1,8.77,15.07Z" fill="#333"/><polygon points="13.75 18.7 13.77 18.73 13.27 19.23 13.86 19.82 12.46 21.23 11.6 20.36 10.18 21.78 10.16 21.76 11.6 20.32 12.46 21.18 13.82 19.82 13.22 19.23 13.75 18.7" fill="#333"/><path d="M10.23,21.71a.08.08,0,0,1,0,.11.07.07,0,0,1-.11,0,.07.07,0,0,1,0-.11A.08.08,0,0,1,10.23,21.71Z" fill="#333"/><path d="M11.65,20.29a.08.08,0,1,1-.12,0A.09.09,0,0,1,11.65,20.29Z" fill="#333"/><path d="M13.8,18.67a.07.07,0,0,1-.1.1.07.07,0,0,1,0-.09A.08.08,0,0,1,13.8,18.67Z" fill="#333"/><path d="M12.51,21.15a.09.09,0,0,1,0,.12.08.08,0,0,1-.11,0,.07.07,0,0,1,0-.12A.08.08,0,0,1,12.51,21.15Z" fill="#333"/><path d="M13.91,19.76a.08.08,0,0,1,0,.11.09.09,0,0,1-.12,0,.08.08,0,0,1,0-.11A.07.07,0,0,1,13.91,19.76Z" fill="#333"/><path d="M13.3,19.19a0,0,0,0,1,0,.07s-.06,0-.07,0a0,0,0,0,1,0-.07S13.28,19.17,13.3,19.19Z" fill="#333"/><polygon points="9 2.56 9.04 2.59 8.25 3.38 9.19 4.32 6.97 6.54 5.61 5.18 3.38 7.41 3.34 7.38 5.61 5.11 6.97 6.47 9.12 4.32 8.18 3.38 9 2.56" fill="#333"/><path d="M3.45,7.31a.13.13,0,0,1,0,.18.14.14,0,0,1-.18,0,.13.13,0,0,1,.18-.18Z" fill="#333"/><path d="M5.69,5.07a.13.13,0,0,1,0,.18.14.14,0,0,1-.18,0,.13.13,0,1,1,.18-.18Z" fill="#333"/><path d="M9.08,2.51a.11.11,0,1,1-.15,0A.11.11,0,0,1,9.08,2.51Z" fill="#333"/><circle cx="6.96" cy="6.52" r="0.13" fill="#333"/><path d="M9.25,4.22a.13.13,0,1,1-.18,0A.13.13,0,0,1,9.25,4.22Z" fill="#333"/><path d="M8.29,3.33a.08.08,0,1,1-.11,0A.07.07,0,0,1,8.29,3.33Z" fill="#333"/><polygon points="9.02 13.34 8.99 13.37 8.2 12.58 7.26 13.52 5.04 11.3 6.4 9.94 4.17 7.71 4.2 7.68 6.47 9.94 5.11 11.3 7.26 13.45 8.2 12.51 9.02 13.34" fill="#333"/><path d="M4.27,7.75a.13.13,0,1,1,0-.18A.13.13,0,0,1,4.27,7.75Z" fill="#333"/><path d="M6.51,10a.13.13,0,1,1,0-.18A.13.13,0,0,1,6.51,10Z" fill="#333"/><path d="M9.07,13.42a.11.11,0,1,1,0-.15A.11.11,0,0,1,9.07,13.42Z" fill="#333"/><path d="M5.15,11.38a.13.13,0,1,1,0-.18A.13.13,0,0,1,5.15,11.38Z" fill="#333"/><path d="M7.36,13.59a.13.13,0,1,1,0-.18A.13.13,0,0,1,7.36,13.59Z" fill="#333"/><path d="M8.26,12.63a.08.08,0,1,1,0-.12A.09.09,0,0,1,8.26,12.63Z" fill="#333"/><polygon points="11.35 20.1 11.32 20.13 10.53 19.34 9.59 20.28 7.37 18.06 8.73 16.7 6.5 14.47 6.53 14.44 8.8 16.7 7.44 18.06 9.59 20.21 10.53 19.27 11.35 20.1" fill="#333"/><path d="M6.61,14.54a.13.13,0,1,1,0-.18A.15.15,0,0,1,6.61,14.54Z" fill="#333"/><path d="M8.85,16.78a.13.13,0,1,1,0-.18A.15.15,0,0,1,8.85,16.78Z" fill="#333"/><path d="M11.4,20.17a.11.11,0,0,1-.15,0,.1.1,0,0,1,0-.14.11.11,0,0,1,.15,0A.1.1,0,0,1,11.4,20.17Z" fill="#333"/><path d="M7.48,18.14a.11.11,0,0,1-.17,0,.13.13,0,0,1,0-.18.11.11,0,0,1,.17,0A.13.13,0,0,1,7.48,18.14Z" fill="#333"/><path d="M9.69,20.35a.13.13,0,1,1,0-.18A.13.13,0,0,1,9.69,20.35Z" fill="#333"/><path d="M10.59,19.38a.08.08,0,0,1-.12,0,.08.08,0,0,1,0-.11.09.09,0,0,1,.12,0A.08.08,0,0,1,10.59,19.38Z" fill="#333"/><polygon points="21.74 12.63 21.7 12.66 20.92 11.88 19.98 12.81 17.76 10.6 19.12 9.24 16.88 7 16.92 6.97 19.18 9.24 17.82 10.6 19.97 12.75 20.91 11.81 21.74 12.63" fill="#333"/><path d="M17,7.08a.13.13,0,1,1,0-.18A.13.13,0,0,1,17,7.08Z" fill="#333"/><path d="M19.23,9.32a.13.13,0,1,1,0-.18A.13.13,0,0,1,19.23,9.32Z" fill="#333"/><path d="M21.78,12.71a.1.1,0,0,1-.14,0,.11.11,0,0,1,0-.15.1.1,0,0,1,.14,0A.11.11,0,0,1,21.78,12.71Z" fill="#333"/><path d="M17.84,10.7a.13.13,0,1,1,0-.18A.13.13,0,0,1,17.84,10.7Z" fill="#333"/><path d="M20.07,12.88a.12.12,0,0,1-.17,0,.13.13,0,1,1,.18-.18A.14.14,0,0,1,20.07,12.88Z" fill="#333"/><path d="M21,11.92a.08.08,0,1,1,0-.11A.08.08,0,0,1,21,11.92Z" fill="#333"/><polygon points="7.3 4.97 7.29 4.98 6.95 4.65 6.55 5.05 5.61 4.1 6.19 3.52 5.24 2.57 5.25 2.56 6.22 3.52 5.64 4.1 6.55 5.02 6.95 4.62 7.3 4.97" fill="#333"/><path d="M5.28,2.6a.06.06,0,1,1,0-.08A.06.06,0,0,1,5.28,2.6Z" fill="#333"/><path d="M6.23,3.55a0,0,0,0,1-.07,0,0,0,0,1,1,.07-.07A0,0,0,0,1,6.23,3.55Z" fill="#333"/><path d="M7.32,5s0,0-.06,0,0,0,0-.06,0,0,.06,0A0,0,0,0,1,7.32,5Z" fill="#333"/><path d="M5.66,4.13s-.06,0-.08,0a0,0,0,0,1,.07-.07A0,0,0,0,1,5.66,4.13Z" fill="#333"/><path d="M6.6,5.08A.06.06,0,1,1,6.6,5,.06.06,0,0,1,6.6,5.08Z" fill="#333"/><path d="M7,4.67H6.93a0,0,0,0,1,0,0s0,0,.05,0A0,0,0,0,1,7,4.67Z" fill="#333"/><polygon points="10.48 9.62 10.46 9.63 10.13 9.29 9.73 9.69 8.78 8.75 9.36 8.17 8.41 7.22 8.43 7.2 9.39 8.17 8.81 8.75 9.73 9.66 10.13 9.26 10.48 9.62" fill="#333"/><path d="M8.46,7.25a.06.06,0,1,1,0-.08A.06.06,0,0,1,8.46,7.25Z" fill="#333"/><path d="M9.41,8.2a.06.06,0,0,1-.08-.08.05.05,0,0,1,.08,0A0,0,0,0,1,9.41,8.2Z" fill="#333"/><path d="M10.5,9.65s-.05,0-.06,0,0-.05,0-.06,0,0,.06,0S10.52,9.63,10.5,9.65Z" fill="#333"/><path d="M8.83,8.78a.06.06,0,0,1-.08-.08.05.05,0,0,1,.08,0A0,0,0,0,1,8.83,8.78Z" fill="#333"/><path d="M9.77,9.72a.06.06,0,1,1,0-.07A0,0,0,0,1,9.77,9.72Z" fill="#333"/><path d="M10.15,9.31a0,0,0,0,1-.05,0s0,0,0-.05h0S10.17,9.3,10.15,9.31Z" fill="#333"/><polygon points="17.02 12.16 17 12.17 16.62 11.79 16.16 12.25 15.08 11.17 15.74 10.5 14.65 9.41 14.67 9.4 15.77 10.5 15.11 11.16 16.16 12.21 16.62 11.76 17.02 12.16" fill="#333"/><path d="M14.7,9.45a.06.06,0,1,1,0-.09A.06.06,0,0,1,14.7,9.45Z" fill="#333"/><path d="M15.79,10.54a0,0,0,0,1-.08,0,.06.06,0,0,1,0-.09.06.06,0,0,1,.08,0A.06.06,0,0,1,15.79,10.54Z" fill="#333"/><path d="M17,12.19a.06.06,0,0,1-.07,0,.06.06,0,0,1,0-.08,0,0,0,0,1,.07.07Z" fill="#333"/><path d="M15.13,11.2a.06.06,0,0,1-.09,0,.06.06,0,0,1,0-.08.06.06,0,0,1,.09,0A.06.06,0,0,1,15.13,11.2Z" fill="#333"/><path d="M16.21,12.28a.07.07,0,0,1-.09,0,.06.06,0,0,1,0-.09.06.06,0,0,1,.09.09Z" fill="#333"/><path d="M16.64,11.81a0,0,0,0,1-.05,0,0,0,0,0,1,0-.06h.05A0,0,0,0,1,16.64,11.81Z" fill="#333"/><polygon points="5.57 8.65 5.55 8.63 5.93 8.26 5.48 7.81 6.54 6.75 7.2 7.4 8.26 6.33 8.28 6.34 7.2 7.43 6.54 6.78 5.51 7.81 5.96 8.26 5.57 8.65" fill="#333"/><path d="M8.23,6.38a.07.07,0,0,1,0-.09.06.06,0,0,1,.08,0,.06.06,0,0,1,0,.09A.06.06,0,0,1,8.23,6.38Z" fill="#333"/><path d="M7.16,7.45a.06.06,0,0,1,0-.09.06.06,0,0,1,.08,0,.06.06,0,0,1,0,.09A.06.06,0,0,1,7.16,7.45Z" fill="#333"/><path d="M5.53,8.67a0,0,0,1,1,.07,0A0,0,0,0,1,5.53,8.67Z" fill="#333"/><path d="M6.51,6.8a.06.06,0,0,1,0-.09.06.06,0,0,1,.08,0,.06.06,0,0,1,0,.09A.06.06,0,0,1,6.51,6.8Z" fill="#333"/><path d="M5.45,7.86a.06.06,0,1,1,.09,0A.07.07,0,0,1,5.45,7.86Z" fill="#333"/><path d="M5.91,8.28a0,0,0,0,1,0,0H6s0,0,0,0S5.93,8.3,5.91,8.28Z" fill="#333"/><polygon points="11.3 13.82 11.31 13.84 10.94 14.22 11.39 14.67 10.32 15.73 9.67 15.08 8.6 16.15 8.59 16.13 9.67 15.04 10.32 15.7 11.35 14.67 10.9 14.22 11.3 13.82" fill="#333"/><path d="M8.64,16.1a.06.06,0,0,1,0,.08.06.06,0,0,1-.09,0,.06.06,0,0,1,0-.08A.06.06,0,0,1,8.64,16.1Z" fill="#333"/><path d="M9.71,15a.06.06,0,0,1-.09.09.06.06,0,0,1,0-.08A.06.06,0,0,1,9.71,15Z" fill="#333"/><path d="M11.33,13.8a0,0,0,0,1,0,.07s-.05,0-.07,0a0,0,0,0,1,0-.07A0,0,0,0,1,11.33,13.8Z" fill="#333"/><path d="M10.36,15.68a.05.05,0,0,1,0,.08.06.06,0,1,1,0-.08Z" fill="#333"/><path d="M11.42,14.62a.06.06,0,1,1-.09,0A.07.07,0,0,1,11.42,14.62Z" fill="#333"/><path d="M11,14.19a0,0,0,0,1,0,.05,0,0,0,0,1-.06,0,.06.06,0,0,1,0-.06Z" fill="#333"/><polygon points="20.04 13.09 20.06 13.11 19.76 13.4 20.11 13.75 19.28 14.58 18.77 14.07 17.94 14.91 17.93 14.89 18.77 14.05 19.28 14.55 20.09 13.75 19.74 13.4 20.04 13.09" fill="#333"/><path d="M18,14.87a.06.06,0,0,1,0,.06,0,0,0,0,1-.07,0,0,0,0,0,1,0-.06A0,0,0,0,1,18,14.87Z" fill="#333"/><path d="M18.8,14a0,0,0,0,1,0,.07s0,0-.06,0a0,0,0,0,1,0-.07A0,0,0,0,1,18.8,14Z" fill="#333"/><path d="M20.07,13.08a0,0,0,0,1,0,.05H20s0,0,0-.05A0,0,0,0,1,20.07,13.08Z" fill="#333"/><path d="M19.31,14.54a0,0,0,0,1,0,.07h-.06a0,0,0,0,1,0-.07A0,0,0,0,1,19.31,14.54Z" fill="#333"/><path d="M20.14,13.71a0,0,0,1,1-.07,0S20.12,13.69,20.14,13.71Z" fill="#333"/><path d="M19.78,13.38a0,0,0,0,1,0,0h-.05a0,0,0,0,1,0,0A0,0,0,0,1,19.78,13.38Z" fill="#333"/><polygon points="14.05 6.09 14.06 6.1 13.76 6.4 14.12 6.75 13.29 7.58 12.78 7.07 11.94 7.91 11.93 7.89 12.78 7.04 13.29 7.55 14.09 6.75 13.74 6.4 14.05 6.09" fill="#333"/><path d="M12,7.87s0,0,0,.06a0,0,0,0,1-.07-.07A.06.06,0,0,1,12,7.87Z" fill="#333"/><path d="M12.81,7s0,0,0,.07a.09.09,0,0,1-.07,0A0,0,0,1,1,12.81,7Z" fill="#333"/><path d="M14.08,6.07a.06.06,0,0,1,0,.06H14a0,0,0,0,1,0,0A0,0,0,0,1,14.08,6.07Z" fill="#333"/><path d="M13.32,7.54a.06.06,0,0,1,0,.06,0,0,0,0,1-.07,0s0,0,0-.06A0,0,0,0,1,13.32,7.54Z" fill="#333"/><path d="M14.14,6.71a0,0,0,0,1-.07.07.09.09,0,0,1,0-.07A0,0,0,0,1,14.14,6.71Z" fill="#333"/><path d="M13.78,6.38a0,0,0,0,1,0,0h0a0,0,0,0,1,0,0Z" fill="#333"/><polygon points="15.63 13.38 15.64 13.4 15.27 13.78 15.72 14.23 14.66 15.29 14.01 14.64 12.94 15.71 12.92 15.69 14.01 14.61 14.66 15.26 15.69 14.23 15.24 13.78 15.63 13.38" fill="#333"/><path d="M13,15.66a.06.06,0,0,1,0,.08.06.06,0,1,1,0-.08Z" fill="#333"/><circle cx="14" cy="14.63" r="0.06" fill="#333"/><path d="M15.67,13.36a0,0,0,1,1-.07,0A0,0,0,0,1,15.67,13.36Z" fill="#333"/><path d="M14.69,15.24a.06.06,0,1,1-.08,0A0,0,0,0,1,14.69,15.24Z" fill="#333"/><path d="M15.75,14.18a.07.07,0,0,1,0,.09.06.06,0,0,1-.08,0,.06.06,0,0,1,0-.09A.07.07,0,0,1,15.75,14.18Z" fill="#333"/><path d="M15.29,13.75a0,0,0,0,1,0,.05s0,0-.06,0,0,0,0-.05Z" fill="#333"/><polygon points="22.17 14.55 22.15 14.57 21.78 14.19 21.33 14.64 20.26 13.58 20.92 12.93 19.85 11.86 19.86 11.84 20.95 12.93 20.3 13.58 21.33 14.61 21.78 14.15 22.17 14.55" fill="#333"/><path d="M19.9,11.89a.06.06,0,1,1,0-.09A.07.07,0,0,1,19.9,11.89Z" fill="#333"/><path d="M21,13a.06.06,0,0,1-.09,0,.06.06,0,0,1,0-.08.06.06,0,0,1,.09,0A.06.06,0,0,1,21,13Z" fill="#333"/><path d="M22.19,14.59a0,0,0,1,1,0-.07A0,0,0,0,1,22.19,14.59Z" fill="#333"/><path d="M20.32,13.61a.06.06,0,0,1-.09,0,.06.06,0,0,1,0-.08s.06,0,.09,0A.06.06,0,0,1,20.32,13.61Z" fill="#333"/><path d="M21.37,14.67a.06.06,0,0,1-.08,0,.07.07,0,0,1,0-.09.06.06,0,0,1,.08,0A.06.06,0,0,1,21.37,14.67Z" fill="#333"/><path d="M21.8,14.21h-.05s0,0,0-.05a0,0,0,0,1,.05,0S21.82,14.19,21.8,14.21Z" fill="#333"/><polygon points="5.97 9.47 5.92 9.42 9.1 6.24 11.01 8.15 14.02 5.14 12.7 3.82 13.86 2.66 13.9 2.71 12.8 3.82 14.12 5.14 11.01 8.24 9.1 6.34 5.97 9.47" fill="#333"/><path d="M6.07,9.32a.18.18,0,1,1-.25,0A.18.18,0,0,1,6.07,9.32Z" fill="#333"/><path d="M9.21,6.18a.18.18,0,1,1-.25,0A.18.18,0,0,1,9.21,6.18Z" fill="#333"/><path d="M14,2.6a.15.15,0,0,1,0,.2.14.14,0,0,1-.21,0,.15.15,0,0,1,0-.2A.15.15,0,0,1,14,2.6Z" fill="#333"/><path d="M11.12,8.09a.18.18,0,1,1-.25,0A.18.18,0,0,1,11.12,8.09Z" fill="#333"/><path d="M14.21,5a.19.19,0,0,1,0,.26.18.18,0,0,1-.25,0A.19.19,0,0,1,14,5,.18.18,0,0,1,14.21,5Z" fill="#333"/><path d="M12.86,3.74a.11.11,0,1,1-.16,0A.11.11,0,0,1,12.86,3.74Z" fill="#333"/><rect x="15.73" y="4.5" width="0.03" height="4.55" transform="translate(-0.18 13.11) rotate(-44.99)" fill="#333"/><path d="M17.49,8.51a.19.19,0,1,1-.27-.27.19.19,0,0,1,.27.27Z" fill="#333"/><polygon points="4.15 7.66 4.13 7.63 5.61 6.15 5.58 5.16 5.62 5.16 5.64 6.16 4.15 7.66" fill="#333"/><polygon points="10.87 16.98 10.48 16.6 11.96 15.12 11.98 15.15 10.53 16.6 10.89 16.96 10.87 16.98" fill="#333"/><polygon points="6.45 9.95 6.41 9.92 7.65 8.68 9.31 10.35 9.28 10.38 7.65 8.75 6.45 9.95" fill="#333"/><polygon points="17.09 16.17 17.06 16.13 17.55 15.63 18.8 16.88 19.11 16.56 19.14 16.6 18.8 16.94 17.55 15.7 17.09 16.17" fill="#333"/><polygon points="13.63 16.74 13.32 16.43 13.36 16.4 13.63 16.67 15.29 15.01 15.97 15.7 15.94 15.73 15.29 15.09 13.63 16.74" fill="#333"/><polygon points="8.22 12.59 8.18 12.55 9.29 11.45 10.7 12.86 11.24 12.31 11.28 12.34 10.69 12.93 9.29 11.52 8.22 12.59" fill="#333"/><polygon points="11.56 14.15 11.27 13.86 11.3 13.84 11.56 14.1 12.53 13.13 11.89 12.49 11.92 12.47 12.58 13.13 11.56 14.15" fill="#333"/><polygon points="5.16 2.03 5.13 2.01 5.51 1.63 6.89 3.01 9 0.9 9.03 0.93 6.89 3.06 5.51 1.68 5.16 2.03" fill="#333"/><polygon points="12.26 2.99 10.12 0.85 10.14 0.82 12.26 2.95 13.19 2.02 13.87 2.7 13.84 2.72 13.19 2.07 12.26 2.99" fill="#333"/><polygon points="15.78 8.85 15.74 8.81 16.3 8.26 17.64 9.59 17.17 10.06 17.73 10.63 17.7 10.67 17.09 10.06 17.57 9.6 16.3 8.33 15.78 8.85" fill="#333"/><polygon points="18.42 9.5 17.37 8.45 17.4 8.42 18.42 9.45 18.77 9.1 18.94 9.26 19.11 9.22 19.12 9.26 18.93 9.3 18.77 9.14 18.42 9.5" fill="#333"/><polygon points="9.18 4.33 9.16 4.31 9.94 3.52 8.99 2.57 9.01 2.55 9.99 3.52 9.18 4.33" fill="#333"/><polygon points="13.02 9.43 11.94 8.35 11.96 8.33 13.02 9.38 13.34 9.06 13.37 9.08 13.02 9.43" fill="#333"/><polygon points="21.73 12.65 21.7 12.63 22.32 12.01 20.65 10.34 20.2 10.79 20.17 10.77 20.65 10.29 22.37 12.01 21.73 12.65" fill="#333"/><polygon points="19.31 18.49 18.93 18.11 18.96 18.08 19.31 18.44 21.48 16.28 21.5 16.3 19.31 18.49" fill="#333"/><polygon points="11.32 20.13 11.29 20.09 11.64 19.74 11.77 19.86 12.8 18.84 12.83 18.87 11.77 19.94 11.64 19.81 11.32 20.13" fill="#333"/><polygon points="5.06 12.77 4.3 12.01 5.02 11.29 5.06 11.32 4.37 12.01 5.06 12.7 5.25 12.5 6.17 13.42 6.14 13.46 5.25 12.57 5.06 12.77" fill="#333"/><rect x="17.71" y="12.63" width="0.66" height="0.66" transform="translate(-3.88 16.56) rotate(-45)" fill="#d74434"/><rect x="8.26" y="21.61" width="0.66" height="0.66" transform="translate(-13 12.5) rotate(-45)" fill="#d74434"/><rect x="14.98" y="6.09" width="0.66" height="0.66" transform="translate(-0.06 12.7) rotate(-45)" fill="#d74434"/><rect x="7.37" y="7.38" width="0.66" height="0.66" transform="translate(-3.19 7.7) rotate(-45)" fill="#d74434"/><rect x="12.6" y="13.92" width="0.66" height="0.66" transform="translate(-6.29 13.32) rotate(-45)" fill="#d74434"/><rect x="12.43" y="6.05" width="0.66" height="0.66" transform="translate(-0.77 10.89) rotate(-45)" fill="#d74434"/><rect x="18.66" y="17.67" width="0.66" height="0.66" transform="translate(-7.17 18.7) rotate(-45)" fill="#d74434"/><rect x="16.34" y="9.96" width="0.66" height="0.66" transform="translate(-2.39 14.8) rotate(-45)" fill="#ff7f00"/><rect x="2.96" y="7.04" width="0.66" height="0.66" transform="translate(-4.25 4.49) rotate(-45.06)" fill="#ff7f00"/><rect x="9.39" y="17.68" width="0.66" height="0.66" transform="translate(-9.89 12.15) rotate(-45.01)" fill="#ff7f00"/><rect x="6.75" y="14.87" width="0.66" height="0.66" transform="translate(-8.67 9.45) rotate(-45)" fill="#029ecf"/><rect x="14.89" y="17.71" width="0.66" height="0.66" transform="translate(-8.3 16.05) rotate(-45)" fill="#029ecf"/><rect x="10.61" y="9.14" width="0.57" height="0.57" transform="translate(-3.47 10.46) rotate(-45)" fill="#029ecf"/><rect x="19.98" y="14.93" width="0.66" height="0.66" transform="translate(-4.84 18.83) rotate(-45)" fill="#029ecf"/><rect x="12.51" y="10.34" width="0.66" height="0.66" transform="translate(-3.79 12.2) rotate(-45)" fill="#8f6cb0"/><rect x="21.36" y="12.32" width="0.66" height="0.66" transform="translate(-2.6 19.04) rotate(-45)" fill="#8f6cb0"/><rect x="7.68" y="11.32" width="0.66" height="0.66" transform="translate(-5.89 9.07) rotate(-45)" fill="#8f6cb0"/><rect x="10.35" y="2.28" width="0.66" height="0.66" transform="translate(1.28 8.32) rotate(-45)" fill="#8f6cb0"/><path d="M16.07,16.76a.33.33,0,0,1,.46,0,.34.34,0,0,1,0,.46.32.32,0,0,1-.46,0A.31.31,0,0,1,16.07,16.76Zm.42.42a.28.28,0,1,0-.39,0A.27.27,0,0,0,16.49,17.18Z" fill="#333"/><path d="M18.85,16.28a.32.32,0,0,1,.46,0,.33.33,0,0,1,0,.45.32.32,0,0,1-.46,0A.33.33,0,0,1,18.85,16.28Zm.43.42a.29.29,0,0,0,0-.39.28.28,0,0,0-.4,0,.27.27,0,0,0,0,.39A.28.28,0,0,0,19.28,16.7Z" fill="#333"/><path d="M21.89,14.7a.32.32,0,1,1,0,.45A.31.31,0,0,1,21.89,14.7Zm.42.42a.28.28,0,1,0-.39,0A.27.27,0,0,0,22.31,15.12Z" fill="#333"/><path d="M21.25,16.05a.32.32,0,0,1,.46,0,.32.32,0,0,1-.45.45A.32.32,0,0,1,21.25,16.05Zm.43.42a.27.27,0,0,0,0-.39.28.28,0,1,0-.39.39A.27.27,0,0,0,21.68,16.47Z" fill="#333"/><path d="M15,20.32a.32.32,0,1,1,0,.45A.31.31,0,0,1,15,20.32Zm.42.42a.28.28,0,1,0-.39,0A.27.27,0,0,0,15.46,20.74Z" fill="#333"/><path d="M10,21.54a.33.33,0,0,1,.45,0,.32.32,0,0,1,0,.46A.33.33,0,0,1,10,22,.32.32,0,0,1,10,21.54Zm.42.43a.28.28,0,0,0,0-.4.27.27,0,0,0-.39,0,.28.28,0,0,0,0,.4A.27.27,0,0,0,10.38,22Z" fill="#333"/><path d="M9.35,20a.32.32,0,1,1,0,.45A.31.31,0,0,1,9.35,20Zm.42.42a.28.28,0,1,0-.39,0A.27.27,0,0,0,9.77,20.45Z" fill="#333"/><path d="M10.3,19.12a.33.33,0,0,1,.45,0,.32.32,0,0,1,0,.46.33.33,0,0,1-.45,0A.32.32,0,0,1,10.3,19.12Zm.42.43a.28.28,0,0,0,0-.4.27.27,0,0,0-.39,0,.28.28,0,0,0,0,.4A.27.27,0,0,0,10.72,19.55Z" fill="#333"/><path d="M14.94,11a.22.22,0,0,1,.32,0,.24.24,0,0,1,0,.33.24.24,0,0,1-.32,0A.24.24,0,0,1,14.94,11Zm.3.3a.19.19,0,0,0,0-.28A.2.2,0,0,0,15,11a.18.18,0,0,0,0,.27A.19.19,0,0,0,15.24,11.31Z" fill="#333"/><path d="M13.85,14.45a.23.23,0,1,1,0,.32A.22.22,0,0,1,13.85,14.45Zm.3.3a.21.21,0,0,0,0-.28.2.2,0,1,0,0,.28Z" fill="#333"/><path d="M15.55,14.07a.22.22,0,0,1,.32,0,.24.24,0,0,1,0,.33.23.23,0,0,1-.32,0A.24.24,0,0,1,15.55,14.07Zm.3.31a.21.21,0,0,0,0-.29.2.2,0,0,0-.28,0,.19.19,0,0,0,0,.28A.21.21,0,0,0,15.85,14.38Z" fill="#333"/><path d="M13.57,18.57a.23.23,0,1,1,0,.32A.22.22,0,0,1,13.57,18.57Zm.3.3a.2.2,0,1,0-.28,0A.19.19,0,0,0,13.87,18.87Z" fill="#333"/><path d="M18.61,13.89a.23.23,0,1,1,0,.32A.22.22,0,0,1,18.61,13.89Zm.3.3a.2.2,0,1,0-.28,0A.21.21,0,0,0,18.91,14.19Z" fill="#333"/><path d="M12.25,21a.34.34,0,0,1,.46,0,.32.32,0,0,1,0,.46.33.33,0,0,1-.46-.46Zm.43.43a.28.28,0,1,0-.4-.4.29.29,0,0,0,0,.4A.27.27,0,0,0,12.68,21.38Z" fill="#333"/><path d="M10.24,13.66a.33.33,0,0,1,.45,0,.32.32,0,0,1,0,.46.33.33,0,0,1-.45,0A.32.32,0,0,1,10.24,13.66Zm.42.43a.28.28,0,0,0,0-.4.27.27,0,0,0-.39,0,.28.28,0,0,0,0,.4A.27.27,0,0,0,10.66,14.09Z" fill="#333"/><path d="M10.09,15.49a.32.32,0,1,1,0,.45A.31.31,0,0,1,10.09,15.49Zm.42.42a.28.28,0,1,0-.39,0A.27.27,0,0,0,10.51,15.91Z" fill="#333"/><path d="M19.77,12.55a.34.34,0,0,1,.46,0,.32.32,0,0,1,0,.46.33.33,0,0,1-.46-.46Zm.43.43a.28.28,0,0,0-.4-.4.29.29,0,0,0,0,.4A.27.27,0,0,0,20.2,13Z" fill="#333"/><path d="M6.8,12.43a.33.33,0,0,1,.45,0,.32.32,0,0,1,0,.46.31.31,0,0,1-.45,0A.32.32,0,0,1,6.8,12.43Zm.42.43a.28.28,0,0,0,0-.4.29.29,0,0,0-.39,0,.28.28,0,0,0,0,.4A.27.27,0,0,0,7.22,12.86Z" fill="#333"/><path d="M16.7,6.76a.32.32,0,1,1,0,.45A.31.31,0,0,1,16.7,6.76Zm.42.42a.28.28,0,1,0-.39,0A.27.27,0,0,0,17.12,7.18Z" fill="#333"/><path d="M12.53,3.58A.33.33,0,0,1,13,4a.32.32,0,0,1-.46,0A.33.33,0,0,1,12.53,3.58ZM13,4a.27.27,0,0,0,0-.39.28.28,0,0,0-.4,0,.27.27,0,0,0,0,.39A.28.28,0,0,0,13,4Z" fill="#333"/><path d="M8.93,4.05a.32.32,0,1,1,.45.45.32.32,0,0,1-.45-.45Zm.42.42a.28.28,0,1,0-.39,0A.27.27,0,0,0,9.35,4.47Z" fill="#333"/><path d="M6.73,6.25a.32.32,0,0,1,.46,0,.33.33,0,0,1,0,.45.32.32,0,0,1-.46,0A.33.33,0,0,1,6.73,6.25Zm.42.42a.28.28,0,1,0-.39-.39.28.28,0,0,0,.39.39Z" fill="#333"/><path d="M5.45,10.42a.33.33,0,0,1,.45,0,.32.32,0,0,1,0,.46.33.33,0,0,1-.45,0A.32.32,0,0,1,5.45,10.42Zm.42.43a.28.28,0,0,0,0-.4.27.27,0,0,0-.39,0,.28.28,0,0,0,0,.4A.27.27,0,0,0,5.87,10.85Z" fill="#333"/><path d="M11,4.81a.32.32,0,0,1,.46,0,.33.33,0,0,1,0,.45.32.32,0,0,1-.46,0A.33.33,0,0,1,11,4.81Zm.43.42a.27.27,0,0,0,0-.39.28.28,0,0,0-.4,0,.27.27,0,0,0,0,.39A.28.28,0,0,0,11.43,5.23Z" fill="#333"/><path d="M10,.59a.31.31,0,0,1,.45,0,.31.31,0,0,1,0,.45A.31.31,0,0,1,10,1,.31.31,0,0,1,10,.59Zm.42.42A.28.28,0,1,0,10,1,.27.27,0,0,0,10.41,1Z" fill="#333"/><path d="M5.38,4.93a.32.32,0,1,1,0,.45A.31.31,0,0,1,5.38,4.93Zm.42.42a.28.28,0,1,0-.39,0A.27.27,0,0,0,5.8,5.35Z" fill="#333"/><path d="M4,7.46a.32.32,0,1,1,0,.45A.31.31,0,0,1,4,7.46Zm.42.42a.28.28,0,1,0-.39,0A.27.27,0,0,0,4.4,7.88Z" fill="#333"/><path d="M3.11,6.18a.32.32,0,0,1,.46,0,.33.33,0,0,1,0,.45.32.32,0,0,1-.46,0A.33.33,0,0,1,3.11,6.18Zm.43.42a.27.27,0,0,0,0-.39.28.28,0,0,0-.4,0,.29.29,0,0,0,0,.39A.28.28,0,0,0,3.54,6.6Z" fill="#333"/><path d="M6.85,3.72a.32.32,0,1,1,0,.45A.31.31,0,0,1,6.85,3.72Zm.42.42a.28.28,0,1,0-.39,0A.27.27,0,0,0,7.27,4.14Z" fill="#333"/><path d="M8.79.68a.34.34,0,0,1,.46,0,.34.34,0,0,1,0,.46.34.34,0,0,1-.46,0A.34.34,0,0,1,8.79.68Zm.43.43a.28.28,0,1,0-.4,0A.3.3,0,0,0,9.22,1.11Z" fill="#333"/><path d="M4.92,1.79a.32.32,0,0,1,.45.45.32.32,0,1,1-.45-.45Zm.42.42a.28.28,0,1,0-.39,0A.27.27,0,0,0,5.34,2.21Z" fill="#333"/><path d="M1.84,4.9a.32.32,0,1,1,0,.45A.31.31,0,0,1,1.84,4.9Zm.42.42a.28.28,0,1,0-.39,0A.27.27,0,0,0,2.26,5.32Z" fill="#333"/><path d="M2,7.33a.32.32,0,0,1,.46,0,.33.33,0,0,1,0,.45A.32.32,0,0,1,2,7.33Zm.43.42a.29.29,0,0,0,0-.39.28.28,0,0,0-.4,0,.27.27,0,0,0,0,.39A.28.28,0,0,0,2.46,7.75Z" fill="#333"/><path d="M10,5.74a.32.32,0,0,1,.46,0,.32.32,0,1,1-.45.45A.32.32,0,0,1,10,5.74Zm.43.42a.27.27,0,0,0,0-.39.28.28,0,1,0-.39.39A.27.27,0,0,0,10.44,6.16Z" fill="#333"/><path d="M14,21.42a.33.33,0,1,1,0,.46A.34.34,0,0,1,14,21.42Zm.43.43a.28.28,0,0,0,0-.4.28.28,0,1,0-.4.4A.28.28,0,0,0,14.39,21.85Z" fill="#333"/><path d="M7.57,19.84a.33.33,0,0,1,.45,0,.32.32,0,0,1,0,.46.33.33,0,0,1-.45,0A.32.32,0,0,1,7.57,19.84Zm.42.43a.28.28,0,1,0-.39,0A.27.27,0,0,0,8,20.27Z" fill="#333"/><path d="M10.65,16.74a.32.32,0,1,1,0,.45A.31.31,0,0,1,10.65,16.74Zm.42.42a.28.28,0,1,0-.39,0A.27.27,0,0,0,11.07,17.16Z" fill="#333"/><path d="M13.17,16.19a.32.32,0,1,1,0,.45A.31.31,0,0,1,13.17,16.19Zm.42.42a.28.28,0,1,0-.39,0A.27.27,0,0,0,13.59,16.61Z" fill="#333"/><path d="M15.72,15.49a.34.34,0,0,1,.46,0,.33.33,0,1,1-.46,0Zm.42.43a.29.29,0,0,0,0-.4.28.28,0,1,0-.4.4A.29.29,0,0,0,16.14,15.92Z" fill="#333"/><path d="M11,12.09a.32.32,0,0,1,.46,0,.33.33,0,0,1,0,.45.32.32,0,0,1-.46,0A.33.33,0,0,1,11,12.09Zm.43.42a.27.27,0,0,0,0-.39.28.28,0,0,0-.4,0,.27.27,0,0,0,0,.39A.28.28,0,0,0,11.42,12.51Z" fill="#333"/><path d="M9.84,10a.33.33,0,1,1,0,.46A.34.34,0,0,1,9.84,10Zm.43.43a.28.28,0,1,0-.4,0A.28.28,0,0,0,10.27,10.46Z" fill="#333"/><path d="M20,10.55A.32.32,0,1,1,20,11,.31.31,0,0,1,20,10.55Zm.42.42A.28.28,0,1,0,20,11,.27.27,0,0,0,20.37,11Z" fill="#333"/><path d="M17.66,11.29a.32.32,0,0,1,.46,0,.33.33,0,1,1-.46,0Zm.43.42a.29.29,0,0,0,0-.39.28.28,0,0,0-.4,0,.27.27,0,0,0,0,.39A.28.28,0,0,0,18.09,11.71Z" fill="#333"/><path d="M14.5,8.14a.34.34,0,0,1,.46,0,.33.33,0,0,1,0,.46.33.33,0,1,1-.46-.46Zm.43.43a.28.28,0,0,0-.4-.4.28.28,0,0,0,.4.4Z" fill="#333"/><path d="M13.1,8.8a.33.33,0,0,1,.45,0,.32.32,0,0,1,0,.46.33.33,0,0,1-.45,0A.32.32,0,0,1,13.1,8.8Zm.42.43a.28.28,0,0,0,0-.4.27.27,0,0,0-.39,0,.28.28,0,0,0,0,.4A.27.27,0,0,0,13.52,9.23Z" fill="#333"/></g></g></svg>