<svg xmlns="http://www.w3.org/2000/svg" viewBox="0 0 24 24"><path d="M8.011 6.215c-1.711-.009-3.86.918-5.499 2.557a8.852 8.852 0 00-1.601 2.174c1.479-1.119 3.057-1.47 4.903-.434a21.67 21.67 0 012.197-4.297zm9.785 9.773a23.565 23.565 0 01-4.297 2.21c1.036 1.848.686 3.424-.434 4.902a8.804 8.804 0 002.175-1.602c1.644-1.642 2.572-3.796 2.556-5.51zM23.948.042A17.883 17.883 0 0022.735 0C14.133 0 9.237 6.558 7.455 11.833l4.728 4.729C17.611 14.616 24 9.901 24 1.39c0-.439-.017-.888-.052-1.348zm-9.888 9.91a.999.999 0 111.414-1.414.999.999 0 11-1.414 1.414zm2.828-2.828a2 2 0 112.828-2.828 2 2 0 01-2.828 2.828zm-8.021 8.625l1.013 1.012c-.942.954-1.907 2.083-2.287 3.637l-1.39-.34c.467-1.912 1.607-3.24 2.664-4.309zm-1.634-1.633l1.01 1.01c-1.119 1.103-2.413 2.203-4.307 2.666l-.34-1.39c1.553-.381 2.69-1.35 3.637-2.286zm2.746 6.446c.206 2.029-.946 3.265-2.48 3.421-.902.092-1.701-.205-2.356-.88-1.575.556-3.074-.047-3.864-1.172-.622-.883-.76-2.002-.382-3.074-.676-.656-.973-1.448-.88-2.356.154-1.521 1.361-2.694 3.484-2.475l.21 1.208c-.716.067-1.379.104-1.809.533-.722.723-.504 2.229.851 2.629-.899.904-.813 2.202-.137 2.914.707.747 2.057.863 2.987-.063.416 1.41 1.942 1.537 2.629.851.424-.424.465-1.075.531-1.782l1.216.246z"/></svg>