<svg xmlns="http://www.w3.org/2000/svg" viewBox="0 0 24 24"><path d="M19 0H5a5 5 0 00-5 5v14a5 5 0 005 5h14a5 5 0 005-5V5a5 5 0 00-5-5zm3 19a2.997 2.997 0 01-2 2.816V19h-1v3h-2v-3h-1v3h-2v-3h-1v3h-2v-3h-1v3H8v-3H7v3H5v-3H4v2.815A2.995 2.995 0 012 19V5c0-1.302.839-2.401 2-2.816V5h1V2h2v6h1V2h2v3h1V2h2v3h1V2h2v6h1V2h2v3h1V2.184c1.161.415 2 1.514 2 2.816v14zM7.859 10H9v6H7.646v-3.889H6.158v-1c.893-.041 1.701-.201 1.701-1.111zm8.315 4.667H18v1.306h-3.922v-.958c1.529-1.491 2.379-2.244 2.389-3.018 0-.462-.268-.717-.754-.717-.453 0-.816.245-1.168.524l-.424-1.148A2.842 2.842 0 0115.954 10c1.179 0 1.941.74 1.941 1.885.001 1.155-.899 2.043-1.721 2.782z"/></svg>