<svg width="850" height="983" xmlns="http://www.w3.org/2000/svg"><g fill="none" fill-rule="evenodd"><path d="M850 909.501C850 922.481 793.14 933 722.999 933 652.859 933 596 922.48 596 909.501 596 896.521 652.86 886 722.999 886 793.14 886 850 896.522 850 909.501" fill="#1CB0A5"/><path d="M554.255 112.765C504.862 83.705 448.56 68.377 391 68.377c-30.256 0-55.897 3.265-82.23 10.535l-7.832-19.187c29.237-7.949 59.498-11.973 90.062-11.973 61.85 0 122.251 16.608 175.162 48.096l-11.907 16.917zM528.795 390.5c0 75.883-61.815 137.618-137.795 137.618a137.82 137.82 0 01-34.593-4.39l10.062-19.109c6.18 1.246 15.916 2.874 24.531 2.874 64.594 0 117.144-52.482 117.144-116.993 0-64.509-52.55-116.993-117.144-116.993-64.596 0-117.144 52.484-117.144 116.993 0 37.271 17.568 71.843 47.36 93.924l-11.248 17.322c-35.671-25.947-56.762-67.039-56.762-111.246 0-75.88 61.814-137.618 137.794-137.618 75.98 0 137.796 61.737 137.796 137.618zM391 678.435c31.51 0 62.44-5.06 92.036-15.043l8.96 18.74C459.58 693.366 425.639 699.058 391 699.058c-126.774 0-242.665-79.489-288.38-197.8l-2.376-6.153-32.205 11.392c-13.424-37.156-20.226-76.14-20.226-115.998 0-139.026 82.413-262.395 210.548-316.117l8.3 18.888c-56.808 23.768-105.36 63.029-140.734 113.89-37.592 54.05-57.465 117.449-57.465 183.339 0 26.259 3.19 52.389 9.478 77.664l1.759 7.067 32.674-10.623C145.193 587.58 257.673 678.435 391 678.435zm287.71-552.11C612.503 54.465 522.737 10.15 425.945 1.546l-1.202 13.51C617.46 32.187 768.418 197.102 768.418 390.5c0 38.42-5.8 75.507-16.545 110.454l-51.974-17.903a321.232 321.232 0 0013.637-92.551c0-98.981-44.343-190.445-121.924-252.07l13.379-15.703C687.187 188.304 734.187 285.53 734.187 390.5c0 24.192-2.549 48.356-7.579 71.822l13.283 2.84c5.227-24.398 7.878-49.518 7.878-74.662 0-111.357-50.876-214.328-139.58-282.506l-5.125-3.939-31.041 36.437 5.709 4.336c77.673 59.036 122.222 148.58 122.222 245.672 0 114.388-62.387 218.022-163.265 272.048l-9.822-18.166a289.778 289.778 0 00108.108-100.606c29-45.885 44.33-98.884 44.33-153.276 0-158.767-129.335-287.934-288.305-287.934-66.71 0-131.804 23.378-183.29 65.833l-5.173 4.266 51.468 63.817 5.304-4.406c35.189-29.225 79.305-45.943 124.9-47.456v20.632c-99.212 3.583-178.818 85.306-178.818 185.248 0 102.214 83.264 185.372 185.609 185.372 102.345 0 185.609-83.158 185.609-185.372 0-86.147-60.284-161.376-143.949-180.616l1.945-21.726C529.294 207.78 597.258 291.712 597.258 390.5c0 113.586-92.527 205.995-206.258 205.995-113.733 0-206.26-92.41-206.26-205.995 0-50.327 18.446-98.816 51.944-136.533l4.183-4.711-57.21-58.762-4.86 5.28c-49.076 53.303-76.101 122.458-76.101 194.726 0 20.883 2.236 41.248 6.483 60.88l-19.733 6.416c-4.914-21.986-7.402-44.589-7.402-67.296 0-127.66 76.987-240.415 196.13-287.259l6.567-2.581-19.24-43.782-6.094 2.423c-65.62 26.096-121.638 70.69-162.004 128.961-41.328 59.664-63.172 129.6-63.172 202.238 0 43.741 7.884 86.486 23.431 127.044l2.368 6.176 32.361-11.446c23.54 57.426 62.9 106.541 114.16 142.352 54.311 37.943 118.092 57.998 184.449 57.998 38.767 0 76.697-6.832 112.737-20.304l6.943-2.593-20.665-43.21-5.786 2.089c-29.862 10.793-61.23 16.266-93.229 16.266-151.482 0-274.722-123.083-274.722-274.372 0-66.467 23.994-130.17 67.721-180.197l38.401 39.441c-33.09 39.478-51.242 89.21-51.242 140.756 0 121.064 98.62 219.56 219.842 219.56 121.22 0 219.84-98.496 219.84-219.56 0-51.593-18.16-101.9-51.132-141.651-33.194-40.016-79.382-66.804-130.058-75.426l-7.248-1.232-6.207 69.26c-8.202-1.378-16.609-2.134-25.195-2.134-83.47 0-151.376 67.821-151.376 151.183 0 51.062 25.61 98.341 68.508 126.468l5.709 3.741 37.386-57.573c11.817 6.48 25.37 10.171 39.773 10.171 45.717 0 82.913-37.146 82.913-82.807v-6.782h-34.765c-3.32-23.6-23.619-41.834-48.148-41.834a48.721 48.721 0 00-36.692 16.662l10.234 8.919A35.13 35.13 0 01391 355.448c19.352 0 35.098 15.724 35.098 35.05 0 19.33-15.746 35.056-35.098 35.056-19.354 0-35.1-15.726-35.1-35.055h-13.582c0 26.808 21.84 48.62 48.682 48.62 24.529 0 44.827-18.235 48.148-41.838h20.853c-3.425 35.01-33.063 62.46-69.001 62.46-38.231 0-69.331-31.06-69.331-69.242 0-38.18 31.1-69.24 69.331-69.24 27.78 0 52.813 16.519 63.772 42.081l12.486-5.34c-13.102-30.56-43.037-50.306-76.258-50.306-45.72 0-82.913 37.146-82.913 82.805 0 26.422 12.468 49.972 31.818 65.144l-11.282 17.372c-25.924-19.547-41.186-49.862-41.186-82.516 0-57.03 46.458-103.428 103.563-103.428 57.103 0 103.563 46.398 103.563 103.428 0 57.032-46.46 103.428-103.563 103.428-8.217 0-19.117-1.876-26.58-3.633l-5.12-1.205-22.533 42.794 7.67 2.48c15.003 4.856 30.67 7.318 46.563 7.318 83.47 0 151.378-67.818 151.378-151.182 0-70.05-47.96-129.108-112.803-146.189l1.863-20.794c76.593 18.495 131.589 87.765 131.589 166.983 0 94.735-77.17 171.807-172.027 171.807-94.856 0-172.027-77.072-172.027-171.807 0-94.733 77.17-171.805 172.027-171.805h6.791v-47.752H391c-48.854 0-96.523 16.424-135.003 46.384l-34.414-42.67c48.2-37.791 108.09-58.527 169.417-58.527 151.482 0 274.722 123.083 274.722 274.37 0 101.93-55.489 193.934-145.308 241.948l-9.807-18.134c79.955-42.79 134.466-127.058 134.466-223.814 0-139.917-113.977-253.747-254.073-253.747-46.765 0-92.505 12.855-132.28 37.172l7.09 11.568c37.64-23.01 80.93-35.175 125.19-35.175 132.608 0 240.491 107.746 240.491 240.182 0 132.438-107.883 240.182-240.491 240.182S150.509 522.937 150.509 390.5c0-49.877 15.234-97.742 44.055-138.418l-11.087-7.834c-30.453 42.977-46.55 93.551-46.55 146.252 0 139.917 113.975 253.747 254.073 253.747 38.387 0 74.803-8.564 107.46-23.85l32.613 60.314 5.908-3.007c52.239-26.591 96.337-66.921 127.528-116.629 12.903-20.566 23.314-42.42 31.205-65.117l19.58 6.746C667.321 640.945 538.043 733.246 391 733.246c-129.821 0-247.126-72.013-306.142-187.93l-12.106 6.148c29.42 57.79 74.092 106.582 129.185 141.097 56.648 35.49 122.025 54.25 189.063 54.25 77.032 0 150.43-24.234 212.252-70.078 57.423-42.58 101.51-102.56 124.875-169.61l19.515 6.724C696.37 661.294 555.872 767.435 391 767.435c-208.11 0-377.418-169.092-377.418-376.936 0-205.572 165.643-373.236 370.627-376.876V34.31c-32.078.602-63.788 5.422-94.35 14.458l-7.191 2.125 18.152 44.476 5.902-1.756c27.134-8.071 53.125-11.67 84.278-11.67 57.182 0 113.068 15.791 161.607 45.67l5.444 3.35 27.51-39.093-6.08-3.794c-54.59-34.058-117.275-52.55-181.69-53.77V0H391C175.4 0 0 175.176 0 390.499 0 605.824 175.4 781 391 781c215.598 0 391-175.176 391-390.501 0-98.054-36.683-191.872-103.29-264.174z" fill="#E2E2E2"/><path d="M404 391.001c0 3.313-5.82 5.999-12.999 5.999-7.18 0-13.001-2.686-13.001-5.999 0-3.315 5.82-6.001 13.001-6.001 7.179 0 12.999 2.686 12.999 6.001" fill="#1CB0A5"/><path fill="#DB766B" d="M391 317l39 17.863L391 348v-31"/><path d="M391 392c-.554 0-1-.502-1-1.126v-75.748c0-.621.446-1.126 1-1.126.552 0 1 .505 1 1.126v75.748c0 .624-.448 1.126-1 1.126m143.752 36.9c-14.635 0-30.437.783-45.274-2.03a42.43 42.43 0 01-3.053-.636c-3.906-.856-7.721-2.006-11.425-3.522 4.355-1.272 8.574-1.688 12.817-1.712.92 0 1.818.024 2.738.049 2.985.073 6.016.293 9.136.465 10.168.611 20.38 1.174 30.549 1.785.202 0 .381.025.584.025.83.048 1.705.097 2.513.342.719.196 1.37.538 1.886 1.076 1.145 1.174 1.055 3.718-.471 4.158" fill="#264F5F"/><path d="M532.139 419.483c-2.912-1.449-8.62-2.333-11.462-.253-.06.043-.118.089-.179.132-.6.437-.644 1.185-.209 1.772 1.078 1.461 3.49.334 4.945.415 1.9.106 8.06.359 6.703 3.898-.363.948.888 1.98 1.64 1.37 2.685-2.171 1.21-6.017-1.438-7.334" fill="#274F5F"/><path d="M491 420.05c-.413 1.7-.826 3.4-1 5.15-.022.275-.043.55-.043.8a39.2 39.2 0 01-2.957-.65c.196-1.825.696-3.7 1.348-5.35.891 0 1.76.025 2.652.05m23.135 5.835c-1.474-2.86-3.375-5.397-6.248-6.869-1.285-.661-1.84-1.526-3.436-.635-.306.169-2.28 2.18-1.513 2.593-1.598-.858-3.654-.73-5.139.32-1.483 1.053-2.334 2.98-2.124 4.818-2.903 1.081-4.856 4.377-4.46 7.523-5.343 7.58-3.26 16.676.694 24.318.22.425.493.88.94 1.01.667.198 1.306-.445 1.55-1.113.244-.665.276-1.416.625-2.032.48-.837 1.556-1.252 2.453-.943 1.399.48 2.241 2.007 3.863 2.593 2.223.804 4.535.647 6.725-.166 8.728-3.24 14.408-11.63 15.754-20.912.358-2.464.374-6.234-1.78-7.952-1.814-1.449-4.468-1.055-4.862 1.573-.149.996.043 2.007.232 2.996-1.081-2.199-2.058-4.759-3.274-7.122" fill="#FFB073"/><path d="M508.113 421c-.532-.289.255-1.35.887-2.032-1.208-.658-1.779-1.457-3.327-.584-.269.151-1.84 1.76-1.658 2.413 1.319-.52 2.843-.478 4.098.203m13.327 12c-.197-.918-.393-1.855-.24-2.78.11-.667.405-1.167.8-1.53-.937-.629-2.058-.84-3-.583.85 1.674 1.614 3.375 2.44 4.893m-15.688 23.51c-1.73-.547-2.631-1.967-4.123-2.415-.957-.288-2.11.098-2.62.878-.004.008-.004.017-.009.024.746.556 1.486 1.185 2.525 1.512 1.803.57 3.66.618 5.475.277-.417-.078-.833-.146-1.248-.277m-10.39-23.499c-.407-3.1 1.6-6.347 4.578-7.412-.216-1.81.655-3.71 2.18-4.746.271-.185.578-.305.88-.43-1.588-.68-3.517-.54-4.945.43-1.522 1.037-2.395 2.935-2.18 4.746-2.978 1.065-4.983 4.312-4.575 7.412-5.484 7.467-3.346 16.43.712 23.959.224.418.505.866.964.995.684.194 1.34-.438 1.59-1.097.222-.582.3-1.217.56-1.778-3.4-7.11-4.798-15.224.236-22.079" fill="#ED924C"/><path d="M643 910.845c19.618.411 39.251.004 58.838-1.215 1.403-.088-6.726-13.575-7.98-14.626-5.097-4.282-12.137-5.164-18.179-2.48-4.084 1.812-7.33 5.393-11.251 7.603-6.942 3.912-14.312 7.162-21.428 10.718m105-5c19.618.411 39.251.004 58.838-1.215 1.403-.088-6.726-13.575-7.98-14.626-5.097-4.282-12.137-5.164-18.179-2.48-4.084 1.812-7.33 5.393-11.251 7.603-6.942 3.912-14.312 7.162-21.428 10.718" fill="#153845"/><path d="M693.756 266.33a34.246 34.246 0 00-6.668-3.283c-10.491-3.797-22.546-2.138-32.05 3.535-4.47 2.672-8.667 6.17-11.035 10.865-1.99 3.944-6.153 8.854-7.177 12.968-.451 1.813.084 4.017 1.719 4.92a103.79 103.79 0 00-8.641 14.12c-3.35 6.607 3.552 6.343 5.47 11.28 2.129 5.476-.93 12.473 1.123 18.372 3.673 10.546 11.374 3.344 18.528 8.844 3.534 2.715 5.918 6.621 8.796 10.027 6.838 8.095 16.81 13.47 27.325 14.731 10.518 1.259 21.474-1.608 30.029-7.86 1.872-1.37 3.783-3.19 3.824-5.51.062-3.315-3.743-5.415-7.052-5.478-3.31-.061-6.587 1.102-9.88.756-6.287-.66-8.198-5.866-11.428-10.214-3.984-5.365-6.753-9.965-5.502-17.081 1.103-6.264 4.953-11.826 9.869-15.857 7.279-5.968 12.18-11.04 9.753-20.77-2.474-9.922-8.291-18.842-17.003-24.365" fill="#FFB073"/><path d="M714.158 354.306c1.949.186 3.893-.124 5.842-.382a9.47 9.47 0 00-2.046-.284c-1.656-.028-3.306.232-4.954.448.382.076.738.178 1.158.218m-16.379 18.41c-10.62-1.262-20.69-6.64-27.597-14.737-2.905-3.407-5.314-7.314-8.883-10.03-7.225-5.503-15.003 1.702-18.712-8.848-2.075-5.9 1.015-12.9-1.133-18.378-1.939-4.939-8.91-4.675-5.526-11.284a103.88 103.88 0 018.727-14.126c-1.65-.902-2.19-3.107-1.736-4.92 1.034-4.116 5.24-9.028 7.249-12.974 2.39-4.695 6.629-8.195 11.147-10.868 5.254-3.11 11.285-4.96 17.406-5.42-8.106-.676-16.443 1.293-23.421 5.42-4.518 2.673-8.757 6.173-11.147 10.868-2.01 3.946-6.215 8.858-7.249 12.974-.456 1.813.085 4.018 1.736 4.92a103.652 103.652 0 00-8.727 14.126c-3.384 6.609 3.587 6.345 5.526 11.284 2.148 5.477-.942 12.478 1.133 18.378 3.709 10.55 11.487 3.345 18.712 8.848 3.57 2.716 5.976 6.623 8.883 10.03 6.906 8.098 16.976 13.475 27.597 14.737 2.732.322 5.492.365 8.236.154-.74-.048-1.483-.068-2.221-.154" fill="#ED924C"/><path d="M705.436 247.85a23.129 23.129 0 00-3.203-2.578c-7.165-4.769-16.038-5.903-24.58-6.343-8.547-.44-17.273-.335-25.403-3.053-3.12-1.042-6.403-2.507-9.556-1.583-3.775 1.107-5.889 5.29-6.466 9.252-1.31 8.991 3.203 20.46 9.071 27.173 4.88 5.578 13.247 6.68 18.203 12.183 2.898 3.224 4.041 7.771 3.999 12.145-.043 4.374-1.157 8.654-2.261 12.88.778.291 1.558.586 2.337.878-.52-.196 6.05-9.911 10.122-9.231 3.999.668 5.875 5.635 5.506 9.753-.337 3.763-1.608 9.245-6.365 8.707 1.572.178 3.621 26.566 15.71 16.799 3.352-2.71 2.292-5.031 2.808-8.793.642-4.67 3.118-9.115 5.817-12.855 3.568-4.941 7.967-9.201 11.684-14.029 3.719-4.828 6.817-10.472 7.12-16.603.305-6.13-2.822-12.735-8.455-14.896 2.321-6.956-.774-14.69-6.088-19.806M605.295 699.724c-6.887 13.676-13.946 28.118-13.247 43.394.64 13.978 7.705 26.757 14.598 38.96L670.996 896c-.224-.372 22.003-1.62 24.11-1.415-8.173-26.385-20.496-50.234-32.602-74.922-11.248-22.945-22.24-49.606-14.757-75.392 5.299-18.263 18.294-25.628 31.073-37.88 13.149-12.606 26.663-25.193 36.251-40.645 9.59-15.453 14.93-34.456 10.148-51.975-3.665-13.435-15.05-24.067-27.938-28.9-7.789-2.92-16.699-3.783-24.82-1.796-8.539 2.089-10.186 5.948-14.35 13.442-18.777 33.778-35.44 68.693-52.816 103.207" fill="#264F5F"/><path d="M697.138 698.896c.053 2.78.121 5.557.206 8.333.374 12.605-.681 26.117.589 38.437 1.329 12.88 8.154 24.704 14.415 35.778L777.133 896c7.956-1.126 15.911-2.252 23.867-3.376-4.14.585-27.365-65.33-29.786-72.094-5.476-15.309-9.814-30.996-14.007-46.687-2.317-8.672-6.008-17.125-6.903-26.12-.975-9.771 1.978-20.362 3.558-30.02a528.192 528.192 0 0115.617-67.372c4.281-14.175 9.189-29.291 4.823-43.444-4.937-16.009-22.641-27.053-39.322-24.527-20.613 3.117-27.932 21.04-31.976 38.703-5.797 25.333-6.355 51.974-5.866 77.833" fill="#264F5F"/><path d="M669.832 631.041c11.595 8.524 27.079 9.648 41.485 8.662a175.435 175.435 0 0037.693-6.781c8.476-2.507 17.55-6.35 21.304-14.284 3.051-6.448 1.707-14.318-1.996-20.419-3.707-6.103-9.482-10.695-15.495-14.597-14.918-9.684-32.696-16.01-50.455-14.361-27.88 2.587-65.452 37.585-32.536 61.78" fill="#153845"/><path d="M679.787 362.434c14.807-4.593 30.197-8.122 45.681-7.32 15.484.803 31.194 6.354 41.794 17.654 11.419 12.172 15.635 29.26 18.81 45.634 6.879 35.471 10.87 71.746 7.972 107.76-1.326 16.503-4.132 32.913-8.681 48.84-3.566 12.49-7.977 31.42-15.973 41.804-15.753 20.45-60.843 10.264-81.34 4.532-7.926-2.216-16.213-5.002-21.525-11.28-10.23-12.088-5.664-30.582-8.032-45.018-2.905-17.703-9.769-35.39-17.302-51.588-9.649-20.74-22.175-40.308-28.737-62.22-5.267-17.585-8.44-46.307 5.749-61.064 14.152-14.718 42.828-21.92 61.584-27.734" fill="#264F5F"/><path d="M522.748 445.946c1.606 8.472-4.686 12.443-12.488 13.643-2.245.362-5.227.504-6.922 2.145-1.494 1.45-2.478 4.49-3.601 6.262-1.225.075-2.252-.929-2.77-2.004-.514-1.076-.7-2.282-1.258-3.336-.606-1.148-1.608-2.044-2.447-3.047-6.004-7.162 11.106-15.749 15.887-18.408 2.068-1.152 4.296-2.34 6.677-2.188 3.572.228 6.276 3.529 6.922 6.933" fill="#DB766B"/><path d="M828.745 445.958c4.755 14.237 8.291 29.135 11.383 43.95 1.52 7.278 2.825 14.884.932 22.077-3.172 12.059-14.39 20.067-25.084 26.576a455.188 455.188 0 01-35.177 19.334c-6.894 3.403-27.07 9.357-24.426-5.45.688-3.845 3.272-7.096 6.163-9.743 8.99-8.23 21.288-10.243 30.896-17.162 13.806-9.944 12.715-23.622 6.657-37.83-12.587-29.512-25.45-59.487-45.992-84.205-6.862-8.257-23.785-35.544-3.299-40.197 4.532-1.03 9.21.695 13.42 2.651 35.188 16.345 53.273 46.318 64.527 79.999m-240.213 20.887c-3.11 13.665-6.45 26.303-11.56 35.617-3.27 5.959-8.401 12.212-15.204 11.944-7.414-.29-11.988-7.967-15.16-14.665-4.517-9.54-8.783-19.256-13.571-28.665-3.478-6.838-4.12-12.772-6.84-19.678-1.544-3.92-4.99-7.394-9.198-7.689-4.144-.29-7.83 2.417-11.09 4.988-3.386 2.67-5.916 5.977-8.942 9.029-.843.85-1.729 1.782-1.926 2.961-.207 1.252.409 2.476 1.004 3.596 5.953 11.194 11.339 22.285 16.679 33.756 5.372 11.538 12.436 22.083 18.107 33.409 8.748 14.318 23.017 31.975 41.806 30.46 15.027-1.21 25.687-14.814 33.446-27.717 12.77-21.24 19.945-43.89 30.33-66.063 6.98-14.903 16.618-28.416 22.773-43.738 4.273-10.636 11.383-36.56-1.662-44.254-2.912-1.716-6.408-2.176-9.79-2.133-43.055.544-50.146 49.05-59.202 88.842M500.5 449c-1.998 0-2.002 3 0 3 1.999 0 2-3 0-3" fill="#264F5F"/><path d="M225.672 972.966c-.333.715-.778 1.247-1.333 1.592a3.42 3.42 0 01-1.846.523 3.303 3.303 0 01-1.839-.551c-.56-.364-1.002-.905-1.324-1.627-.324-.72-.484-1.593-.484-2.618 0-.97.151-1.822.456-2.557.302-.736.73-1.298 1.283-1.688a3.172 3.172 0 011.88-.59c.673 0 1.292.191 1.86.574.565.385 1.014.938 1.347 1.662.331.725.496 1.591.496 2.6 0 1.068-.165 1.964-.496 2.68zM228.19 957c-.579 0-1.025.198-1.337.595-.315.4-.47.985-.47 1.76v5.582c-.722-.773-1.462-1.35-2.218-1.725-.759-.371-1.69-.56-2.794-.56-1.907 0-3.446.66-4.616 1.979-1.168 1.32-1.754 3.167-1.754 5.53 0 1.116.149 2.154.442 3.116.295.961.728 1.797 1.3 2.508a5.935 5.935 0 002.026 1.64c.78.386 1.628.575 2.548.575a6.06 6.06 0 001.914-.285 5.63 5.63 0 001.627-.83 9.686 9.686 0 001.524-1.42v.374c0 .693.17 1.225.51 1.6.343.374.776.561 1.298.561.535 0 .97-.18 1.305-.54.338-.358.506-.9.506-1.62v-16.68c0-.71-.156-1.248-.47-1.612-.315-.366-.76-.548-1.34-.548zm8.841 12.327c.136-1.243.519-2.182 1.15-2.816.63-.634 1.438-.95 2.419-.95 1.032 0 1.862.314 2.493.939.63.625.998 1.566 1.092 2.827h-7.154zm10.117 1.68c.567-.277.852-.875.852-1.805 0-.995-.278-1.977-.825-2.938-.548-.962-1.376-1.748-2.478-2.355-1.103-.609-2.425-.909-3.966-.909-1.185 0-2.264.177-3.237.532-.974.357-1.792.866-2.457 1.53a6.594 6.594 0 00-1.516 2.397c-.348.93-.521 1.939-.521 3.027 0 2.312.704 4.144 2.11 5.491 1.405 1.348 3.377 2.023 5.908 2.023 1.11 0 2.09-.134 2.941-.405.855-.27 1.56-.609 2.125-1.018.563-.409.984-.836 1.266-1.282.278-.445.419-.834.419-1.165 0-.38-.127-.669-.378-.878-.248-.207-.576-.311-.98-.311-.378 0-.668.082-.87.243-.491.43-.89.773-1.197 1.025-.31.252-.645.491-1.01.71a4.332 4.332 0 01-1.137.486c-.39.104-.82.152-1.293.152-.703 0-1.346-.16-1.93-.484-.582-.323-1.05-.805-1.4-1.443-.353-.64-.533-1.375-.543-2.212h7.717c1.032 0 1.83-.138 2.4-.411z" fill="#FEFEFE"/><path d="M256.905 970c-.689-.387-1.577-.72-2.66-1.001a47.303 47.303 0 01-2.154-.592c-.523-.162-.938-.367-1.247-.617a1.163 1.163 0 01-.46-.952c0-.423.21-.776.629-1.058.419-.287.944-.428 1.577-.428.615 0 1.103.107 1.462.323.36.218.67.508.935.867.326.433.613.756.866.97.25.219.557.328.916.328.497 0 .879-.139 1.149-.405.268-.271.402-.62.402-1.043 0-.387-.126-.783-.378-1.19-.25-.404-.618-.775-1.102-1.107-.481-.332-1.086-.601-1.81-.797-.719-.2-1.535-.298-2.44-.298-1.156 0-2.139.196-2.955.59-.816.391-1.434.917-1.853 1.573a3.836 3.836 0 00-.629 2.094c0 .829.227 1.528.68 2.097.452.564 1.057 1.024 1.815 1.368.756.348 1.736.68 2.942.995 1.069.27 1.835.555 2.3.851.469.298.7.77.7 1.418 0 .424-.225.8-.672 1.13-.45.327-1.024.494-1.726.494-.864 0-1.544-.164-2.045-.488-.5-.325-.931-.812-1.29-1.472a3.051 3.051 0 00-.563-.797c-.197-.19-.478-.285-.845-.285-.419 0-.766.146-1.039.433-.274.289-.41.635-.41 1.04 0 .613.214 1.223.641 1.833.426.605 1.089 1.113 1.988 1.518.896.405 1.974.608 3.23.608 1.316 0 2.435-.184 3.353-.56.918-.373 1.613-.924 2.082-1.648.473-.726.706-1.598.706-2.616 0-.676-.177-1.277-.531-1.803-.357-.528-.877-.988-1.564-1.373m6.579-7c-.44 0-.797.184-1.071.553-.276.371-.413.922-.413 1.648v10.557c0 .719.137 1.274.413 1.661.274.387.63.581 1.071.581.44 0 .802-.189 1.088-.567.285-.378.428-.938.428-1.675v-10.664c0-.655-.143-1.17-.428-1.54-.286-.37-.647-.554-1.088-.554m.034-5c-.404 0-.757.14-1.06.422a1.399 1.399 0 00-.458 1.072c0 .48.15.852.446 1.113.296.26.653.393 1.072.393.401 0 .75-.134 1.042-.4.294-.266.44-.635.44-1.106 0-.488-.15-.857-.452-1.112a1.544 1.544 0 00-1.03-.382m14.199 14.195c-.358.68-.82 1.189-1.39 1.527a3.51 3.51 0 01-1.808.505c-1.08 0-1.96-.392-2.64-1.18-.682-.784-1.021-1.945-1.021-3.479 0-1.513.33-2.683.992-3.505.662-.822 1.542-1.235 2.64-1.235 1.128 0 2.036.432 2.727 1.291.69.857 1.034 2.06 1.034 3.603 0 .97-.178 1.794-.534 2.473zM280.154 962c-.517 0-.94.18-1.27.54-.33.361-.493.87-.493 1.524v.516c-.683-.878-1.426-1.522-2.223-1.935-.8-.41-1.744-.617-2.833-.617-.911 0-1.746.159-2.506.479a5.726 5.726 0 00-2.014 1.42c-.581.628-1.03 1.4-1.345 2.316-.316.913-.47 1.94-.47 3.078 0 1.525.256 2.867.773 4.032.515 1.166 1.256 2.07 2.217 2.716.963.647 2.088.972 3.373.972 1.07 0 1.994-.213 2.767-.638.778-.425 1.46-1.044 2.05-1.859-.019 1.24-.045 2.137-.083 2.698a4.52 4.52 0 01-.387 1.571c-.22.49-.605.873-1.155 1.144-.55.276-1.322.411-2.318.411-.487 0-.921-.046-1.296-.133a2.98 2.98 0 01-.966-.4 3.836 3.836 0 01-.733-.653c-.22-.252-.434-.507-.638-.757-.425-.488-.916-.733-1.48-.733-.449 0-.836.145-1.154.437-.32.29-.481.668-.481 1.13 0 .61.284 1.203.847 1.782.565.577 1.366 1.046 2.408 1.413 1.042.364 2.226.546 3.55.546 1.447 0 2.655-.142 3.627-.43.97-.285 1.756-.726 2.359-1.314.6-.591 1.039-1.343 1.31-2.247.272-.906.41-1.987.41-3.243v-10.992c0-.897-.123-1.583-.368-2.06-.244-.476-.738-.714-1.478-.714zm16.268 3.431a4.026 4.026 0 00-1.695-1.796c-.758-.423-1.616-.635-2.579-.635-.988 0-1.863.2-2.624.601-.762.403-1.464 1.031-2.104 1.885v-.446c0-.44-.078-.815-.234-1.123a1.672 1.672 0 00-.62-.687 1.681 1.681 0 00-.87-.23c-.526 0-.94.173-1.241.519-.304.348-.455.874-.455 1.575v10.664c0 .719.171 1.274.509 1.661.337.387.77.581 1.296.581.542 0 .985-.184 1.327-.56.342-.373.516-.936.516-1.682v-4.622c0-1.504.088-2.531.265-3.082.25-.683.642-1.223 1.177-1.614a2.923 2.923 0 011.776-.59c.999 0 1.663.326 1.998.968.333.644.502 1.575.502 2.79v6.15c0 .719.166 1.274.506 1.661.338.387.779.581 1.323.581.534 0 .968-.189 1.3-.567.336-.378.505-.938.505-1.675v-6.866c0-.81-.038-1.476-.11-2a4.243 4.243 0 00-.468-1.46m6.609 3.895c.136-1.243.516-2.182 1.15-2.816.63-.634 1.438-.95 2.421-.95 1.03 0 1.86.314 2.493.939.63.625.993 1.566 1.09 2.827h-7.154zm10.117 1.68c.567-.277.852-.875.852-1.805 0-.995-.275-1.977-.823-2.938-.55-.962-1.378-1.748-2.48-2.355-1.103-.609-2.425-.909-3.966-.909-1.185 0-2.264.177-3.237.532-.972.357-1.792.866-2.457 1.53a6.594 6.594 0 00-1.516 2.397c-.348.93-.521 1.939-.521 3.027 0 2.312.704 4.144 2.108 5.491 1.41 1.348 3.379 2.023 5.913 2.023 1.108 0 2.086-.134 2.94-.405.853-.27 1.558-.609 2.123-1.018.565-.409.986-.836 1.266-1.282.28-.445.419-.834.419-1.165 0-.38-.124-.669-.375-.878-.25-.207-.58-.311-.984-.311-.377 0-.664.082-.866.243-.492.43-.891.773-1.198 1.025a8.715 8.715 0 01-1.013.71 4.387 4.387 0 01-1.134.486 5.02 5.02 0 01-1.295.152c-.703 0-1.346-.16-1.928-.484-.584-.323-1.051-.805-1.402-1.443-.353-.64-.53-1.375-.543-2.212h7.717c1.032 0 1.83-.138 2.4-.411zm12.522 1.959c-.331.715-.776 1.247-1.333 1.592a3.406 3.406 0 01-1.844.523 3.29 3.29 0 01-1.837-.551c-.562-.364-1.004-.905-1.328-1.627-.322-.72-.482-1.593-.482-2.618 0-.97.151-1.822.454-2.557.304-.736.732-1.298 1.285-1.688a3.17 3.17 0 011.88-.59c.673 0 1.292.191 1.86.574.565.385 1.014.938 1.345 1.662.333.725.498 1.591.498 2.6 0 1.068-.165 1.964-.498 2.68zM328.19 957c-.58 0-1.029.198-1.34.595-.313.4-.471.985-.471 1.76v5.582c-.719-.773-1.459-1.35-2.215-1.725-.759-.371-1.69-.56-2.794-.56-1.907 0-3.446.66-4.616 1.979-1.17 1.32-1.754 3.167-1.754 5.53 0 1.116.147 2.154.442 3.116.295.961.728 1.797 1.298 2.508a5.965 5.965 0 002.028 1.64c.78.386 1.628.575 2.548.575.69 0 1.33-.091 1.914-.285a5.661 5.661 0 001.627-.83c.5-.364 1.007-.838 1.522-1.42v.374c0 .693.17 1.225.513 1.6.342.374.775.561 1.297.561.535 0 .97-.18 1.305-.54.338-.358.506-.9.506-1.62v-16.68c0-.71-.156-1.248-.47-1.612-.315-.366-.761-.548-1.34-.548zm17.908 16.84c-.696.825-1.53 1.24-2.494 1.24-1.134 0-2.05-.408-2.75-1.215-.695-.808-1.046-1.963-1.046-3.468 0-1.027.163-1.913.493-2.655.326-.743.776-1.312 1.35-1.702a3.37 3.37 0 011.953-.59c.71 0 1.336.198 1.871.59.533.39.945.948 1.236 1.669.292.719.436 1.58.436 2.576 0 1.543-.35 2.726-1.05 3.554zm1.87-10.297c-.96-.592-2.076-.891-3.353-.891-1.103 0-2.034.196-2.782.588-.75.392-1.487.96-2.207 1.697v-5.776c0-.693-.161-1.225-.479-1.6-.317-.374-.772-.561-1.364-.561-.561 0-1 .198-1.314.588-.313.392-.469.973-.469 1.739v16.512c0 .712.161 1.25.483 1.617.325.364.758.544 1.3.544.535 0 .976-.18 1.322-.544.348-.366.52-.905.52-1.617v-.373c.422.48.763.842 1.021 1.08.256.24.569.474.933.7.365.227.808.409 1.329.546a6.38 6.38 0 001.667.208c.964 0 1.847-.189 2.65-.574a5.78 5.78 0 002.044-1.629c.563-.7.992-1.528 1.288-2.485.294-.957.443-2.005.443-3.15 0-1.552-.268-2.897-.796-4.026-.53-1.132-1.276-1.993-2.235-2.593z" fill="#FEFEFE"/><path d="M364.134 962.229a1.742 1.742 0 00-.863-.229c-.416 0-.74.07-.967.21-.227.136-.442.404-.645.801-.204.4-.431.95-.683 1.649l-3.18 8.665-3.354-9.317c-.222-.647-.48-1.142-.77-1.487-.291-.348-.722-.521-1.292-.521-.33 0-.648.082-.951.25a1.893 1.893 0 00-.72.665 1.667 1.667 0 00-.261.902c0 .303.151.796.45 1.469l4.88 11.727-.362.845c-.272.619-.511 1.09-.72 1.406-.21.32-.445.544-.704.672-.262.131-.621.196-1.076.196a3.07 3.07 0 01-.653-.084 2.334 2.334 0 00-.624-.084c-.54 0-.952.12-1.226.355-.278.236-.413.57-.413 1.004 0 .638.289 1.077.87 1.32.58.238 1.451.357 2.613.357 1.192 0 2.136-.17 2.838-.518a4.213 4.213 0 001.693-1.493c.425-.646.86-1.536 1.308-2.673l5.17-12.92c.124-.33.23-.662.317-.984.088-.324.15-.574.191-.75 0-.287-.078-.557-.227-.817a1.616 1.616 0 00-.639-.616M413.996 957c-1.128 0-2.018.159-2.666.476a2.749 2.749 0 00-1.385 1.523c-.273.7-.404 1.638-.404 2.825v1.134h-.819c-1.149 0-1.722.45-1.722 1.36 0 .404.138.737.415.987.279.259.668.382 1.182.382h.944v10.018c0 .744.158 1.313.48 1.702.328.397.73.593 1.214.593a1.52 1.52 0 001.246-.593c.33-.39.489-.958.489-1.702v-10.018h.836c.615 0 1.093-.084 1.44-.25.351-.165.519-.561.519-1.173 0-.872-.648-1.306-1.96-1.306h-.835v-.898c0-.754.09-1.327.258-1.729.184-.399.578-.604 1.197-.604.225 0 .51.033.823.082.33.058.565.086.698.086.284 0 .534-.126.737-.373.213-.25.317-.55.317-.898 0-1.09-.994-1.624-3.004-1.624m11.03 6.58c-.649-.389-1.31-.58-2.002-.58-.691 0-1.235.191-1.655.58-.409.39-.809.958-1.197 1.719-.028-.76-.161-1.33-.402-1.719-.24-.389-.63-.58-1.178-.58-1.063 0-1.592.828-1.592 2.487v10.274c0 .737.158 1.295.455 1.67.303.382.689.569 1.17.569a1.46 1.46 0 001.184-.56c.305-.37.473-.935.473-1.68v-3.083c0-1.106.028-2.048.09-2.818.067-.767.18-1.436.344-1.998.17-.553.406-.97.713-1.26.301-.278.697-.424 1.176-.424.348 0 .756.084 1.217.246.456.166.747.255.875.255.317 0 .614-.146.89-.444.274-.285.413-.662.413-1.11 0-.638-.323-1.154-.974-1.544m6.008 5.747c.134-1.24.518-2.174 1.148-2.808.633-.638 1.44-.95 2.421-.95 1.037 0 1.86.31 2.494.936.633.62.993 1.565 1.088 2.822h-7.15zm10.112 1.68c.567-.276.854-.876.854-1.796 0-1.002-.275-1.979-.825-2.944-.54-.964-1.375-1.75-2.477-2.35-1.102-.613-2.425-.917-3.963-.917-1.188 0-2.265.177-3.236.532-.976.354-1.789.863-2.45 1.53a6.475 6.475 0 00-1.521 2.397 8.543 8.543 0 00-.528 3.03c0 2.309.71 4.14 2.117 5.491 1.404 1.35 3.37 2.02 5.91 2.02 1.102 0 2.087-.136 2.937-.407.849-.263 1.557-.608 2.126-1.013.567-.411.985-.836 1.27-1.286.273-.443.406-.829.406-1.163 0-.38-.116-.668-.37-.877-.255-.209-.578-.315-.987-.315-.37 0-.66.086-.864.247-.491.43-.893.773-1.202 1.02-.309.26-.64.493-1.01.711-.365.22-.747.384-1.131.484-.392.111-.82.157-1.292.157a3.906 3.906 0 01-1.93-.482c-.586-.327-1.048-.81-1.406-1.442-.35-.639-.525-1.38-.54-2.215h7.718c1.029 0 1.827-.136 2.394-.411zm4.892-1.68c.127-1.24.514-2.174 1.141-2.808.635-.638 1.44-.95 2.423-.95 1.034 0 1.856.31 2.496.936.625.62.99 1.565 1.088 2.822h-7.148zm7.668-5.41c-1.116-.613-2.437-.917-3.972-.917-1.183 0-2.268.177-3.238.532-.976.354-1.79.863-2.453 1.53a6.559 6.559 0 00-1.515 2.397c-.353.932-.528 1.943-.528 3.03 0 2.309.705 4.14 2.112 5.491 1.408 1.35 3.374 2.02 5.909 2.02 1.104 0 2.092-.136 2.94-.407.845-.263 1.56-.608 2.122-1.013.572-.411.993-.836 1.263-1.286.284-.443.416-.829.416-1.163 0-.38-.115-.668-.365-.877-.256-.209-.582-.315-.99-.315-.368 0-.66.086-.864.247-.494.43-.895.773-1.2 1.02-.308.26-.64.493-1.009.711-.37.22-.747.384-1.138.484a4.647 4.647 0 01-1.285.157 3.917 3.917 0 01-1.934-.482c-.581-.327-1.048-.81-1.401-1.442-.348-.639-.528-1.38-.538-2.215h7.714c1.027 0 1.825-.136 2.394-.411.562-.277.854-.877.854-1.797 0-1.002-.282-1.979-.827-2.944-.543-.964-1.372-1.75-2.467-2.35zm14.947 8.355c-.322.731-.757 1.275-1.306 1.644a3.155 3.155 0 01-1.771.543c-1.075 0-1.96-.415-2.683-1.25-.726-.839-1.089-2.015-1.089-3.511 0-1.601.367-2.813 1.094-3.639.727-.815 1.622-1.23 2.678-1.23.665 0 1.28.196 1.823.579.544.38.973.926 1.28 1.645.308.715.467 1.574.467 2.573 0 1.031-.166 1.914-.493 2.646zm1.13-9.345a6.27 6.27 0 00-3.267-.901c-.983 0-1.87.21-2.638.623-.783.413-1.536 1.055-2.256 1.933v-.453c0-.694-.166-1.214-.514-1.583-.34-.364-.778-.546-1.325-.546-.552 0-.992.182-1.31.53-.317.364-.473.894-.473 1.617v16.33c0 .826.12 1.447.346 1.881.241.43.71.642 1.437.642 1.224 0 1.84-.838 1.84-2.495v-5.677c.679.834 1.389 1.478 2.132 1.905.741.434 1.67.651 2.76.651.912 0 1.755-.177 2.557-.53a6.038 6.038 0 002.055-1.526c.58-.66 1.044-1.475 1.376-2.449.331-.978.497-2.051.497-3.211 0-1.583-.291-2.946-.866-4.106-.58-1.153-1.36-2.03-2.351-2.635zm6.701.073c-.44 0-.792.18-1.073.558-.27.368-.411.917-.411 1.64v10.565c0 .714.14 1.265.41 1.659.282.387.634.578 1.074.578.44 0 .8-.187 1.088-.569.285-.375.428-.933.428-1.668v-10.67c0-.652-.143-1.167-.428-1.535-.288-.378-.647-.558-1.088-.558m.032-5c-.402 0-.755.142-1.057.42a1.398 1.398 0 00-.459 1.076c0 .477.148.844.448 1.107.294.26.648.397 1.068.397a1.52 1.52 0 001.047-.397c.29-.267.437-.636.437-1.107 0-.488-.15-.86-.452-1.12a1.55 1.55 0 00-1.032-.376m14.741 16.358l-3.571-6.098 1.847-1.84c.944-.922 1.418-1.666 1.418-2.219 0-.448-.148-.828-.431-1.126a1.474 1.474 0 00-1.094-.45c-.363 0-.673.1-.926.303-.262.2-.625.585-1.11 1.133l-3.918 4.465v-9.175c0-.77-.159-1.357-.475-1.751-.316-.402-.737-.6-1.274-.6-.548 0-.98.215-1.28.66-.29.441-.443 1.078-.443 1.913v16.132c0 .755.157 1.327.46 1.712.303.392.728.583 1.263.583.458 0 .873-.196 1.218-.593.353-.39.531-.947.531-1.674v-3.012l1.89-1.936 3.07 5.489c.388.648.708 1.1.936 1.353.228.254.559.373.984.373.488 0 .887-.17 1.19-.516.303-.352.458-.818.458-1.423 0-.207-.062-.44-.174-.671-.114-.238-.31-.574-.57-1.032m6.725-1.358a1.89 1.89 0 00-1.409.586c-.38.385-.572.853-.572 1.393 0 .642.201 1.14.6 1.488.4.356.869.533 1.415.533.53 0 .995-.177 1.395-.54.391-.353.59-.85.59-1.481a1.9 1.9 0 00-.59-1.401 1.992 1.992 0 00-1.429-.578m17.33-1.152a1.57 1.57 0 00-1.032.355c-.28.237-.536.557-.779.971-.435.706-.935 1.227-1.51 1.568-.565.344-1.246.514-2.043.514a4.05 4.05 0 01-1.628-.32 3.485 3.485 0 01-1.263-.931 4.09 4.09 0 01-.795-1.486 6.262 6.262 0 01-.282-1.915c0-1.47.36-2.642 1.077-3.49.717-.854 1.67-1.277 2.834-1.277.818 0 1.486.17 2.01.517.536.336 1.037.853 1.524 1.533.265.36.512.612.732.771.22.155.492.237.827.237.495 0 .923-.157 1.283-.462.352-.307.524-.683.524-1.12 0-.436-.152-.903-.47-1.403-.311-.496-.769-.965-1.361-1.41-.6-.438-1.322-.802-2.178-1.08-.864-.281-1.804-.42-2.834-.42-1.65 0-3.082.316-4.273.953-1.19.635-2.103 1.534-2.727 2.694-.634 1.163-.947 2.496-.947 4.016 0 2.232.69 4.015 2.058 5.344 1.378 1.326 3.292 1.993 5.75 1.993 1.147 0 2.187-.148 3.105-.435.923-.286 1.684-.67 2.286-1.144.61-.47 1.062-.965 1.356-1.492.298-.521.445-1.015.445-1.47 0-.385-.164-.753-.485-1.095a1.576 1.576 0 00-1.204-.516" fill="#FEFEFE"/><path d="M526.202 973.99c-.672.847-1.583 1.268-2.722 1.268-.75 0-1.404-.196-1.964-.576-.558-.382-.986-.93-1.288-1.658-.3-.72-.448-1.557-.448-2.522 0-.974.153-1.827.458-2.557.302-.733.73-1.284 1.292-1.657.563-.37 1.213-.56 1.95-.56 1.14 0 2.05.417 2.722 1.263.674.835 1.016 2.005 1.016 3.511 0 1.482-.342 2.647-1.016 3.489zm2.773-8.912a6.877 6.877 0 00-2.387-1.536c-.932-.365-1.969-.542-3.108-.542-1.12 0-2.145.177-3.082.532a6.736 6.736 0 00-2.369 1.523 6.638 6.638 0 00-1.508 2.378c-.342.928-.521 1.952-.521 3.07 0 1.103.174 2.115.51 3.03a6.882 6.882 0 001.526 2.385 6.84 6.84 0 002.362 1.538c.913.362 1.94.544 3.082.544 1.146 0 2.178-.182 3.108-.532a6.82 6.82 0 002.371-1.536c.665-.663 1.165-1.461 1.525-2.387a8.83 8.83 0 00.516-3.043c0-1.112-.174-2.12-.514-3.047a6.707 6.707 0 00-1.51-2.377zm22.935-1.457c-.725-.391-1.596-.596-2.594-.596-.862 0-1.642.184-2.35.55-.709.367-1.372.927-1.994 1.678-.435-.74-.978-1.302-1.64-1.673-.661-.368-1.453-.555-2.374-.555-.892 0-1.69.18-2.421.55-.722.353-1.403.918-2.043 1.678v-.348c0-.594-.168-1.06-.503-1.4a1.74 1.74 0 00-1.26-.505c-.514 0-.932.177-1.258.542-.317.357-.473.885-.473 1.581v10.551c0 .765.174 1.345.532 1.741.353.39.808.585 1.366.585.562 0 1.012-.196 1.365-.585.34-.396.511-.976.511-1.74v-4.982c0-1.554.197-2.744.575-3.565.38-.84 1.167-1.252 2.371-1.252.595 0 1.039.166 1.315.5.276.324.448.752.513 1.255.062.516.089 1.24.089 2.168v5.875c0 .779.178 1.352.527 1.746.335.387.79.58 1.346.58.573 0 1.027-.193 1.38-.58.353-.394.523-.967.523-1.746v-4.9c0-1.58.14-2.681.403-3.305a2.977 2.977 0 011.018-1.156c.437-.287.894-.437 1.378-.437.597 0 1.048.166 1.346.49.292.32.476.723.543 1.203.064.476.098 1.108.098 1.902v6.203c0 .765.178 1.345.531 1.741.356.39.806.585 1.365.585.572 0 1.036-.193 1.385-.58.346-.394.52-.967.52-1.746v-7.2c0-1.43-.156-2.48-.468-3.153a3.815 3.815 0 00-1.623-1.7m-176.908 5.39c-.002-.008-.002-.014-.002-.022 0 .008 0 .014.002.022m.071 1.428h.002a11.834 11.834 0 01-.002 0m.939 3.582l-.022-.042.022.042m.03.063a12.66 12.66 0 01-.082-.168c.026.058.054.112.082.168" fill="#FEFEFE"/><path d="M375.714 973.276c.16.5.35.984.572 1.448a10.959 10.959 0 01-.566-1.448h-.006m12.269-18.628l-.18-.606a1.549 1.549 0 001.242-1.506c0-.848-.704-1.536-1.568-1.536-.863 0-1.565.688-1.565 1.536 0 .74.531 1.36 1.24 1.506l.197.674a16.195 16.195 0 00-4.349 1.256l.342 1.028c1.465-.478 2.736-.772 3.889-.893 1.129-.119 1.978-.17 2.67-.17.742 0 1.293.058 1.921.163l.178-1.112s-1.736-.524-4.017-.34M373.976 960c-.035.057-1.018 1.111-1.795 3.059a1.35 1.35 0 00-.114-.18c-.234-.296-.558-.447-.971-.437h-.019a.73.73 0 01-.547-.22c.115-.17.183-.382.183-.619 0-.55-.384-.998-.857-.998-.47 0-.856.449-.856.998 0 .555.385 1 .856 1a.977.977 0 00.213-.03c.211.273.545.51 1.035.497.252-.002.436.075.561.232.141.182.189.442.203.64 0 .003 0 .008-.002.008-.56 1.775-.4 3.988-.4 3.988l1.354.062c.027-.805.127-2.215.476-3.33.674-2.166 1.518-3.518 1.552-3.576l.009-.012c.049-.074.096-.145.143-.212l-.4-.337-.624-.533m28.153-4c-.478 0-.87.452-.87 1.016 0 .088.011.17.03.25-.237.254-.445.65-.437 1.231.005.302-.062.518-.201.664a.832.832 0 01-.385.214c-1.02-1.675-2.28-2.697-2.28-2.697l-.986 1.236c.744.792 1.505 1.784 2.245 3.025.512.856 1.038 1.96 1.476 3.061l1.331-.74s-.607-1.755-1.464-3.33c.15-.061.3-.156.43-.292.263-.275.39-.664.381-1.15-.002-.319.087-.53.194-.672.15.132.334.217.536.217.482 0 .871-.457.871-1.017 0-.564-.389-1.016-.871-1.016" fill="#FEFEFE"/><path d="M398.288 969.465c-2.026.949-5.358 2.203-9.746 2.792a37.33 37.33 0 01-4.928.314 42.59 42.59 0 01-5.119-.308 38.443 38.443 0 01-3.495-.577 11.85 11.85 0 00.855 2c.01.015.017.03.026.046.434.788.959 1.514 1.552 2.142 2.07 2.177 4.178 2.522 4.199 2.524l.032.005.032.01c.019.007 1.888.587 4.73.587 2.797 0 5.54-.542 8.155-1.613 1.936-.953 3.769-2.4 4.677-3.692.702-1 1.207-2.064 1.509-3.173.16-.588.285-1.53.211-2.522-.57.367-1.471.894-2.69 1.465" fill="#FEFEFE"/><path d="M393.472 965.854c-1.361 0-2.467-1.074-2.467-2.394s1.106-2.392 2.467-2.392c1.362 0 2.47 1.072 2.47 2.392 0 1.32-1.108 2.394-2.47 2.394zm-11.67 2.85c-2.2 0-3.989-1.73-3.989-3.865 0-2.135 1.788-3.868 3.988-3.868 2.205 0 3.99 1.733 3.99 3.868 0 2.136-1.785 3.864-3.99 3.864zm8.256-11.552a10.05 10.05 0 00-1.76-.152c-.633 0-1.42.05-2.468.158-1.054.106-2.227.374-3.587.817-1.908.62-3.634 1.593-4.994 2.812l-.047.042c-.2.18-.621.558-1.104 1.153-.059.083-.924 1.27-1.608 3.095-.513 1.366-.49 3.354-.49 3.376v.004a11.8 11.8 0 00.084 1.413c.005.057.016.114.02.173.043.316.098.64.168.964.992.244 6.908 1.582 13.522.69 4.144-.56 7.294-1.748 9.204-2.647 1.588-.747 2.608-1.42 3.002-1.7-.392-1.41-1.475-3.624-2.467-5.006-2.84-3.934-5.903-4.942-7.475-5.192z" fill="#FEFEFE"/></g></svg>