<?xml version="1.0" encoding="UTF-8"?>
<svg width="850px" height="983px" viewBox="0 0 850 983" version="1.1" xmlns="http://www.w3.org/2000/svg" xmlns:xlink="http://www.w3.org/1999/xlink">
    <!-- Generator: Sketch 52.2 (67145) - http://www.bohemiancoding.com/sketch -->
    <title>illustration</title>
    <desc>Created with Sketch.</desc>
    <g id="main-page" stroke="none" stroke-width="1" fill="none" fill-rule="evenodd">
        <g id="rest" transform="translate(-1656.000000, -368.000000)">
            <g id="illustration" transform="translate(1656.000000, 368.000000)">
                <path d="M850,909.501136 C850,922.480595 793.140128,933 722.99887,933 C652.859872,933 596,922.480595 596,909.501136 C596,896.521676 652.859872,886 722.99887,886 C793.140128,886 850,896.521676 850,909.501136" id="Fill-4" fill="#1CB0A5"></path>
                <path d="M554.255273,112.765117 C504.862177,83.7051355 448.560387,68.3770918 391,68.3770918 C360.743899,68.3770918 335.103405,71.6416486 308.77023,78.9122959 L300.937961,59.725112 C330.175414,51.7762326 360.436041,47.752056 391,47.752056 C452.850025,47.752056 513.251307,64.3596974 566.162133,95.8477495 L554.255273,112.765117 Z M528.795871,390.49887 C528.795871,466.381729 466.979801,528.116669 391,528.116669 C379.258387,528.116669 367.657122,526.640384 356.406724,523.726247 L366.4687,504.61819 C372.648496,505.863876 382.384504,507.491633 391,507.491633 C455.593583,507.491633 508.144486,455.010039 508.144486,390.49887 C508.144486,325.989961 455.593583,273.506106 391,273.506106 C326.404153,273.506106 273.855514,325.989961 273.855514,390.49887 C273.855514,427.76998 291.423791,462.341727 321.215841,484.422701 L309.967707,501.744747 C274.296928,475.79785 253.206393,434.706033 253.206393,390.49887 C253.206393,314.618271 315.020199,252.881071 391,252.881071 C466.979801,252.881071 528.795871,314.618271 528.795871,390.49887 Z M391,678.435493 C422.510169,678.435493 453.440841,673.375882 483.035952,663.392306 L491.995525,682.131857 C459.579891,693.36564 425.638549,699.058268 391,699.058268 C264.225897,699.058268 148.335479,619.569475 102.620834,501.258681 L100.243989,495.104855 L68.0388759,506.496893 C54.6153628,469.341082 47.8130598,430.356305 47.8130598,390.49887 C47.8130598,251.472609 130.226187,128.104465 258.36075,74.381706 L266.661597,93.2704678 C209.852746,117.037979 161.301733,156.29857 125.927493,207.159189 C88.3348656,261.20976 68.4621806,324.608629 68.4621806,390.49887 C68.4621806,416.757753 71.6516798,442.887772 77.9401317,468.163219 L79.6989967,475.230396 L112.372688,464.607022 C145.193517,587.579531 257.672597,678.435493 391,678.435493 Z M678.709122,126.325236 C612.503812,54.4642922 522.738313,10.1486118 425.946407,1.54636901 L424.744403,15.0567509 C617.458968,32.186631 768.418031,197.101008 768.418031,390.49887 C768.418031,428.918453 762.61853,466.006441 751.872928,500.953476 L699.899258,483.050411 C708.874677,453.205942 713.535556,422.061527 713.535556,390.49887 C713.535556,291.517688 669.192689,200.053578 591.61248,138.429417 L604.99072,122.726085 C687.186535,188.304339 734.18694,285.528899 734.18694,390.49887 C734.18694,414.691406 731.638057,438.854552 726.608201,462.32138 L739.891367,465.160911 C745.118162,440.762645 747.76891,415.643191 747.76891,390.49887 C747.76891,279.142215 696.893116,176.170768 608.189273,107.992624 L603.064344,104.054357 L572.022752,140.491242 L577.731707,144.827405 C655.404726,203.862981 699.953586,293.407695 699.953586,390.49887 C699.953586,504.887222 637.567073,608.521075 536.689259,662.546777 L526.867231,644.381463 C570.918086,620.78351 608.191537,586.148461 634.975181,543.774785 C663.974949,497.890128 679.304465,444.890817 679.304465,390.49887 C679.304465,231.731535 549.970161,102.564507 391,102.564507 C324.289893,102.564507 259.196041,125.943165 207.709059,168.398229 L202.536592,172.664308 L254.005465,236.48142 L259.309224,232.075173 C294.497843,202.850155 338.614344,186.131736 384.209015,184.619278 L384.209015,205.251096 C284.997256,208.834422 205.391069,290.556859 205.391069,390.49887 C205.391069,492.712957 288.655333,575.870985 391,575.870985 C493.344667,575.870985 576.608931,492.712957 576.608931,390.49887 C576.608931,304.352099 516.325359,229.122603 432.660428,209.883421 L434.604913,188.157389 C529.293877,207.778641 597.258052,291.712115 597.258052,390.49887 C597.258052,504.084647 504.730885,596.49376 391,596.49376 C277.266852,596.49376 184.739685,504.084647 184.739685,390.49887 C184.739685,340.171793 203.186263,291.682725 236.683927,253.966242 L240.867173,249.25479 L183.657654,190.492768 L178.797573,195.773934 C129.72139,249.076189 102.695535,318.230987 102.695535,390.49887 C102.695535,411.381634 104.932032,431.74668 109.178661,451.379237 L89.4463234,457.795312 C84.5319142,435.80929 82.0441501,413.206078 82.0441501,390.49887 C82.0441501,262.839777 159.03128,150.083704 278.17458,103.240479 L284.741462,100.658675 L265.500339,56.8765375 L259.406562,59.3000866 C193.78754,85.396194 137.768707,129.98995 97.4030939,188.261384 C56.0754245,247.925455 34.2310903,317.86022 34.2310903,390.49887 C34.2310903,434.240314 42.1154236,476.984756 57.6622513,517.543031 L60.0300413,523.719464 L92.3913471,512.273169 C115.931164,569.699074 155.291711,618.814376 206.550064,654.625027 C260.862096,692.567587 324.643025,712.622908 391,712.622908 C429.767468,712.622908 467.697381,705.790851 503.737137,692.318902 L510.679787,689.725795 L490.014821,646.515633 L484.228902,648.604588 C454.366678,659.39752 422.99912,664.870852 391,664.870852 C239.518031,664.870852 116.277504,541.787565 116.277504,390.49887 C116.277504,324.032131 140.272317,260.328058 183.999467,210.301664 L222.400222,249.743117 C189.310017,289.220742 171.157715,338.953236 171.157715,390.49887 C171.157715,511.563286 269.778659,610.058401 391,610.058401 C512.219077,610.058401 610.840021,511.563286 610.840021,390.49887 C610.840021,338.90576 592.680928,288.59903 559.708433,248.847851 C526.5141,208.832161 480.326349,182.044257 429.649758,173.421668 L422.401513,172.189546 L416.194553,241.4506 C407.993307,240.071528 399.586068,239.31643 391,239.31643 C307.529743,239.31643 239.624423,307.137372 239.624423,390.49887 C239.624423,441.560698 265.233227,488.840252 308.131877,516.966534 L313.840832,520.708114 L351.227466,463.135259 C363.04378,469.614635 376.596321,473.306478 391,473.306478 C436.716909,473.306478 473.913396,436.15971 473.913396,390.49887 L473.913396,383.716549 L439.148082,383.716549 C435.82729,360.116336 415.529037,341.883198 391,341.883198 C376.935871,341.883198 363.562158,347.955636 354.30831,358.545098 L364.542324,367.463849 C371.215598,359.826957 380.858796,355.447839 391,355.447839 C410.352043,355.447839 426.098073,371.171518 426.098073,390.49887 C426.098073,409.828482 410.352043,425.554422 391,425.554422 C371.645694,425.554422 355.899664,409.828482 355.899664,390.49887 L342.317694,390.49887 C342.317694,417.307121 364.157501,439.119063 391,439.119063 C415.529037,439.119063 435.82729,420.883664 439.148082,397.28119 L460.000932,397.28119 C456.576012,432.291527 426.937891,459.741838 391,459.741838 C352.76902,459.741838 321.668573,428.681072 321.668573,390.49887 C321.668573,352.318928 352.76902,321.258162 391,321.258162 C418.779655,321.258162 443.813488,337.777634 454.771874,363.340199 L467.258231,358.000252 C454.156158,327.439117 424.221497,307.693522 391,307.693522 C345.280827,307.693522 308.086604,344.84029 308.086604,390.49887 C308.086604,416.920528 320.554852,440.471005 339.904631,455.643055 L328.622542,473.014838 C302.699089,453.468191 287.437483,423.153481 287.437483,390.49887 C287.437483,333.4686 333.894609,287.070747 391,287.070747 C448.103127,287.070747 494.562517,333.4686 494.562517,390.49887 C494.562517,447.5314 448.103127,493.926992 391,493.926992 C382.782908,493.926992 371.883378,492.05055 364.420086,490.293929 L359.299683,489.088937 L336.767196,531.883117 L344.436481,534.363186 C359.44003,539.219327 375.106832,541.681309 391,541.681309 C474.470257,541.681309 542.37784,473.862628 542.37784,390.49887 C542.37784,320.448805 494.417643,261.390622 429.575057,244.310479 L431.43805,223.515885 C508.031303,242.011272 563.026961,311.281369 563.026961,390.49887 C563.026961,485.234319 485.856475,562.306345 391,562.306345 C296.143525,562.306345 218.973039,485.234319 218.973039,390.49887 C218.973039,295.765681 296.143525,218.693655 391,218.693655 L397.790985,218.693655 L397.790985,170.941599 L391,170.941599 C342.145656,170.941599 294.47747,187.366118 255.997487,217.325887 L221.58304,174.65605 C269.783186,136.864961 329.672881,116.129148 391,116.129148 C542.481969,116.129148 665.722496,239.212435 665.722496,390.49887 C665.722496,492.4281 610.23336,584.432534 520.413532,632.44684 L510.60735,614.313176 C590.562141,571.523518 645.073375,487.25545 645.073375,390.49887 C645.073375,250.581864 531.095751,136.751923 391,136.751923 C344.235016,136.751923 298.49547,149.60668 258.720672,173.923559 L265.81046,185.491937 C303.450625,162.481785 346.740889,150.316563 391,150.316563 C523.607559,150.316563 631.491406,258.062763 631.491406,390.49887 C631.491406,522.937237 523.607559,630.681176 391,630.681176 C258.392441,630.681176 150.508594,522.937237 150.508594,390.49887 C150.508594,340.621687 165.743037,292.756592 194.563976,252.080757 L183.476562,244.247177 C153.023522,287.224479 136.926625,337.797981 136.926625,390.49887 C136.926625,530.415875 250.901985,644.245816 391,644.245816 C429.387173,644.245816 465.802697,635.682007 498.460542,620.396918 L531.073115,680.709831 L536.981271,677.703002 C589.219789,651.111785 633.318181,610.781848 664.509173,561.074223 C677.412044,540.507968 687.822624,518.653071 695.713748,495.957167 L715.294421,502.703315 C667.320641,640.945087 538.042929,733.245683 391,733.245683 C261.179009,733.245683 143.873802,661.233268 84.8578814,545.316633 L72.7518193,551.463676 C102.172629,609.253566 146.843726,658.045577 201.936722,692.560805 C258.584853,728.050426 323.961662,746.810324 391,746.810324 C468.032403,746.810324 541.429366,722.577094 603.252227,676.73313 C660.674531,634.153724 704.761603,574.173145 728.127118,507.123127 L747.642145,513.846667 C696.37021,661.294309 555.871527,767.43536 391,767.43536 C182.890273,767.43536 13.5819694,598.343073 13.5819694,390.49887 C13.5819694,184.926743 179.225405,17.2632658 384.209015,13.6234206 L384.209015,34.3094973 C352.130667,34.910863 320.421296,39.7308319 289.859601,48.7671432 L282.667948,50.8922702 L300.82025,95.3684655 L306.721616,93.6118446 C333.856127,85.5408835 359.847489,81.9417323 391,81.9417323 C448.182355,81.9417323 504.067632,97.7332345 552.607327,127.611616 L558.051433,130.962082 L585.561712,91.8687883 L579.481517,88.0752105 C524.891055,54.0166591 462.205738,35.5257934 397.790985,34.3049757 L397.790985,0 L391,0 C175.399817,0 0,175.176028 0,390.49887 C0,605.823972 175.399817,781 391,781 C606.597919,781 782,605.823972 782,390.49887 C782,292.444605 745.317364,198.62703 678.709122,126.325236 Z" id="Fill-5" fill="#E2E2E2"></path>
                <path d="M404,391.001051 C404,394.313715 398.179538,397 391.001117,397 C383.820462,397 378,394.313715 378,391.001051 C378,387.686285 383.820462,385 391.001117,385 C398.179538,385 404,387.686285 404,391.001051" id="Fill-6" fill="#1CB0A5"></path>
                <polyline id="Fill-7" fill="#DB766B" points="391 317 430 334.86333 391 348 391 317"></polyline>
                <path d="M391,392 C390.446,392 390,391.497675 390,390.873711 L390,315.126289 C390,314.504577 390.446,314 391,314 C391.552,314 392,314.504577 392,315.126289 L392,390.873711 C392,391.497675 391.552,392 391,392" id="Fill-8" fill="#264F5F"></path>
                <path d="M534.751576,428.899948 C520.116705,428.899948 504.314635,429.682605 489.477748,426.86993 C488.445227,426.698724 487.435151,426.478602 486.425076,426.234021 C482.519451,425.37799 478.70361,424.228462 475,422.712063 C479.354548,421.440245 483.574418,421.024458 487.816735,421 C488.737026,421 489.634871,421.024458 490.555162,421.048916 C493.540497,421.12229 496.570723,421.342413 499.690734,421.513619 C509.858827,422.12507 520.071812,422.687605 530.239906,423.299056 C530.441921,423.299056 530.62149,423.323514 530.823505,423.323514 C531.654011,423.37243 532.52941,423.421346 533.33747,423.665927 C534.055746,423.861591 534.706684,424.204004 535.222945,424.742081 C536.367697,425.916067 536.277912,428.459703 534.751576,428.899948" id="Fill-9" fill="#264F5F"></path>
                <path d="M532.139041,419.483107 C529.227094,418.034481 523.519401,417.149631 520.677174,419.230292 C520.616751,419.273271 520.558651,419.318777 520.498228,419.361756 C519.898641,419.799125 519.854486,420.547455 520.28907,421.133984 C521.367396,422.595251 523.779687,421.467699 525.234498,421.548599 C527.133189,421.654781 533.294058,421.907596 531.936854,425.446996 C531.574314,426.395049 532.824615,427.426531 533.577584,426.817249 C536.26178,424.645574 534.786053,420.800269 532.139041,419.483107" id="Fill-10" fill="#274F5F"></path>
                <path d="M491,420.05 C490.586957,421.75 490.173913,423.45 490,425.2 C489.978261,425.475 489.956522,425.75 489.956522,426 C488.956522,425.825 487.978261,425.6 487,425.35 C487.195652,423.525 487.695652,421.65 488.347826,420 C489.23913,420 490.108696,420.025 491,420.05" id="Fill-11" fill="#FFB073"></path>
                <path d="M514.134928,425.885001 C512.660834,423.024884 510.760028,420.488287 507.887143,419.01603 C506.602445,418.354921 506.047948,417.489852 504.450633,418.380709 C504.144861,418.549503 502.171035,420.560962 502.937747,420.97357 C501.340431,420.115534 499.284458,420.244474 497.798955,421.294747 C496.315733,422.347364 495.464593,424.274427 495.674525,426.112404 C492.771975,427.193154 490.818687,430.489322 491.215734,433.635452 C485.871573,441.214764 487.954928,450.310876 491.909425,457.953486 C492.128485,458.377815 492.402311,458.832621 492.849559,458.963905 C493.515868,459.160831 494.154794,458.518477 494.398955,457.850335 C494.643116,457.184537 494.675062,456.434342 495.02419,455.817775 C495.503385,454.980839 496.580431,454.565888 497.47721,454.875343 C498.876002,455.355937 499.718015,456.882114 501.340431,457.468204 C503.562982,458.272319 505.874525,458.115247 508.065129,457.301755 C516.793317,454.061851 522.472914,445.67139 523.819223,436.390074 C524.177478,433.926152 524.193451,430.156423 522.039357,428.438008 C520.225263,426.989194 517.571438,427.383047 517.176673,430.011073 C517.02835,431.007426 517.220028,432.017844 517.409424,433.007164 C516.327813,430.808155 515.351169,428.248115 514.134928,425.885001" id="Fill-12" fill="#FFB073"></path>
                <path d="M508.113002,421 C507.580804,420.711407 508.36773,419.64929 509,418.968022 C507.792319,418.310408 507.221456,417.510864 505.672621,418.383739 C505.404248,418.535132 503.83267,420.143683 504.014618,420.796566 C505.333743,420.276152 506.857559,420.318731 508.113002,421" id="Fill-13" fill="#ED924C"></path>
                <path d="M521.439252,433 C521.242991,432.082233 521.046729,431.144893 521.200935,430.220601 C521.310748,429.552936 521.60514,429.052731 522,428.689539 C521.063084,428.061021 519.941589,427.850065 519,428.106692 C519.850467,429.781291 520.614486,431.481987 521.439252,433" id="Fill-14" fill="#ED924C"></path>
                <path d="M505.752361,456.509126 C504.022236,455.963493 503.120621,454.542666 501.629302,454.095247 C500.671642,453.807153 499.519037,454.193461 499.009747,454.972624 C499.004874,454.981355 499.004874,454.990085 499,454.996632 C499.745659,455.553178 500.486445,456.181746 501.52452,456.509126 C503.327749,457.078766 505.184587,457.126782 507,456.786307 C506.583308,456.707736 506.166616,456.640078 505.752361,456.509126" id="Fill-15" fill="#ED924C"></path>
                <path d="M495.362144,433.01005 C494.954729,429.910384 496.961364,426.662895 499.939706,425.598107 C499.724292,423.787274 500.595316,421.888671 502.119609,420.851599 C502.391219,420.66682 502.697951,420.546714 503,420.421988 C501.412487,419.742926 499.483121,419.88151 498.054828,420.851599 C496.532876,421.888671 495.65951,423.787274 495.874925,425.598107 C492.896582,426.662895 490.892289,429.910384 491.299704,433.01005 C485.815995,440.477426 487.953751,449.439202 492.011509,456.968942 C492.236289,457.387004 492.517265,457.835093 492.976192,457.964438 C493.6599,458.158456 494.315509,457.525588 494.566046,456.867314 C494.788485,456.28526 494.865754,455.650083 495.125656,455.088817 C491.72585,447.979449 490.327996,439.865346 495.362144,433.01005" id="Fill-16" fill="#ED924C"></path>
                <path d="M643,910.844569 C662.617874,911.256415 682.251407,910.849223 701.837964,909.629974 C703.240519,909.541555 695.111516,896.055356 693.858835,895.003637 C688.760873,890.722305 681.721254,889.840443 675.679307,892.523257 C671.594673,894.335843 668.348888,897.916805 664.42755,900.127276 C657.486357,904.038646 650.115674,907.289201 643,910.844569" id="Fill-17" fill="#153845"></path>
                <path d="M748,905.844569 C767.617874,906.256415 787.251407,905.849223 806.837964,904.629974 C808.240519,904.541555 800.111516,891.055356 798.858835,890.003637 C793.760873,885.722305 786.721254,884.840443 780.679307,887.523257 C776.594673,889.335843 773.348888,892.916805 769.42755,895.127276 C762.486357,899.038646 755.115674,902.289201 748,905.844569" id="Fill-18" fill="#153845"></path>
                <path d="M693.756226,266.330003 C691.663521,265.003158 689.432362,263.896696 687.087715,263.046971 C676.596952,259.250468 664.542336,260.909024 655.038912,266.582194 C650.567514,269.25406 646.370755,272.752931 644.003411,277.446872 C642.012845,281.391054 637.850132,286.300834 636.826477,290.415416 C636.374798,292.228468 636.910457,294.432303 638.544674,295.334284 C635.294399,299.801026 632.402743,304.526774 629.903754,309.45473 C626.55361,316.06169 633.455905,315.798139 635.37384,320.735183 C637.502861,326.21069 634.443244,333.208433 636.497364,339.106531 C640.169812,349.653129 647.871057,342.450907 655.025294,347.951405 C658.559287,350.666439 660.94252,354.571997 663.820557,357.977717 C670.659299,366.072833 680.63029,371.448372 691.146019,372.709329 C701.664019,373.968014 712.620079,371.100757 721.174748,364.848228 C723.047288,363.478216 724.958414,361.658348 724.999269,359.338642 C725.060552,356.023802 721.256459,353.924479 717.947171,353.860863 C714.637882,353.799519 711.36037,354.96278 708.06697,354.617437 C701.779776,353.956287 699.86865,348.751147 696.638803,344.40255 C692.6554,339.038371 689.886311,334.437582 691.13694,327.321695 C692.240036,321.057806 696.089524,315.495964 701.005792,311.465445 C708.284865,305.496916 713.185245,300.425824 710.758888,290.694872 C708.284865,280.773072 702.467508,271.853221 693.756226,266.330003" id="Fill-19" fill="#FFB073"></path>
                <path d="M714.157878,354.30572 C716.106717,354.49172 718.051161,354.18172 720,353.92372 C719.323289,353.75972 718.631199,353.65172 717.954488,353.63972 C716.297866,353.61172 714.647834,353.87172 713,354.08772 C713.382298,354.16372 713.73823,354.26572 714.157878,354.30572" id="Fill-20" fill="#ED924C"></path>
                <path d="M697.778755,372.715552 C687.158498,371.45415 677.088394,366.076712 670.181674,357.978736 C667.277321,354.571814 664.868107,350.664876 661.298985,347.948884 C654.073635,342.446442 646.295838,349.651208 642.586886,339.100885 C640.512348,333.200704 643.602377,326.20049 641.454486,320.723049 C639.515194,315.784261 632.54429,316.047906 635.927734,309.438612 C638.451564,304.508916 641.374255,299.781498 644.654546,295.313179 C643.004085,294.410879 642.465393,292.206266 642.91927,290.392574 C643.9531,286.276538 648.159483,281.365024 650.167544,277.419449 C652.55842,272.72385 656.796895,269.223743 661.315032,266.550934 C666.568999,263.441747 672.600058,261.591691 678.720517,261.130313 C670.61492,260.455292 662.2778,262.423534 655.300019,266.550934 C650.781882,269.223743 646.543407,272.72385 644.152531,277.419449 C642.142178,281.365024 637.938087,286.276538 636.904257,290.392574 C636.448088,292.206266 636.989072,294.410879 638.639533,295.313179 C635.35695,299.781498 632.436551,304.508916 629.912722,309.438612 C626.529277,316.047906 633.500182,315.784261 635.439473,320.723049 C637.587365,326.20049 634.497335,333.200704 636.571873,339.100885 C640.280825,349.651208 648.058622,342.446442 655.283973,347.948884 C658.853094,350.664876 661.260016,354.571814 664.166661,357.978736 C671.073381,366.076712 681.143485,371.45415 691.763742,372.715552 C694.496172,373.038289 697.256109,373.081472 700,372.870102 C699.259585,372.822373 698.516878,372.801918 697.778755,372.715552" id="Fill-21" fill="#ED924C"></path>
                <path d="M705.435869,247.849946 C704.438399,246.891695 703.364889,246.024705 702.233231,245.271794 C695.067551,240.503353 686.195437,239.369422 677.652086,238.929083 C669.106498,238.488743 660.379756,238.593695 652.250153,235.876368 C649.130264,234.833699 645.847113,233.368944 642.693677,234.292972 C638.9185,235.399524 636.805027,239.583888 636.228015,243.54466 C634.917438,252.536251 639.430653,264.005606 645.299175,270.717928 C650.179173,276.29632 658.545843,277.398309 663.501881,282.901409 C666.400358,286.12524 667.543199,290.672371 667.500706,295.046103 C667.458213,299.419836 666.344446,303.700025 665.239625,307.925457 C666.01792,308.217495 666.798451,308.511815 667.576746,308.803854 C667.057883,308.607641 673.626423,298.892798 677.699052,299.5727 C681.697877,300.241194 683.574283,305.20813 683.205264,309.326329 C682.867556,313.088606 681.597235,318.571172 676.840244,318.032727 C678.412489,318.210687 680.461104,344.599103 692.549275,334.831784 C695.901757,332.121302 694.841666,329.800965 695.358293,326.038688 C696.000163,321.368354 698.475945,316.923893 701.175376,313.184431 C704.74256,308.242593 709.141715,303.982937 712.858744,299.155176 C716.578009,294.327415 719.675533,288.682858 719.979694,282.552332 C720.283855,276.421805 717.157257,269.816716 711.523566,267.656087 C713.845031,260.699639 710.749744,252.965183 705.435869,247.849946" id="Fill-22" fill="#264F5F"></path>
                <path d="M605.294519,699.724284 C598.408112,713.400228 591.349317,727.842206 592.047938,743.117808 C592.687584,757.09566 599.753184,769.874895 606.646396,782.077353 C628.094971,820.05232 649.545813,858.027286 670.996656,896 C670.772099,895.628249 692.998684,894.380065 695.105888,894.585092 C686.933382,868.199756 674.609979,844.351342 662.504327,819.662544 C651.256074,796.717598 640.264133,770.057392 647.747091,744.271364 C653.045724,726.008233 666.040529,718.643049 678.819851,706.391025 C691.968898,693.785274 705.483133,681.197547 715.071027,665.746207 C724.661189,650.292615 730.00065,631.290487 725.219178,613.770859 C721.553686,600.335989 710.169338,589.703899 697.28114,584.871132 C689.491969,581.951193 680.582282,581.08828 672.461946,583.07546 C663.921984,585.164027 662.275234,589.023482 658.110726,596.517088 C639.334151,630.294644 622.671584,665.209984 605.294519,699.724284" id="Fill-23" fill="#264F5F"></path>
                <path d="M697.137996,698.895981 C697.190517,701.675827 697.259021,704.453408 697.34351,707.228723 C697.718001,719.834318 696.663032,733.346139 697.932649,745.666273 C699.261637,758.546001 706.086972,770.369976 712.348286,781.44405 C733.943198,819.630122 755.538109,857.813928 777.133021,896 C785.088681,894.874015 793.04434,893.74803 801,892.62431 C796.860043,893.208826 773.634723,827.294523 771.21423,820.529551 C765.738434,805.221139 761.399814,789.534377 757.207337,773.843085 C754.8896,765.170508 751.199489,756.717691 750.304363,747.723404 C749.329315,737.952029 752.281861,727.36052 753.862032,717.702423 C757.588678,694.940307 762.80644,672.420607 769.478782,650.331363 C773.760315,636.155733 778.667523,621.039894 774.301501,606.886919 C769.364607,590.878448 751.660753,579.833826 734.9799,582.359929 C714.366886,585.477344 707.048319,603.400217 703.004268,621.062549 C697.206501,646.39608 696.649331,673.03684 697.137996,698.895981" id="Fill-24" fill="#264F5F"></path>
                <path d="M669.831738,631.041489 C681.427398,639.565199 696.911015,640.688933 711.316917,639.70257 C724.081238,638.826553 736.747791,636.547558 749.009633,632.921885 C757.485833,630.415441 766.560005,626.571327 770.313816,618.637633 C773.365066,612.19024 772.021334,604.319602 768.317543,598.219012 C764.61148,592.116171 758.836386,587.524402 752.822559,583.621736 C737.905083,573.938261 720.127345,567.612475 702.367796,569.260917 C674.488192,571.848432 636.91598,606.846313 669.831738,631.041489" id="Fill-25" fill="#153845"></path>
                <path d="M679.786896,362.43389 C694.593577,357.841336 709.984464,354.31156 725.46819,355.114296 C740.951916,355.917032 756.662079,361.468346 767.26157,372.767702 C778.680762,384.939891 782.897009,402.02799 786.071648,418.401542 C792.950788,453.873423 796.942863,490.148041 794.044477,526.162617 C792.717559,542.665058 789.912011,559.074789 785.362902,575.002878 C781.796528,587.49164 777.385545,606.42264 769.390073,616.806198 C753.636888,637.256743 708.546593,627.069911 688.049563,621.337699 C680.124286,619.121695 671.836711,616.335863 666.524512,610.058694 C656.294112,597.97017 660.861336,579.475587 658.49281,565.039908 C655.58763,547.336755 648.724341,529.649431 641.190799,513.452255 C631.542341,492.712273 619.015875,473.143607 612.453746,451.232309 C607.186834,433.64674 604.014459,404.924623 618.202968,390.16785 C632.355248,375.449518 661.031163,368.247507 679.786896,362.43389" id="Fill-26" fill="#264F5F"></path>
                <path d="M522.747964,445.945595 C524.353705,454.417965 518.062284,458.389114 510.260378,459.589439 C508.015062,459.950851 505.032647,460.093226 503.338454,461.733816 C501.843845,463.183844 500.859534,466.224084 499.736876,467.996098 C498.512158,468.07057 497.484756,467.067379 496.967653,465.991905 C496.452818,464.916431 496.266842,463.709534 495.708915,462.655964 C495.10336,461.508208 494.100906,460.612344 493.261748,459.609153 C487.258362,452.446628 504.368124,443.860359 509.14906,441.201244 C511.217472,440.049107 513.444644,438.861924 515.82604,439.013059 C519.398134,439.240858 522.101585,442.541753 522.747964,445.945595" id="Fill-27" fill="#DB766B"></path>
                <path d="M828.745385,445.957991 C833.500164,460.194885 837.036061,475.092907 840.127692,489.907156 C841.647308,497.186357 842.952765,504.791593 841.05951,511.984756 C837.888139,524.04355 826.669868,532.051803 815.975602,538.561197 C804.545451,545.516626 792.805453,551.969417 780.798896,557.894664 C773.904808,561.297662 753.728324,567.252342 756.373412,552.444886 C757.061454,548.600381 759.645028,545.34908 762.53617,542.702304 C771.526279,534.472166 783.824457,532.459348 793.431981,525.540145 C807.238383,515.596055 806.147085,501.918403 800.089127,487.710943 C787.501608,458.197916 774.638416,428.223005 754.097406,403.505421 C747.235214,395.248113 730.31212,367.960733 750.798451,363.307932 C755.329958,362.277749 760.007275,364.003022 764.217544,365.959236 C799.405642,382.304042 817.490661,412.276688 828.745385,445.957991" id="Fill-28" fill="#264F5F"></path>
                <path d="M588.532032,466.845018 C585.422473,480.5101 582.08123,493.148091 576.972831,502.462204 C573.702001,508.420697 568.570888,514.67394 561.768017,514.406398 C554.354138,514.116182 549.77952,506.439067 546.608633,499.741431 C542.0908,490.200587 537.825093,480.48516 533.036963,471.07582 C529.559435,464.23761 528.916626,458.304058 526.19775,451.397829 C524.653191,447.477648 521.207464,444.004128 516.998542,443.709378 C512.855492,443.419162 509.168995,446.126331 505.909523,448.697462 C502.522851,451.366086 499.992502,454.674093 496.966985,457.725893 C496.124292,458.576135 495.238442,459.508 495.04083,460.687001 C494.834131,461.938557 495.449683,463.162905 496.044792,464.282956 C501.998156,475.47667 507.383667,486.568355 512.72375,498.03868 C518.095633,509.577025 525.159716,520.122288 530.831424,531.447506 C539.578621,545.765574 553.847614,563.423391 572.63671,561.908827 C587.664354,560.698083 598.324077,547.094218 606.083211,534.190952 C618.853073,512.950784 626.028455,490.300349 636.413338,468.128316 C643.393378,453.225281 653.030967,439.712109 659.186486,424.389622 C663.459007,413.753667 670.568518,387.829234 657.523815,380.136248 C654.611868,378.419894 651.116169,377.95963 647.734041,378.002709 C604.67948,378.546863 597.58814,427.053712 588.532032,466.845018" id="Fill-29" fill="#264F5F"></path>
                <path d="M500.500383,449 C498.501912,449 498.497834,452 500.500383,452 C502.498853,452 502.500892,449 500.500383,449" id="Fill-30" fill="#264F5F"></path>
                <path d="M225.672077,972.966441 C225.338796,973.68052 224.894422,974.212579 224.338954,974.557951 C223.781122,974.905656 223.166562,975.080676 222.492909,975.080676 C221.828711,975.080676 221.216514,974.896322 220.653955,974.529948 C220.09376,974.165907 219.651749,973.624514 219.330287,972.903434 C219.006461,972.182354 218.84573,971.30959 218.84573,970.285143 C218.84573,969.314368 218.997006,968.462607 219.301922,967.727525 C219.604475,966.992444 220.032304,966.430048 220.585408,966.040338 C221.138512,965.648294 221.764891,965.449939 222.464545,965.449939 C223.138197,965.449939 223.757485,965.641293 224.324772,966.024003 C224.889694,966.409045 225.338796,966.962107 225.672077,967.685521 C226.002994,968.411268 226.168453,969.277031 226.168453,970.285143 C226.168453,971.353928 226.002994,972.250028 225.672077,972.966441 Z M228.189411,957 C227.610306,957 227.163568,957.198355 226.85156,957.595066 C226.537189,957.99411 226.381185,958.579842 226.381185,959.354595 L226.381185,964.936549 C225.660258,964.164129 224.920422,963.587732 224.16404,963.212024 C223.405295,962.840982 222.473999,962.651961 221.370154,962.651961 C219.462654,962.651961 217.923889,963.312368 216.753861,964.630848 C215.586196,965.951661 215,967.797533 215,970.161462 C215,971.27692 215.148913,972.315368 215.442011,973.276809 C215.737472,974.238249 216.170028,975.073675 216.742042,975.785421 C217.311692,976.494833 217.987709,977.043227 218.767728,977.425936 C219.547747,977.810979 220.396313,978 221.315789,978 C222.008352,978 222.644185,977.90899 223.230381,977.715302 C223.814214,977.528614 224.357863,977.250917 224.856603,976.884543 C225.357706,976.520502 225.8659,976.046783 226.381185,975.465718 L226.381185,975.839093 C226.381185,976.53217 226.551371,977.064229 226.891743,977.439938 C227.234478,977.813313 227.667034,978 228.189411,978 C228.723605,978 229.158525,977.820313 229.49417,977.46094 C229.832178,977.101567 230,976.560173 230,975.839093 L230,959.160907 C230,958.449161 229.843996,957.912435 229.529625,957.548394 C229.215254,957.18202 228.770879,957 228.189411,957 Z" id="Fill-31" fill="#FEFEFE"></path>
                <path d="M237.031159,969.327273 C237.167478,968.084091 237.549659,967.145455 238.180136,966.511364 C238.810613,965.877273 239.618793,965.561364 240.599805,965.561364 C241.631938,965.561364 242.462025,965.875 243.092502,966.5 C243.72298,967.125 244.090555,968.065909 244.185492,969.327273 L237.031159,969.327273 Z M247.148004,971.006818 C247.71519,970.729545 248,970.131818 248,969.202273 C248,968.206818 247.722493,967.225 247.174781,966.263636 C246.627069,965.302273 245.799416,964.515909 244.696689,963.909091 C243.593963,963.3 242.272152,963 240.731256,963 C239.545764,963 238.467381,963.177273 237.493671,963.531818 C236.519961,963.888636 235.702045,964.397727 235.037488,965.061364 C234.372931,965.727273 233.866602,966.527273 233.520935,967.459091 C233.172833,968.388636 233,969.397727 233,970.486364 C233,972.797727 233.703505,974.629545 235.110516,975.977273 C236.515093,977.325 238.486855,978 241.0185,978 C242.12853,978 243.107108,977.865909 243.959104,977.595455 C244.813535,977.325 245.519474,976.986364 246.084226,976.577273 C246.646543,976.168182 247.067673,975.740909 247.350049,975.295455 C247.627556,974.85 247.768744,974.461364 247.768744,974.129545 C247.768744,973.75 247.642162,973.461364 247.391431,973.252273 C247.143135,973.045455 246.814508,972.940909 246.410419,972.940909 C246.033106,972.940909 245.743427,973.022727 245.541383,973.184091 C245.049659,973.613636 244.650438,973.956818 244.34372,974.209091 C244.034567,974.461364 243.698637,974.7 243.333496,974.918182 C242.96592,975.140909 242.588608,975.3 242.196689,975.404545 C241.807205,975.509091 241.376339,975.556818 240.90409,975.556818 C240.200584,975.556818 239.557936,975.397727 238.97371,975.072727 C238.391918,974.75 237.924537,974.268182 237.574002,973.629545 C237.221032,972.990909 237.040896,972.254545 237.031159,971.418182 L244.747809,971.418182 C245.779942,971.418182 246.578384,971.279545 247.148004,971.006818 Z" id="Fill-32" fill="#FEFEFE"></path>
                <path d="M256.904968,970.000304 C256.215983,969.613295 255.328294,969.280923 254.24406,968.998634 C253.328294,968.764152 252.611231,968.568372 252.090713,968.406739 C251.568035,968.245105 251.153348,968.040219 250.844492,967.789801 C250.537797,967.543937 250.384449,967.2275 250.384449,966.838215 C250.384449,966.414782 250.593952,966.061921 251.012959,965.779633 C251.431965,965.492791 251.956803,965.351647 252.589633,965.351647 C253.205184,965.351647 253.693305,965.458643 254.051836,965.674913 C254.412527,965.893459 254.721382,966.182577 254.987041,966.542267 C255.313175,966.974806 255.600432,967.298073 255.853132,967.512066 C256.103672,967.730612 256.410367,967.839885 256.768898,967.839885 C257.265659,967.839885 257.647948,967.701017 257.917927,967.434664 C258.185745,967.163758 258.319654,966.81545 258.319654,966.392017 C258.319654,966.005008 258.194384,965.608894 257.941685,965.201396 C257.691145,964.798452 257.323974,964.427379 256.840173,964.095007 C256.358531,963.762635 255.75378,963.494005 255.030238,963.298224 C254.311015,963.09789 253.4946,963 252.589633,963 C251.434125,963 250.451404,963.195781 249.634989,963.589619 C248.818575,963.981181 248.200864,964.507057 247.781857,965.162695 C247.362851,965.82061 247.153348,966.519502 247.153348,967.257095 C247.153348,968.085749 247.38013,968.784641 247.833693,969.353771 C248.285097,969.918349 248.889849,970.378206 249.647948,970.721961 C250.403888,971.070269 251.384449,971.402641 252.589633,971.716801 C253.658747,971.987707 254.425486,972.272272 254.889849,972.56822 C255.358531,972.866444 255.589633,973.337684 255.589633,973.986493 C255.589633,974.409926 255.365011,974.785552 254.917927,975.115647 C254.468683,975.443466 253.894168,975.609652 253.192225,975.609652 C252.328294,975.609652 251.647948,975.445743 251.146868,975.122477 C250.647948,974.796934 250.215983,974.309759 249.857451,973.649567 C249.680346,973.308089 249.490281,973.041736 249.293737,972.852785 C249.097192,972.663834 248.816415,972.56822 248.449244,972.56822 C248.030238,972.56822 247.682505,972.713917 247.410367,973.000759 C247.136069,973.289877 247,973.635908 247,974.041129 C247,974.653513 247.213823,975.263621 247.641469,975.873729 C248.066955,976.479284 248.730022,976.986948 249.62851,977.392169 C250.524838,977.79739 251.602592,978 252.859611,978 C254.174946,978 255.293737,977.815602 256.211663,977.439976 C257.12959,977.066626 257.825054,976.515708 258.293737,975.791774 C258.766739,975.065564 259,974.193656 259,973.176051 C259,972.499924 258.822894,971.898922 258.468683,971.373046 C258.112311,970.844893 257.591793,970.385036 256.904968,970.000304" id="Fill-33" fill="#FEFEFE"></path>
                <path d="M263.484269,963 C263.0438,963 262.686613,963.184398 262.412708,963.553195 C262.136952,963.924268 262,964.475186 262,965.201396 L262,975.757626 C262,976.477007 262.136952,977.032478 262.412708,977.419487 C262.686613,977.806496 263.0438,978 263.484269,978 C263.924738,978 264.285626,977.811049 264.572486,977.433146 C264.857495,977.055244 265,976.495219 265,975.757626 L265,965.0944 C265,964.438762 264.857495,963.924268 264.572486,963.553195 C264.285626,963.184398 263.924738,963 263.484269,963" id="Fill-34" fill="#FEFEFE"></path>
                <path d="M263.517582,958 C263.114127,958 262.760642,958.139975 262.457125,958.421816 C262.153609,958.703657 262,959.059269 262,959.494325 C262,959.974779 262.149907,960.345523 262.446021,960.606557 C262.742134,960.867591 263.099321,961 263.517582,961 C263.919186,961 264.267119,960.8657 264.559531,960.600883 C264.853794,960.334174 265,959.965322 265,959.494325 C265,959.006305 264.850093,958.637453 264.548427,958.382093 C264.248612,958.126734 263.90438,958 263.517582,958" id="Fill-35" fill="#FEFEFE"></path>
                <path d="M277.717336,972.195263 C277.359064,972.874792 276.896394,973.383854 276.326953,973.722451 C275.759886,974.056377 275.157229,974.226843 274.518981,974.226843 C273.439418,974.226843 272.559158,973.834538 271.878203,973.047593 C271.197248,972.262982 270.857956,971.102413 270.857956,969.56822 C270.857956,968.055043 271.187757,966.885133 271.849731,966.06316 C272.511705,965.241188 273.391965,964.827866 274.490509,964.827866 C275.617526,964.827866 276.526258,965.259869 277.216704,966.119204 C277.90715,966.976204 278.251186,968.178806 278.251186,969.72234 C278.251186,970.691427 278.073236,971.515734 277.717336,972.195263 Z M280.154065,962 C279.636824,962 279.214489,962.179807 278.884688,962.53942 C278.554888,962.901368 278.391174,963.41043 278.391174,964.064272 L278.391174,964.58034 C277.707846,963.702324 276.965201,963.057823 276.167985,962.644501 C275.368396,962.23585 274.424075,962.028022 273.335021,962.028022 C272.423916,962.028022 271.588738,962.186812 270.829484,962.506727 C270.067858,962.824308 269.396394,963.298343 268.81509,963.926498 C268.233787,964.554654 267.785353,965.327588 267.469788,966.242967 C267.154223,967.15601 267,968.183476 267,969.320694 C267,970.845547 267.256248,972.188258 267.773489,973.353497 C268.288358,974.518737 269.02863,975.42244 269.98956,976.069276 C270.952863,976.716113 272.077507,977.040698 273.363493,977.040698 C274.433565,977.040698 275.356533,976.8282 276.130022,976.403202 C276.908257,975.978205 277.589212,975.359391 278.180006,974.544423 C278.161025,975.784388 278.134926,976.681085 278.096963,977.241521 C278.059,977.801957 277.930876,978.325031 277.710218,978.813077 C277.48956,979.303458 277.105188,979.686423 276.55473,979.9573 C276.004271,980.232848 275.233154,980.368286 274.236634,980.368286 C273.750237,980.368286 273.316039,980.321583 272.941158,980.235183 C272.566276,980.146447 272.243594,980.013344 271.975482,979.835872 C271.709744,979.653731 271.465359,979.438897 271.242328,979.18203 C271.02167,978.929834 270.80813,978.675303 270.604081,978.425442 C270.179374,977.937396 269.688232,977.692205 269.123537,977.692205 C268.675103,977.692205 268.288358,977.836984 267.970421,978.128878 C267.650111,978.418437 267.488769,978.796731 267.488769,979.25909 C267.488769,979.868564 267.773489,980.461692 268.335811,981.04081 C268.900506,981.617591 269.702468,982.086957 270.744068,982.453575 C271.785669,982.817858 272.96963,983 274.293578,983 C275.740905,983 276.948592,982.857556 277.921386,982.570332 C278.891806,982.285444 279.677159,981.844101 280.279817,981.255643 C280.880101,980.66485 281.319045,979.912932 281.589529,979.009229 C281.862385,978.103191 282,977.022017 282,975.765707 L282,964.774158 C282,963.87746 281.876621,963.190926 281.632237,962.714556 C281.387852,962.238185 280.894337,962 280.154065,962 Z" id="Fill-36" fill="#FEFEFE"></path>
                <path d="M296.421672,965.431325 C296.050372,964.659584 295.483296,964.060859 294.727194,963.635149 C293.968842,963.211716 293.111477,963 292.148347,963 C291.160464,963 290.285096,963.200334 289.524494,963.601002 C288.761641,964.003946 288.059546,964.632266 287.42046,965.485961 L287.42046,965.039763 C287.42046,964.600395 287.3417,964.224769 287.186429,963.917438 C287.031158,963.614661 286.82188,963.384732 286.565345,963.229929 C286.30656,963.077402 286.016271,963 285.696728,963 C285.170158,963 284.756102,963.173016 284.454561,963.519047 C284.15077,963.867355 284,964.393231 284,965.0944 L284,975.757626 C284,976.477007 284.171023,977.032478 284.508568,977.419487 C284.846114,977.806496 285.278172,978 285.804743,978 C286.347066,978 286.790376,977.815602 287.132422,977.439976 C287.474468,977.066626 287.647741,976.504325 287.647741,975.757626 L287.647741,971.136288 C287.647741,969.631507 287.735503,968.604796 287.913277,968.053878 C288.16306,967.370921 288.554613,966.831386 289.090185,966.439824 C289.623507,966.045986 290.217587,965.850205 290.865674,965.850205 C291.864809,965.850205 292.528648,966.175747 292.863943,966.817727 C293.196988,967.461982 293.365761,968.393079 293.365761,969.608742 L293.365761,975.757626 C293.365761,976.477007 293.532283,977.032478 293.872079,977.419487 C294.209624,977.806496 294.650684,978 295.195257,978 C295.728579,978 296.162887,977.811049 296.495932,977.433146 C296.831227,977.055244 297,976.495219 297,975.757626 L297,968.891638 C297,968.081196 296.961745,967.416452 296.889735,966.892852 C296.819976,966.371528 296.664705,965.882076 296.421672,965.431325" id="Fill-37" fill="#FEFEFE"></path>
                <path d="M303.031159,969.327273 C303.167478,968.084091 303.547225,967.145455 304.180136,966.511364 C304.810613,965.877273 305.618793,965.561364 306.60224,965.561364 C307.631938,965.561364 308.462025,965.875 309.094937,966.5 C309.725414,967.125 310.088121,968.065909 310.185492,969.327273 L303.031159,969.327273 Z M313.148004,971.006818 C313.71519,970.729545 314,970.131818 314,969.202273 C314,968.206818 313.724927,967.225 313.177215,966.263636 C312.627069,965.302273 311.799416,964.515909 310.696689,963.909091 C309.593963,963.3 308.272152,963 306.731256,963 C305.545764,963 304.467381,963.177273 303.493671,963.531818 C302.522395,963.888636 301.702045,964.397727 301.037488,965.061364 C300.372931,965.727273 299.866602,966.527273 299.520935,967.459091 C299.172833,968.388636 299,969.397727 299,970.486364 C299,972.797727 299.703505,974.629545 301.108082,975.977273 C302.517527,977.325 304.486855,978 307.020935,978 C308.12853,978 309.107108,977.865909 309.961538,977.595455 C310.813535,977.325 311.519474,976.986364 312.084226,976.577273 C312.648978,976.168182 313.070107,975.740909 313.350049,975.295455 C313.62999,974.85 313.768744,974.461364 313.768744,974.129545 C313.768744,973.75 313.644596,973.461364 313.393866,973.252273 C313.143135,973.045455 312.814508,972.940909 312.410419,972.940909 C312.033106,972.940909 311.745862,973.022727 311.543817,973.184091 C311.052093,973.613636 310.652872,973.956818 310.346154,974.209091 C310.034567,974.461364 309.698637,974.7 309.333496,974.918182 C308.96592,975.140909 308.586173,975.3 308.199124,975.404545 C307.807205,975.509091 307.376339,975.556818 306.90409,975.556818 C306.200584,975.556818 305.557936,975.397727 304.976144,975.072727 C304.391918,974.75 303.924537,974.268182 303.574002,973.629545 C303.221032,972.990909 303.04333,972.254545 303.031159,971.418182 L310.747809,971.418182 C311.779942,971.418182 312.578384,971.279545 313.148004,971.006818 Z" id="Fill-38" fill="#FEFEFE"></path>
                <path d="M325.669713,972.966441 C325.338796,973.68052 324.894422,974.212579 324.33659,974.557951 C323.781122,974.905656 323.166562,975.080676 322.492909,975.080676 C321.828711,975.080676 321.216514,974.896322 320.656319,974.529948 C320.09376,974.165907 319.651749,973.624514 319.327923,972.903434 C319.006461,972.182354 318.84573,971.30959 318.84573,970.285143 C318.84573,969.314368 318.997006,968.462607 319.299559,967.727525 C319.604475,966.992444 320.032304,966.430048 320.585408,966.040338 C321.136149,965.648294 321.764891,965.449939 322.464545,965.449939 C323.138197,965.449939 323.757485,965.641293 324.324772,966.024003 C324.889694,966.409045 325.338796,966.962107 325.669713,967.685521 C326.002994,968.411268 326.168453,969.277031 326.168453,970.285143 C326.168453,971.353928 326.002994,972.250028 325.669713,972.966441 Z M328.189411,957 C327.610306,957 327.161204,957.198355 326.849196,957.595066 C326.537189,957.99411 326.378821,958.579842 326.378821,959.354595 L326.378821,964.936549 C325.660258,964.164129 324.920422,963.587732 324.16404,963.212024 C323.405295,962.840982 322.473999,962.651961 321.370154,962.651961 C319.462654,962.651961 317.923889,963.312368 316.753861,964.630848 C315.583832,965.951661 315,967.797533 315,970.161462 C315,971.27692 315.146549,972.315368 315.442011,973.276809 C315.737472,974.238249 316.170028,975.073675 316.739679,975.785421 C317.311692,976.494833 317.987709,977.043227 318.767728,977.425936 C319.547747,977.810979 320.396313,978 321.315789,978 C322.005988,978 322.646549,977.90899 323.230381,977.715302 C323.814214,977.528614 324.3555,977.250917 324.856603,976.884543 C325.357706,976.520502 325.863536,976.046783 326.378821,975.465718 L326.378821,975.839093 C326.378821,976.53217 326.549007,977.064229 326.891743,977.439938 C327.234478,977.813313 327.667034,978 328.189411,978 C328.723605,978 329.158525,977.820313 329.49417,977.46094 C329.832178,977.101567 330,976.560173 330,975.839093 L330,959.160907 C330,958.449161 329.843996,957.912435 329.529625,957.548394 C329.215254,957.18202 328.768516,957 328.189411,957 Z" id="Fill-39" fill="#FEFEFE"></path>
                <path d="M346.097884,973.839204 C345.401642,974.665296 344.568045,975.080676 343.6042,975.080676 C342.469845,975.080676 341.553363,974.672297 340.854752,973.864874 C340.15851,973.057451 339.80802,971.902322 339.80802,970.397155 C339.80802,969.370374 339.971424,968.483609 340.3006,967.741527 C340.627408,966.999444 341.07736,966.430048 341.650458,966.040338 C342.221187,965.648294 342.872434,965.449939 343.6042,965.449939 C344.314651,965.449939 344.939848,965.648294 345.475055,966.040338 C346.007894,966.430048 346.419956,966.987776 346.711241,967.708857 C347.002526,968.427603 347.146985,969.288699 347.146985,970.285143 C347.146985,971.827648 346.796495,973.010779 346.097884,973.839204 Z M347.96874,963.543394 C347.007262,962.950661 345.891853,962.651961 344.615409,962.651961 C343.511841,962.651961 342.581149,962.847983 341.832807,963.240027 C341.082097,963.63207 340.345595,964.199133 339.625671,964.936549 L339.625671,959.160907 C339.625671,958.46783 339.464635,957.935771 339.1473,957.560062 C338.829965,957.186687 338.375276,957 337.783233,957 C337.221977,957 336.783865,957.198355 336.468898,957.588065 C336.156299,957.980109 336,958.561173 336,959.326592 L336,975.839093 C336,976.550839 336.161036,977.089899 336.483107,977.456273 C336.807547,977.820313 337.240922,978 337.783233,978 C338.31844,978 338.75892,977.820313 339.104673,977.456273 C339.452794,977.089899 339.625671,976.550839 339.625671,975.839093 L339.625671,975.465718 C340.047206,975.946438 340.388222,976.308145 340.646353,976.546172 C340.902116,976.786532 341.214714,977.019891 341.579413,977.24625 C341.944111,977.472608 342.386959,977.654628 342.907957,977.79231 C343.426587,977.932326 343.983107,978 344.57515,978 C345.538996,978 346.422324,977.810979 347.225134,977.425936 C348.025576,977.043227 348.70761,976.4995 349.268866,975.797089 C349.832491,975.097011 350.26113,974.268585 350.557152,973.311812 C350.850805,972.355039 351,971.307256 351,970.161462 C351,968.609623 350.732397,967.265474 350.204294,966.136015 C349.673824,965.004223 348.92785,964.143127 347.96874,963.543394 Z" id="Fill-40" fill="#FEFEFE"></path>
                <path d="M364.134051,962.228845 C363.857632,962.074725 363.571429,962 363.270548,962 C362.854697,962 362.5318,962.070054 362.304305,962.210163 C362.07681,962.345602 361.861546,962.614144 361.658513,963.01112 C361.455479,963.41043 361.227984,963.961526 360.976027,964.659735 L357.795988,973.325475 L354.44227,964.008229 C354.219667,963.361392 353.962818,962.86634 353.671722,962.520738 C353.380626,962.172801 352.950098,962 352.380137,962 C352.049902,962 351.731898,962.08173 351.428571,962.249861 C351.122798,962.415657 350.883072,962.637496 350.709393,962.915379 C350.535714,963.193261 350.447652,963.492161 350.447652,963.816746 C350.447652,964.120316 350.599315,964.613032 350.89775,965.285555 L355.777886,977.012677 L355.415851,977.858001 C355.144325,978.476815 354.904599,978.948516 354.696673,979.263761 C354.486301,979.583676 354.251468,979.807851 353.992172,979.936284 C353.730431,980.067052 353.370841,980.132436 352.915851,980.132436 C352.732387,980.132436 352.514677,980.104415 352.26272,980.048371 C352.059687,979.992327 351.851761,979.964306 351.638943,979.964306 C351.098337,979.964306 350.687378,980.083398 350.413405,980.319248 C350.13454,980.555098 350,980.889025 350,981.323363 C350,981.960858 350.28865,982.399867 350.870841,982.642722 C351.450587,982.880907 352.321429,983 353.483366,983 C354.674658,983 355.618885,982.829534 356.320939,982.481597 C357.02544,982.135995 357.588063,981.636273 358.013699,980.989436 C358.439335,980.3426 358.874755,979.452908 359.322407,978.31569 L364.491194,965.395307 C364.615949,965.066051 364.721135,964.73446 364.809198,964.412209 C364.89726,964.087624 364.958415,963.837763 365,963.662626 C365,963.375403 364.921722,963.104526 364.772505,962.845324 C364.623288,962.586123 364.41047,962.380629 364.134051,962.228845" id="Fill-41" fill="#FEFEFE"></path>
                <path d="M413.995981,957 C412.868415,957 411.977787,957.158631 411.330442,957.475894 C410.680982,957.79549 410.21557,958.301711 409.944785,958.999222 C409.671885,959.699067 409.540724,960.636858 409.540724,961.824261 L409.540724,962.958009 L408.722022,962.958009 C407.573302,962.958009 407,963.408243 407,964.31804 C407,964.721617 407.137508,965.05521 407.414639,965.304821 C407.693886,965.563764 408.083139,965.687403 408.597208,965.687403 L409.540724,965.687403 L409.540724,975.70451 C409.540724,976.448678 409.699387,977.017885 410.020944,977.407465 C410.348847,977.804044 410.750793,978 411.235244,978 C411.749312,978 412.161836,977.804044 412.481278,977.407465 C412.811297,977.017885 412.96996,976.448678 412.96996,975.70451 L412.96996,965.687403 L413.805585,965.687403 C414.421197,965.687403 414.899302,965.603421 415.246245,965.437792 C415.597419,965.272162 415.764544,964.875583 415.764544,964.264386 C415.764544,963.391913 415.117199,962.958009 413.805585,962.958009 L412.96996,962.958009 L412.96996,962.059876 C412.96996,961.306376 413.060927,960.732504 413.228052,960.33126 C413.412101,959.932348 413.805585,959.727061 414.425428,959.727061 C414.649672,959.727061 414.935265,959.75972 415.24836,959.808709 C415.57838,959.86703 415.813201,959.895023 415.946478,959.895023 C416.229956,959.895023 416.479585,959.769051 416.682674,959.521773 C416.89634,959.272162 417,958.971229 417,958.623639 C417,957.534215 416.005712,957 413.995981,957" id="Fill-42" fill="#FEFEFE"></path>
                <path d="M425.026044,963.580337 C424.377414,963.19117 423.716659,963 423.023574,963 C422.33251,963 421.788954,963.19117 421.368657,963.580337 C420.960485,963.969504 420.560395,964.538462 420.172429,965.298589 C420.14414,964.538462 420.010777,963.969504 419.770319,963.580337 C419.529861,963.19117 419.139874,963 418.592277,963 C417.529412,963 417,963.828402 417,965.487483 L417,975.760583 C417,976.497952 417.157611,977.05553 417.454648,977.431042 C417.757746,977.813382 418.143691,978 418.624607,978 C419.103502,978 419.49753,977.817934 419.808711,977.440146 C420.11383,977.069185 420.281545,976.504779 420.281545,975.760583 L420.281545,972.676832 C420.281545,971.570778 420.309834,970.628584 420.372474,969.859354 C420.439156,969.092399 420.552313,968.423305 420.715986,967.861174 C420.885721,967.308147 421.122137,966.89167 421.429277,966.600364 C421.730355,966.322713 422.126403,966.17706 422.605299,966.17706 C422.952851,966.17706 423.361024,966.261265 423.821733,966.422849 C424.278401,966.588985 424.569376,966.677742 424.696677,966.677742 C425.01392,966.677742 425.310956,966.532089 425.587786,966.233955 C425.860575,965.949477 426,965.571689 426,965.12335 C426,964.486117 425.676695,963.969504 425.026044,963.580337" id="Fill-43" fill="#FEFEFE"></path>
                <path d="M431.034063,969.32667 C431.167883,968.086324 431.552311,967.152658 432.182482,966.518855 C432.815085,965.880509 433.622871,965.569287 434.603406,965.569287 C435.639903,965.569287 436.462287,965.878237 437.097324,966.505225 C437.729927,967.125398 438.090024,968.070423 438.184915,969.32667 L431.034063,969.32667 Z M441.145985,971.007724 C441.712895,970.730577 442,970.13085 442,969.210813 C442,968.208996 441.725061,967.232167 441.175182,966.266697 C440.635036,965.303498 439.800487,964.517492 438.698297,963.917765 C437.596107,963.304407 436.272506,963 434.734793,963 C433.547445,963 432.469586,963.177192 431.498783,963.531577 C430.523114,963.885961 429.710462,964.394821 429.048662,965.062699 C428.377129,965.732849 427.871046,966.523398 427.527981,967.459337 C427.177616,968.390731 427,969.401636 427,970.489777 C427,972.797819 427.710462,974.628805 429.116788,975.980463 C430.520681,977.32985 432.486618,978 435.026764,978 C436.128954,978 437.114355,977.863698 437.963504,977.593367 C438.812652,977.32985 439.520681,976.984552 440.090024,976.580191 C440.656934,976.169014 441.075426,975.744207 441.360097,975.294412 C441.632603,974.851431 441.766423,974.465243 441.766423,974.131304 C441.766423,973.751931 441.649635,973.463426 441.396594,973.25443 C441.141119,973.045434 440.817518,972.938664 440.408759,972.938664 C440.038929,972.938664 439.749392,973.024989 439.545012,973.186279 C439.053528,973.615629 438.652068,973.958655 438.343066,974.20627 C438.034063,974.465243 437.703163,974.699228 437.333333,974.91731 C436.96837,975.137665 436.586375,975.301227 436.201946,975.401181 C435.810219,975.512494 435.381995,975.557928 434.909976,975.557928 C434.201946,975.557928 433.564477,975.39891 432.980535,975.076329 C432.394161,974.749205 431.931873,974.265334 431.574209,973.633803 C431.223844,972.995457 431.048662,972.254884 431.034063,971.4189 L438.751825,971.4189 C439.781022,971.4189 440.579075,971.282599 441.145985,971.007724 Z" id="Fill-44" fill="#FEFEFE"></path>
                <path d="M446.038274,969.32667 C446.164775,968.086324 446.551573,967.152658 447.179209,966.518855 C447.814142,965.880509 448.619364,965.569287 449.602173,965.569287 C450.636069,965.569287 451.45832,965.878237 452.098119,966.505225 C452.723321,967.125398 453.088226,968.070423 453.185534,969.32667 L446.038274,969.32667 Z M453.70613,963.917765 C452.589523,963.304407 451.26857,963 449.733539,963 C448.551249,963 447.466267,963.177192 446.495621,963.531577 C445.52011,963.885961 444.705157,964.394821 444.043464,965.062699 C443.376906,965.732849 442.873338,966.523398 442.527895,967.459337 C442.175154,968.390731 442,969.401636 442,970.489777 C442,972.797819 442.705482,974.628805 444.11158,975.980463 C445.52011,977.32985 447.485728,978 450.020597,978 C451.125041,978 452.112715,977.863698 452.961726,977.593367 C453.805871,977.32985 454.521083,976.984552 455.083036,976.580191 C455.654719,976.169014 456.075576,975.744207 456.345605,975.294412 C456.63023,974.851431 456.761596,974.465243 456.761596,974.131304 C456.761596,973.751931 456.647259,973.463426 456.396692,973.25443 C456.141259,973.045434 455.815277,972.938664 455.406584,972.938664 C455.039247,972.938664 454.747324,973.024989 454.542978,973.186279 C454.04914,973.615629 453.647746,973.958655 453.343659,974.20627 C453.034706,974.465243 452.70386,974.699228 452.33409,974.91731 C451.96432,975.137665 451.587253,975.301227 451.195589,975.401181 C450.811223,975.512494 450.378203,975.557928 449.911126,975.557928 C449.203211,975.557928 448.558547,975.39891 447.977133,975.076329 C447.395718,974.749205 446.928641,974.265334 446.5759,973.633803 C446.228025,972.995457 446.048005,972.254884 446.038274,971.4189 L453.752352,971.4189 C454.778949,971.4189 455.576873,971.282599 456.146124,971.007724 C456.708077,970.730577 457,970.13085 457,969.210813 C457,968.208996 456.717807,967.232167 456.172884,966.266697 C455.630392,965.303498 454.800843,964.517492 453.70613,963.917765 Z" id="Fill-45" fill="#FEFEFE"></path>
                <path d="M468.653409,972.272424 C468.331439,973.003001 467.895833,973.546849 467.346591,973.915639 C466.804451,974.275092 466.210227,974.459486 465.575758,974.459486 C464.500947,974.459486 463.61553,974.044015 462.893466,973.208403 C462.166667,972.370457 461.804451,971.194065 461.804451,969.697899 C461.804451,968.096699 462.171402,966.885295 462.898201,966.05902 C463.625,965.244415 464.519886,964.828943 465.575758,964.828943 C466.241004,964.828943 466.856534,965.025008 467.398674,965.407803 C467.943182,965.788263 468.371686,966.334445 468.679451,967.053351 C468.987216,967.767589 469.145833,968.626542 469.145833,969.625542 C469.145833,970.657219 468.980114,971.539513 468.653409,972.272424 Z M469.78267,962.926642 C468.788352,962.331444 467.692235,962.025675 466.515625,962.025675 C465.533144,962.025675 464.64536,962.235745 463.878314,962.648883 C463.094697,963.062021 462.341856,963.703901 461.622159,964.581527 L461.622159,964.12871 C461.622159,963.435478 461.456439,962.914972 461.108428,962.546182 C460.767519,962.182061 460.329545,962 459.78267,962 C459.231061,962 458.79072,962.182061 458.473485,962.529843 C458.15625,962.893965 458,963.423808 458,964.147382 L458,980.476826 C458,981.303101 458.120739,981.923975 458.345644,982.358119 C458.587121,982.787596 459.055871,983 459.78267,983 C461.006629,983 461.622159,982.162054 461.622159,980.504835 L461.622159,974.828276 C462.30161,975.661554 463.011837,976.305769 463.755208,976.732911 C464.496212,977.167056 465.424242,977.384128 466.515625,977.384128 C467.427083,977.384128 468.269886,977.206736 469.072443,976.854285 C469.863163,976.497166 470.544981,975.985995 471.127367,975.327776 C471.707386,974.667222 472.171402,973.852618 472.502841,972.879293 C472.83428,971.9013 473,970.827609 473,969.667556 C473,968.085028 472.708807,966.721907 472.133523,965.561854 C471.553504,964.408803 470.774621,963.531177 469.78267,962.926642 Z" id="Fill-46" fill="#FEFEFE"></path>
                <path d="M476.484269,963 C476.0438,963 475.692165,963.179791 475.410857,963.557579 C475.140654,963.926263 475,964.474738 475,965.198452 L475,975.762858 C475,976.477469 475.140654,977.02822 475.410857,977.421939 C475.692165,977.80883 476.0438,978 476.484269,978 C476.924738,978 477.283775,977.813382 477.572486,977.431042 C477.857495,977.05553 478,976.497952 478,975.762858 L478,965.093764 C478,964.440601 477.857495,963.926263 477.572486,963.557579 C477.283775,963.179791 476.924738,963 476.484269,963" id="Fill-47" fill="#FEFEFE"></path>
                <path d="M476.515731,958 C476.114127,958 475.760642,958.141866 475.458976,958.419924 C475.151758,958.703657 475,959.06116 475,959.496217 C475,959.972888 475.148057,960.339849 475.447872,960.602774 C475.742134,960.863808 476.09562,961 476.515731,961 C476.922887,961 477.27082,960.863808 477.563233,960.602774 C477.853794,960.336066 478,959.967213 478,959.496217 C478,959.008197 477.850093,958.635561 477.548427,958.376419 C477.250463,958.124842 476.908081,958 476.515731,958" id="Fill-48" fill="#FEFEFE"></path>
                <path d="M491.25658,974.358476 L487.685586,968.260498 L489.533393,966.419907 C490.476634,965.498445 490.951477,964.754277 490.951477,964.2014 C490.951477,963.753499 490.803223,963.37325 490.519606,963.07465 C490.223098,962.77605 489.864279,962.624417 489.425962,962.624417 C489.062847,962.624417 488.753447,962.724728 488.49991,962.927683 C488.23778,963.128305 487.874664,963.513219 487.389078,964.061431 L483.472158,968.526439 L483.472158,959.351477 C483.472158,958.581649 483.31316,957.993779 482.997314,957.599533 C482.681468,957.198289 482.26034,957 481.723187,957 C481.175291,957 480.74342,957.214619 480.442614,957.660187 C480.152551,958.101089 480,958.737947 480,959.573095 L480,975.70451 C480,976.460342 480.156849,977.031882 480.459803,977.416796 C480.762757,977.808709 481.188183,978 481.723187,978 C482.180842,978 482.595524,977.804044 482.94145,977.407465 C483.293823,977.017885 483.472158,976.460342 483.472158,975.732504 L483.472158,972.72084 L485.362936,970.784603 L488.431155,976.273717 C488.820054,976.92224 489.140197,977.374806 489.36795,977.62675 C489.595703,977.881026 489.926589,978 490.352014,978 C490.839749,978 491.239391,977.829705 491.542346,977.484448 C491.8453,977.132193 492,976.66563 492,976.061431 C492,975.85381 491.93769,975.620529 491.825962,975.38958 C491.712086,975.151633 491.516562,974.815708 491.25658,974.358476" id="Fill-49" fill="#FEFEFE"></path>
                <path d="M497.980995,973 C497.422023,973 496.956959,973.19474 496.572387,973.586458 C496.192286,973.971461 496,974.439284 496,974.978735 C496,975.621153 496.20123,976.118075 496.599217,976.467264 C496.999441,976.823167 497.468977,977 498.014533,977 C498.544438,977 499.009503,976.823167 499.409726,976.460548 C499.801006,976.106883 500,975.609961 500,974.978735 C500,974.432569 499.801006,973.962507 499.409726,973.577504 C499.009503,973.19474 498.537731,973 497.980995,973" id="Fill-50" fill="#FEFEFE"></path>
                <path d="M515.311307,971.848021 C514.905042,971.848021 514.557513,971.970878 514.278512,972.202943 C513.999511,972.439557 513.742535,972.760352 513.500245,973.174427 C513.064611,973.879721 512.565345,974.400728 511.99021,974.741999 C511.424865,975.085545 510.744493,975.256181 509.946647,975.256181 C509.361723,975.256181 508.815957,975.151524 508.319139,974.935386 C507.827215,974.721523 507.408713,974.412104 507.05629,974.004854 C506.703867,973.595328 506.43955,973.099348 506.260891,972.519187 C506.07489,971.939026 505.979442,971.297437 505.979442,970.603519 C505.979442,969.133778 506.339207,967.962081 507.05629,967.113454 C507.773372,966.260276 508.725404,965.8371 509.890357,965.8371 C510.707783,965.8371 511.375918,966.007735 511.899657,966.353557 C512.435634,966.690278 512.937347,967.206734 513.424376,967.887001 C513.688693,968.246474 513.935879,968.499014 514.156143,968.658274 C514.376407,968.812983 514.648067,968.894889 514.983358,968.894889 C515.477729,968.894889 515.906021,968.737904 516.265786,968.433035 C516.618209,968.125891 516.789525,967.750493 516.789525,967.313666 C516.789525,966.876839 516.637788,966.410435 516.319628,965.909904 C516.008811,965.413924 515.55115,964.945245 514.958884,964.499317 C514.359276,964.062491 513.637298,963.698468 512.780715,963.420901 C511.916789,963.138784 510.976995,963 509.946647,963 C508.297112,963 506.865394,963.316245 505.673519,963.953284 C504.484092,964.588048 503.571219,965.486728 502.947137,966.64705 C502.313265,967.809647 502,969.142879 502,970.662673 C502,972.894585 502.690162,974.678295 504.058248,976.006977 C505.436123,977.333384 507.349976,978 509.807146,978 C510.954968,978 511.995105,977.852116 512.912873,977.565448 C513.835536,977.278781 514.596672,976.894282 515.198727,976.421053 C515.808125,975.950099 516.260891,975.456393 516.554577,974.928561 C516.853157,974.407553 517,973.913848 517,973.45882 C517,973.074321 516.836025,972.705749 516.515419,972.364477 C516.199706,972.023206 515.795888,971.848021 515.311307,971.848021" id="Fill-51" fill="#FEFEFE"></path>
                <path d="M526.202232,973.990595 C525.530451,974.837075 524.619247,975.25804 523.480242,975.25804 C522.729428,975.25804 522.076244,975.062348 521.516039,974.682342 C520.958159,974.300061 520.530451,973.751669 520.228266,973.023513 C519.928405,972.30446 519.779637,971.467081 519.779637,970.502275 C519.779637,969.528368 519.933054,968.675061 520.237564,967.94463 C520.539749,967.211924 520.967457,966.661256 521.529986,966.288076 C522.092515,965.917172 522.743375,965.728307 523.480242,965.728307 C524.619247,965.728307 525.530451,966.144721 526.202232,966.991201 C526.876337,967.826305 527.218038,968.995904 527.218038,970.502275 C527.218038,971.983617 526.876337,973.148665 526.202232,973.990595 Z M528.97536,965.077518 C528.305904,964.415352 527.51325,963.898817 526.588099,963.541566 C525.655974,963.177488 524.619247,963 523.480242,963 C522.359833,963 521.334728,963.177488 520.397954,963.532464 C519.472803,963.89199 518.684798,964.397148 518.029289,965.054763 C517.376104,965.710103 516.871688,966.501972 516.520688,967.432646 C516.178987,968.361044 516,969.385012 516,970.502275 C516,971.605886 516.174338,972.618477 516.509066,973.533222 C516.86239,974.445692 517.366806,975.239836 518.036262,975.917931 C518.698745,976.582373 519.493724,977.101183 520.397954,977.456159 C521.311483,977.817961 522.338912,978 523.480242,978 C524.62622,978 525.658298,977.817961 526.588099,977.467536 C527.501627,977.10801 528.296606,976.598301 528.959089,975.931584 C529.623896,975.269417 530.123663,974.470722 530.483961,973.5446 C530.823338,972.613926 531,971.596784 531,970.502275 C531,969.389563 530.825662,968.381523 530.486285,967.4554 C530.142259,966.540655 529.640167,965.753337 528.97536,965.077518 Z" id="Fill-52" fill="#FEFEFE"></path>
                <path d="M551.909277,963.621208 C551.185217,963.229824 550.314083,963.02503 549.316237,963.02503 C548.454154,963.02503 547.673527,963.209345 546.965305,963.575698 C546.257084,963.942051 545.594117,964.50182 544.971878,965.252731 C544.537442,964.513198 543.994397,963.951153 543.33143,963.580249 C542.670725,963.21162 541.878785,963.02503 540.957871,963.02503 C540.066372,963.02503 539.267644,963.204794 538.536796,963.575698 C537.814998,963.928398 537.13393,964.492718 536.493589,965.252731 L536.493589,964.904581 C536.493589,964.31068 536.32615,963.844205 535.991272,963.505158 C535.651869,963.175212 535.235535,963 534.730956,963 C534.217326,963 533.798729,963.177488 533.472902,963.541566 C533.156125,963.898817 533,964.426729 533,965.123028 L533,975.674454 C533,976.439017 533.174227,977.019266 533.531731,977.4152 C533.884711,977.804308 534.339511,978 534.898395,978 C535.459541,978 535.909816,977.804308 536.262795,977.4152 C536.602198,977.019266 536.774162,976.439017 536.774162,975.674454 L536.774162,970.693416 C536.774162,969.13926 536.971016,967.949181 537.348885,967.127731 C537.729016,966.288076 538.516431,965.876214 539.720181,965.876214 C540.315268,965.876214 540.758754,966.042324 541.034802,966.37682 C541.31085,966.699939 541.482814,967.127731 541.548432,967.630613 C541.609525,968.147148 541.636677,968.870752 541.636677,969.79915 L541.636677,975.674454 C541.636677,976.45267 541.815429,977.026092 542.163883,977.419751 C542.498761,977.806584 542.953561,978 543.510182,978 C544.082642,978 544.537442,977.806584 544.890421,977.419751 C545.2434,977.026092 545.413102,976.45267 545.413102,975.674454 L545.413102,970.773058 C545.413102,969.193871 545.553389,968.092536 545.81586,967.469053 C546.060231,966.991201 546.401896,966.595267 546.83407,966.313107 C547.270768,966.026396 547.727831,965.876214 548.212046,965.876214 C548.809396,965.876214 549.25967,966.042324 549.558345,966.365443 C549.850232,966.686286 550.033509,967.089047 550.10139,967.569175 C550.164745,968.044751 550.198685,968.677336 550.198685,969.471481 L550.198685,975.674454 C550.198685,976.439017 550.377438,977.019266 550.730417,977.4152 C551.085659,977.804308 551.535934,978 552.094817,978 C552.667277,978 553.131128,977.806584 553.479582,977.419751 C553.825773,977.026092 554,976.45267 554,975.674454 L554,968.474818 C554,967.043538 553.843875,965.994539 553.531624,965.320995 C553.171856,964.588289 552.631074,964.017142 551.909277,963.621208" id="Fill-53" fill="#FEFEFE"></path>
                <path d="M375.001,969.011 C374.999,969.003 374.999,968.997 374.999,968.989 C374.999,968.997 374.999,969.003 375.001,969.011" id="Fill-54" fill="#FEFEFE"></path>
                <path d="M375.072,970.439 C375.074,970.439 375.074,970.439 375.074,970.439 C375.012,970.143 374.964,969.849 374.926,969.561 C374.964,969.853 375.012,970.147 375.072,970.439" id="Fill-55" fill="#FEFEFE"></path>
                <path d="M376.011,974.021 C376.003,974.007 375.997,973.993 375.989,973.979 C375.997,973.993 376.003,974.007 376.011,974.021" id="Fill-56" fill="#FEFEFE"></path>
                <path d="M376.041,974.084 C376.013,974.028 375.985,973.97 375.959,973.916 C375.985,973.974 376.013,974.028 376.041,974.084" id="Fill-57" fill="#FEFEFE"></path>
                <path d="M375.714,973.276 C375.874,973.776 376.064,974.26 376.286,974.724 C376.06,974.252 375.874,973.766 375.72,973.276 L375.714,973.276" id="Fill-58" fill="#FEFEFE"></path>
                <path d="M387.982609,954.648019 L387.802372,954.041958 C388.511462,953.895105 389.045059,953.275058 389.045059,952.536131 C389.045059,951.687646 388.340711,951 387.47747,951 C386.614229,951 385.912253,951.687646 385.912253,952.536131 C385.912253,953.275058 386.443478,953.895105 387.152569,954.041958 L387.349407,954.715618 C384.928063,955.044289 383,955.972028 383,955.972028 L383.341502,957 C384.807115,956.522145 386.078261,956.228438 387.23083,956.107226 C388.359684,955.988345 389.208696,955.937063 389.901186,955.937063 C390.643478,955.937063 391.193676,955.995338 391.822134,956.100233 L392,954.988345 C392,954.988345 390.264032,954.463869 387.982609,954.648019" id="Fill-59" fill="#FEFEFE"></path>
                <path d="M373.97576,960 C373.940935,960.057348 372.957665,961.111111 372.181291,963.058542 C372.148515,962.996416 372.109594,962.936679 372.066576,962.879331 C371.833049,962.583035 371.509389,962.432497 371.095596,962.442055 C371.08945,962.442055 371.083305,962.442055 371.077159,962.442055 C370.821099,962.442055 370.64493,962.341697 370.530215,962.222222 C370.64493,962.052569 370.71253,961.839904 370.71253,961.603345 C370.71253,961.053763 370.329464,960.60454 369.856265,960.60454 C369.385114,960.60454 369,961.053763 369,961.603345 C369,962.157706 369.385114,962.602151 369.856265,962.602151 C369.93001,962.602151 370.001707,962.587814 370.069307,962.573477 C370.2803,962.845878 370.614203,963.082437 371.10379,963.07049 C371.355753,963.0681 371.540116,963.144564 371.665073,963.30227 C371.806419,963.483871 371.853534,963.744325 371.867873,963.942652 C371.867873,963.945042 371.867873,963.949821 371.865825,963.949821 C371.306589,965.725209 371.466371,967.937873 371.466371,967.937873 L372.820417,968 C372.847047,967.194743 372.947422,965.784946 373.295664,964.669056 C373.969614,962.504182 374.813588,961.151732 374.848412,961.094385 L374.856606,961.082437 C374.90577,961.008363 374.952885,960.936679 375,960.869773 L374.600546,960.532855 L373.97576,960" id="Fill-60" fill="#FEFEFE"></path>
                <path d="M402.128898,956 C401.650728,956 401.259875,956.45228 401.259875,957.016413 C401.259875,957.103951 401.27027,957.186626 401.288981,957.266869 C401.051975,957.519757 400.844075,957.916109 400.852391,958.497264 C400.856549,958.798784 400.790021,959.015198 400.650728,959.161094 C400.540541,959.27538 400.403326,959.33617 400.266112,959.375076 C399.245322,957.699696 397.985447,956.678419 397.985447,956.678419 L397,957.913678 C397.744283,958.706383 398.505198,959.69848 399.245322,960.938602 C399.756757,961.794529 400.282744,962.89848 400.721414,964 L402.051975,963.26079 C402.051975,963.26079 401.444906,961.505167 400.588358,959.929483 C400.738046,959.868693 400.887734,959.77386 401.018711,959.63769 C401.280665,959.362918 401.407484,958.97386 401.399168,958.487538 C401.397089,958.168997 401.486486,957.957447 401.592516,957.816413 C401.742204,957.94772 401.927235,958.032827 402.128898,958.032827 C402.611227,958.032827 403,957.575684 403,957.016413 C403,956.45228 402.611227,956 402.128898,956" id="Fill-61" fill="#FEFEFE"></path>
                <path d="M398.287787,969.464602 C396.261862,970.413717 392.929779,971.668142 388.542192,972.256637 C386.819811,972.486726 385.15032,972.570796 383.614204,972.570796 C381.615875,972.570796 379.849802,972.429204 378.495353,972.263274 C376.947739,972.075221 375.738163,971.847345 375,971.685841 C375.177067,972.227876 375.390928,972.765487 375.650779,973.287611 C375.655379,973.300885 375.662277,973.316372 375.669176,973.325221 C375.699071,973.384956 375.731265,973.449115 375.763459,973.511062 C375.793353,973.570796 375.825547,973.630531 375.855442,973.685841 C375.86464,973.701327 375.871539,973.716814 375.880737,973.732301 C376.315356,974.519912 376.839659,975.245575 377.432949,975.873894 C379.502566,978.050885 381.611275,978.396018 381.631972,978.39823 L381.664166,978.402655 L381.69636,978.413717 C381.714756,978.420354 383.58431,979 386.426584,979 C389.222866,979 391.966257,978.457965 394.580873,977.387168 C396.517115,976.433628 398.349875,974.986726 399.258207,973.69469 C399.959577,972.69469 400.465483,971.630531 400.766727,970.522124 C400.927698,969.933628 401.051875,968.99115 400.978288,968 C400.407994,968.367257 399.506561,968.893805 398.287787,969.464602" id="Fill-62" fill="#FEFEFE"></path>
                <path d="M393.472282,965.854301 C392.110547,965.854301 391.004845,964.780187 391.004845,963.460059 C391.004845,962.139932 392.110547,961.068014 393.472282,961.068014 C394.834017,961.068014 395.941984,962.139932 395.941984,963.460059 C395.941984,964.780187 394.834017,965.854301 393.472282,965.854301 Z M381.801238,968.703229 C379.601163,968.703229 377.813461,966.974543 377.813461,964.839494 C377.813461,962.704446 379.601163,960.971366 381.801238,960.971366 C384.005844,960.971366 385.79128,962.704446 385.79128,964.839494 C385.79128,966.974543 384.005844,968.703229 381.801238,968.703229 Z M390.057748,957.151562 C389.457316,957.054914 388.979236,957 388.297235,957 C387.665082,957 386.878856,957.050521 385.829798,957.158152 C384.77621,957.263586 383.602535,957.531566 382.243065,957.975269 C380.335277,958.594697 378.608751,959.567769 377.249281,960.786856 L377.2017,960.82859 C377.002311,961.008707 376.580876,961.386514 376.098264,961.98178 C376.039354,962.065249 375.173825,963.251387 374.489559,965.076722 C373.977492,966.442977 374.00015,968.430857 374.00015,968.452822 L374.00015,968.457215 C374.00015,968.922884 374.027339,969.386357 374.081718,969.845436 C374.081718,969.854222 374.081718,969.860812 374.083984,969.869598 C374.088515,969.926708 374.099844,969.983819 374.104376,970.043126 C374.147426,970.359429 374.201804,970.682322 374.272044,971.007412 C375.264456,971.251229 381.180413,972.588929 387.794232,971.697129 C391.938347,971.137009 395.087784,969.948674 396.997839,969.050284 C398.586152,968.303457 399.605754,967.629115 400,967.350153 C399.60802,965.939967 398.524976,963.725842 397.532563,962.344211 C394.693538,958.410186 391.630201,957.401969 390.057748,957.151562 Z" id="Fill-63" fill="#FEFEFE"></path>
            </g>
        </g>
    </g>
</svg>